<?xml version="1.0" encoding="UTF-8" standalone="no"?>
<!-- Created with Inkscape (http://www.inkscape.org/) -->

<svg
   version="1.1"
   id="svg1"
   width="242"
   height="260"
   viewBox="0 0 242 260"
   sodipodi:docname="doraemon_calcado_para_prueba_de_calcado.svg"
   inkscape:version="1.3.1 (9b9bdc1480, 2023-11-25, custom)"
   xmlns:inkscape="http://www.inkscape.org/namespaces/inkscape"
   xmlns:sodipodi="http://sodipodi.sourceforge.net/DTD/sodipodi-0.dtd"
   xmlns="http://www.w3.org/2000/svg"
   xmlns:svg="http://www.w3.org/2000/svg">
  <defs
     id="defs1" />
  <sodipodi:namedview
     id="namedview1"
     pagecolor="#ffffff"
     bordercolor="#000000"
     borderopacity="0.25"
     inkscape:showpageshadow="2"
     inkscape:pageopacity="0.0"
     inkscape:pagecheckerboard="0"
     inkscape:deskcolor="#d1d1d1"
     inkscape:zoom="2.8284271"
     inkscape:cx="118.79394"
     inkscape:cy="133.64318"
     inkscape:window-width="1854"
     inkscape:window-height="1011"
     inkscape:window-x="66"
     inkscape:window-y="32"
     inkscape:window-maximized="1"
     inkscape:current-layer="layer1" />
  <g
     inkscape:groupmode="layer"
     id="layer1"
     inkscape:label="dibujo">
    <ellipse
       style="fill:none;fill-opacity:1;stroke:#000000;stroke-width:0.996929;stroke-dasharray:none;stroke-opacity:1"
       id="path1"
       cx="118.73445"
       cy="122.16139"
       rx="82.378906"
       ry="75.664062" />
    <ellipse
       style="fill:none;fill-opacity:1;stroke:#000000;stroke-width:1;stroke-opacity:1;stroke-dasharray:none"
       id="path4"
       cx="100.67986"
       cy="19.083916"
       rx="33.522137"
       ry="17.176579" />
    <path
       style="fill:none;fill-opacity:1;stroke:#000000;stroke-width:1;stroke-dasharray:none;stroke-opacity:1"
       d="m 64.207336,155.25682 v 0 c 0,0 13.012183,13.57664 20.340744,18.07666 15.65413,9.61224 27.86557,13.7053 52.77304,8.04057 34.13194,-7.76266 36.27541,-65.50689 36.27541,-65.50689 l -2.95839,-1.47436 c -12.25449,-6.10721 -64.06465,28.54517 -96.710825,39.13944 -3.07151,0.99676 -9.538803,2.05243 -9.538803,2.05243 0,0 -34.519151,3.35214 -28.066071,-20.79698 3.116763,-11.66374 20.220688,-7.52418 20.220688,-7.52418"
       id="path5"
       sodipodi:nodetypes="ccsscsscsc" />
    <path
       style="fill:none;fill-opacity:1;stroke:#000000;stroke-width:1;stroke-dasharray:none;stroke-opacity:1"
       d="m 97.50557,179.78133 c 0,0 -6.631398,-31.61499 33.60949,-42.24489 17.42404,-4.60268 37.76417,5.83265 37.76417,5.83265"
       id="path6"
       sodipodi:nodetypes="csc" />
    <ellipse
       style="fill:none;fill-opacity:1;stroke:#000000;stroke-width:1.00316;stroke-dasharray:none;stroke-opacity:1"
       id="path7"
       cx="115.94724"
       cy="71.808975"
       rx="16.837429"
       ry="21.887997" />
    <ellipse
       style="fill:none;fill-opacity:1;stroke:#000000;stroke-width:0.965254;stroke-dasharray:none;stroke-opacity:1"
       id="ellipse7"
       cx="84.308243"
       cy="77.968887"
       rx="15.589266"
       ry="21.887642" />
    <ellipse
       style="fill:none;fill-opacity:1;stroke:#000000;stroke-width:1.15269;stroke-dasharray:none;stroke-opacity:1"
       id="path8"
       cx="97.055862"
       cy="101.49739"
       rx="10.380135"
       ry="9.5307693" />
    <path
       style="fill:none;fill-opacity:1;stroke:#000000;stroke-width:1;stroke-dasharray:none;stroke-opacity:1"
       d="m 182.79353,163.42264 c -9.1002,14.50967 -9.1002,14.50967 -9.1002,14.50967"
       id="path9" />
    <path
       style="fill:none;fill-opacity:1;stroke:#000000;stroke-width:1;stroke-dasharray:none;stroke-opacity:1"
       d="M 214.78488,133.2271 Z"
       id="path10" />
    <path
       style="fill:none;fill-opacity:1;stroke:#000000;stroke-width:1;stroke-dasharray:none;stroke-opacity:1"
       d="M 128.20674,95.877548 C 160.35321,71.019249 160.35321,71.019249 160.35321,71.019249"
       id="path11" />
    <path
       style="fill:none;fill-opacity:1;stroke:#000000;stroke-width:1;stroke-dasharray:none;stroke-opacity:1"
       d="M 134.08136,106.12713 C 171.61499,90.184898 171.61499,90.184898 171.61499,90.184898"
       id="path12" />
    <path
       style="fill:none;fill-opacity:1;stroke:#000000;stroke-width:1;stroke-dasharray:none;stroke-opacity:1"
       d="m 135.4601,117.83516 c 41.4341,-6.24681 41.4341,-6.24681 41.4341,-6.24681"
       id="path13" />
    <path
       style="fill:none;fill-opacity:1;stroke:#000000;stroke-width:1;stroke-dasharray:none;stroke-opacity:1"
       d="M 71.384125,108.1167 C 35.472557,105.0896 35.472557,105.0896 35.472557,105.0896"
       id="path14" />
    <path
       style="fill:none;fill-opacity:1;stroke:#000000;stroke-width:1;stroke-dasharray:none;stroke-opacity:1"
       d="m 72.598915,123.26474 c -37.541939,4.38557 -37.541939,4.38557 -37.541939,4.38557"
       id="path15" />
    <path
       style="fill:none;fill-opacity:1;stroke:#000000;stroke-width:1;stroke-dasharray:none;stroke-opacity:1"
       d="M 75.030228,138.0554 C 44.341713,152.67455 44.341713,152.67455 44.341713,152.67455"
       id="path16" />
    <path
       style="fill:none;fill-opacity:1;stroke:#000000;stroke-width:1;stroke-dasharray:none;stroke-opacity:1"
       d="M 24.283173,80.184441 Z"
       id="path17" />
    <path
       style="fill:none;fill-opacity:1;stroke:#000000;stroke-width:1;stroke-dasharray:none;stroke-opacity:1"
       d="m 100.12712,111.09116 c 0,0 -0.158647,8.12287 0.26865,11.10543 0.99508,6.94569 4.36008,17.8005 4.36008,17.8005"
       id="path19"
       sodipodi:nodetypes="csc" />
    <path
       style="fill:none;fill-opacity:1;stroke:#000000;stroke-width:1;stroke-dasharray:none;stroke-opacity:1"
       d="m 132.98056,72.855949 c 0,0 22.36737,-3.118954 37.59597,8.187859 36.64873,27.210672 12.01486,82.905762 12.01486,82.905762"
       id="path20"
       sodipodi:nodetypes="csc" />
    <path
       style="fill:none;fill-opacity:1;stroke:#000000;stroke-width:1;stroke-dasharray:none;stroke-opacity:1"
       d="m 68.91095,84.496437 c 0,0 -16.063506,5.168097 -23.149323,19.323913 -4.004392,7.99984 -6.090637,25.4757 -6.090637,25.4757"
       id="path21"
       sodipodi:nodetypes="csc" />
    <ellipse
       style="fill:none;fill-opacity:1;stroke:#000000;stroke-width:1.15725;stroke-dasharray:none;stroke-opacity:1"
       id="path22"
       cx="100.98342"
       cy="20.443695"
       rx="9.5880518"
       ry="5.7829452" />
    <ellipse
       style="fill:none;fill-opacity:1;stroke:#000000;stroke-width:1.06308;stroke-dasharray:none;stroke-opacity:1"
       id="path23"
       cx="100.95864"
       cy="21.717751"
       rx="8.6060276"
       ry="4.4415832" />
    <path
       style="fill:none;fill-opacity:1;stroke:#000000;stroke-width:1;stroke-dasharray:none;stroke-opacity:1"
       d="m 99.025299,23.550133 c 0,0 1.104461,-2.705014 2.288511,-2.716957 1.37169,-0.01384 2.71411,3.093383 2.71411,3.093383 l -0.004,16.549141 c 0,0 -1.20209,-2.751566 -2.40279,-2.689956 -1.24244,0.06375 -2.18837,3.023346 -2.18837,3.023346 z"
       id="path24"
       sodipodi:nodetypes="csccscc" />
    <path
       style="fill:none;fill-opacity:1;stroke:#000000;stroke-width:1;stroke-dasharray:none;stroke-opacity:1"
       d="m 91.291641,50.244812 c 0,0 0.842062,-6.28683 5.936173,-8.33908 1.778385,-0.716454 4.816096,-1.335721 7.288576,-1.621102 6.15231,-0.710119 10.20018,6.29348 10.20018,6.29348"
       id="path25"
       sodipodi:nodetypes="cssc" />
    <ellipse
       style="fill:none;fill-opacity:1;stroke:#000000;stroke-width:1.18605;stroke-dasharray:none;stroke-opacity:1"
       id="path26"
       cx="92.228096"
       cy="84.712654"
       rx="4.3365932"
       ry="7.2498469" />
    <ellipse
       style="fill:none;fill-opacity:1;stroke:#000000;stroke-width:1;stroke-dasharray:none;stroke-opacity:1"
       id="path27"
       cx="94.231758"
       cy="86.476524"
       rx="1.870079"
       ry="3.0745964" />
    <path
       style="fill:none;fill-opacity:1;stroke:#000000;stroke-width:3.5;stroke-dasharray:none;stroke-opacity:1"
       d="m 104.48796,87.025635 c 0,0 3.31245,-5.666193 5.92827,-7.420533 2.29831,-1.5414 7.45818,-2.083564 7.45818,-2.083564"
       id="path28"
       sodipodi:nodetypes="csc" />
    <path
       style="fill:none;fill-opacity:1;stroke:#000000;stroke-width:0.5;stroke-dasharray:none;stroke-opacity:1"
       d="m 102.17685,84.34996 c 0,0 0.3036,-5.427032 1.43548,-7.339072 1.90453,-3.217234 5.48803,-3.946694 5.48803,-3.946694 l -0.0458,0.319191 v 0"
       id="path29"
       sodipodi:nodetypes="csccc" />
    <path
       style="fill:none;fill-opacity:1;stroke:#000000;stroke-width:0.5;stroke-dasharray:none;stroke-opacity:1"
       d="M 189.7009,53.175324 Z"
       id="path30" />
    <path
       style="fill:#0000ff;fill-opacity:1;stroke:#000000;stroke-width:0.176777;stroke-dasharray:none;stroke-opacity:1"
       d="m 176.42314,175.13744 c 0,-0.10915 1.66536,-2.85963 3.7008,-6.11217 3.39405,-5.42353 3.84626,-6.35841 5.45575,-11.27873 4.00709,-12.24994 5.6961,-22.01374 5.6898,-32.89126 -0.009,-16.2793 -4.51809,-28.809549 -13.90776,-38.651956 -5.66917,-5.942526 -11.45619,-9.55954 -19.10171,-11.938988 -0.55792,-0.173637 -0.40688,-0.401066 0.95889,-1.44391 1.05525,-0.805744 1.55087,-1.42084 1.41989,-1.762167 -0.30455,-0.793658 -0.67319,-0.659869 -2.81618,1.022096 -1.82763,1.434442 -2.06403,1.523912 -3.26379,1.235251 -3.62106,-0.871228 -8.88839,-1.355062 -14.81685,-1.361014 l -6.45235,-0.0065 v -1.963139 c 0,-5.284968 -2.76986,-12.051132 -6.47106,-15.807398 -3.13068,-3.177261 -6.05003,-4.582117 -9.94684,-4.786647 -3.69455,-0.193915 -6.12065,0.477489 -9.11201,2.521673 -3.92169,2.679935 -7.12326,7.535771 -8.364556,12.686535 -0.317345,1.316832 -0.656541,2.3854 -0.753768,2.374597 -0.09723,-0.0108 -0.728225,-1.144406 -1.402217,-2.519118 -1.600614,-3.2647 -4.48248,-6.194335 -7.605933,-7.732006 -2.101475,-1.034552 -2.732514,-1.176194 -5.320604,-1.194247 -1.614992,-0.01127 -2.90231,-0.05454 -2.860706,-0.09617 0.0416,-0.04163 1.579542,-0.696372 3.41764,-1.454987 6.886704,-2.842261 13.763723,-4.740762 21.549994,-5.949187 5.68453,-0.882237 19.02921,-0.885333 24.74874,-0.0057 18.60826,2.861715 35.10111,10.938814 47.39126,23.209077 11.47901,11.460433 18.36208,24.68193 21.07976,40.491515 0.84013,4.88726 0.84013,15.97239 0,20.85965 -2.34628,13.64903 -7.66497,25.06732 -16.63334,35.70889 -2.85161,3.38363 -6.58285,7.26403 -6.58285,6.84603 z"
       id="path34" />
    <path
       style="fill:#0000ff;fill-opacity:1;stroke:#000000;stroke-width:0.176777;stroke-dasharray:none;stroke-opacity:1"
       d="m 41.082816,104.92086 c -1.567447,-0.10913 -1.843743,-0.22853 -1.689405,-0.73009 0.101483,-0.32979 0.509857,-1.66137 0.907498,-2.95906 4.034562,-13.166649 13.224679,-26.302418 24.929692,-35.632914 2.720576,-2.168671 9.40651,-6.732156 9.863241,-6.732156 0.12164,0 -0.498807,0.883931 -1.378771,1.964292 -1.946713,2.390038 -3.372988,5.14926 -4.473756,8.65477 -0.730584,2.326621 -0.828734,3.33719 -0.828734,8.532785 v 5.893596 l -1.944544,0.784201 C 57.672376,88.243421 48.94427,95.885988 45.394098,103.1492 c -0.762001,1.55896 -1.16197,2.01769 -1.715517,1.96753 -0.397014,-0.036 -1.565108,-0.12411 -2.595765,-0.19587 z"
       id="path35" />
    <path
       style="fill:#0000ff;fill-opacity:1;stroke:#000000;stroke-width:0.176777;stroke-dasharray:none;stroke-opacity:1"
       d="m 37.130008,121.88753 c 0.0066,-4.64105 0.562833,-10.24254 1.395744,-14.05544 l 0.38653,-1.76947 1.668674,0.10414 c 0.917771,0.0573 2.003573,0.1746 2.412893,0.26073 l 0.744219,0.15659 -0.852317,2.92295 c -1.027364,3.52326 -2.365825,9.66234 -2.949753,13.52955 -0.432906,2.86703 -0.927771,3.71231 -2.17336,3.71231 -0.586334,0 -0.638958,-0.40438 -0.63263,-4.86136 z"
       id="path36" />
    <path
       style="fill:#ffff00;fill-opacity:1;stroke:#000000;stroke-width:0.176777;stroke-dasharray:none;stroke-opacity:1"
       d="m 97.224894,24.919237 c -1.580472,-0.428161 -3.159558,-1.402086 -3.760615,-2.319415 -0.554385,-0.846099 -0.54829,-0.95055 0.107875,-1.848798 2.500162,-3.422556 11.541006,-3.639996 14.604926,-0.351261 0.39455,0.423498 0.71736,1.028429 0.71736,1.34429 0,0.697916 -1.58173,2.18678 -2.93345,2.761211 -1.30351,0.553945 -1.30919,0.552163 -1.30919,-0.410587 0,-0.45696 -0.47829,-1.491104 -1.06287,-2.298097 -0.82831,-1.143442 -1.2909,-1.46726 -2.09607,-1.46726 -1.518577,0 -2.76482,1.465065 -3.18209,3.740819 -0.176372,0.96192 -0.303237,1.061122 -1.085876,0.849098 z"
       id="path37" />
    <path
       style="fill:#ffff00;fill-opacity:1;stroke:#000000;stroke-width:0.176777;stroke-dasharray:none;stroke-opacity:1"
       d="m 100.05349,34.206291 c -10e-4,-0.729204 -0.102996,-2.621535 -0.22629,-4.205179 l -0.224172,-2.879354 1.817502,-0.12585 1.8175,-0.12585 -2.2e-4,4.331029 -2.2e-4,4.331029 h -1.59099 -1.59099 z"
       id="path38" />
    <path
       style="fill:#ffff00;fill-opacity:1;stroke:#000000;stroke-width:0.176777;stroke-dasharray:none;stroke-opacity:1"
       d="m 92.420099,48.756839 c 0.372446,-1.549688 2.002792,-4.017285 3.395706,-5.139545 1.529191,-1.232057 6.010145,-2.467698 9.189555,-2.534055 2.80102,-0.05846 4.59985,0.775131 6.94706,3.219317 l 1.59355,1.659385 -1.53027,0.09711 c -4.80278,0.304778 -13.347471,1.871607 -18.994867,3.483063 -0.788648,0.225037 -0.830424,0.170427 -0.600734,-0.785275 z"
       id="path39" />
    <path
       style="fill:#ffff00;fill-opacity:1;stroke:#000000;stroke-width:0.176777;stroke-dasharray:none;stroke-opacity:1"
       d="m 100.62012,39.686368 c 0.71878,-1.257093 0.93634,-1.357009 1.61586,-0.742056 0.51175,0.463132 0.56112,0.667388 0.21447,0.887389 -0.74152,0.470608 -2.11993,0.361159 -1.83033,-0.145333 z"
       id="path40" />
    <path
       style="fill:#ffff00;fill-opacity:1;stroke:#000000;stroke-width:0.176777;stroke-dasharray:none;stroke-opacity:1"
       d="m 100.05561,37.220856 c 0,-0.15099 0.71595,-0.274527 1.59099,-0.274527 0.87504,0 1.59048,0.119325 1.58986,0.265165 -6.2e-4,0.145841 -0.71656,0.269378 -1.59099,0.274527 -0.87442,0.0051 -1.58986,-0.114176 -1.58986,-0.265165 z"
       id="path41" />
    <path
       style="fill:#ffff00;fill-opacity:1;stroke:#000000;stroke-width:0.176777;stroke-dasharray:none;stroke-opacity:1"
       d=""
       id="path42" />
    <path
       style="fill:#ffff00;fill-opacity:1;stroke:#000000;stroke-width:0.176777;stroke-dasharray:none;stroke-opacity:1"
       d="m 92.630988,19.031532 c 0,-0.607236 1.542729,-1.823689 3.363162,-2.65188 2.519775,-1.14635 7.35331,-1.139082 9.94869,0.01496 1.00176,0.445431 2.18296,1.194764 2.62489,1.665184 1.01242,1.077662 0.80715,1.074052 -1.15076,-0.02024 -3.85341,-2.153713 -11.278791,-1.736404 -14.167263,0.796206 -0.340295,0.29837 -0.618719,0.386467 -0.618719,0.195771 z"
       id="path43" />
    <path
       style="fill:#fff6d5;fill-opacity:1;stroke:#000000;stroke-width:0.176777;stroke-dasharray:none;stroke-opacity:1"
       d="m 99.703378,24.483572 c 7.27e-4,-0.437522 0.338912,-1.349284 0.751532,-2.026137 l 0.75021,-1.230643 1.01623,1.217287 c 0.55893,0.669508 1.01624,1.58127 1.01624,2.026138 0,0.734918 -0.16158,0.80885 -1.76777,0.80885 -1.597926,0 -1.767637,-0.07643 -1.766442,-0.795495 z"
       id="path44" />
    <path
       style="fill:#fff6d5;fill-opacity:1;stroke:#000000;stroke-width:0.176777;stroke-dasharray:none;stroke-opacity:1"
       d="M 94.752309,35.306077 C 94.266173,35.234718 92.675183,35.007658 91.216775,34.801499 83.559476,33.719075 75.504354,30.374017 71.780417,26.730145 67.809577,22.844678 66.923626,19.178659 68.967186,15.089133 71.914187,9.191663 81.746382,4.3976977 93.77558,2.9930978 c 4.617981,-0.5392226 13.24454,-0.275706 17.77051,0.5428382 9.93344,1.7965088 18.23223,6.4185372 20.9477,11.66686 3.2824,6.344041 -2.04666,13.375313 -13.14314,17.34135 -3.18896,1.139779 -8.93209,2.377587 -12.85314,2.770218 l -1.8666,0.186911 0.0988,-4.463466 0.0988,-4.463466 1.45475,-0.484373 c 1.9679,-0.655233 4.23638,-2.666607 4.74476,-4.206997 0.89323,-2.706525 -0.36776,-4.877475 -3.81961,-6.575926 -2.24722,-1.105724 -2.56542,-1.164573 -6.26279,-1.158256 -3.294836,0.0056 -4.167781,0.131045 -5.663051,0.813606 -5.763438,2.630893 -6.198744,7.794613 -0.883884,10.484882 0.875045,0.442929 2.088603,0.912845 2.696797,1.044258 1.31811,0.284805 1.535888,1.124725 1.541953,5.946987 l 0.0039,3.093592 -1.502602,-0.04815 c -0.826431,-0.02648 -1.900349,-0.106532 -2.386485,-0.177891 z"
       id="path45" />
    <path
       style="fill:#ffff00;fill-opacity:1;stroke:#000000;stroke-width:0.176777;stroke-dasharray:none;stroke-opacity:1"
       d="m 100.05561,24.377627 c 0,-0.554154 0.96151,-2.634093 1.21768,-2.634093 0.24192,0 1.61075,2.363965 1.61075,2.78177 0,0.23121 -0.5972,0.40021 -1.41422,0.40021 -1.04152,0 -1.41421,-0.144388 -1.41421,-0.547887 z"
       id="path46" />
    <path
       style="fill:#ff0000;fill-opacity:1;stroke:#000000;stroke-width:0.176777;stroke-dasharray:none;stroke-opacity:1"
       d="m 93.59991,109.64776 c -2.141687,-0.79842 -4.250836,-2.6095 -5.210268,-4.47392 -0.736607,-1.43142 -1.212678,-4.24307 -0.80676,-4.76468 0.151325,-0.19445 1.067767,-0.727388 2.036538,-1.184301 2.348541,-1.107669 4.064883,-2.508052 5.697048,-4.648289 1.523642,-1.997931 2.320698,-2.188528 5.137902,-1.22861 4.97561,1.69536 7.59561,7.41785 5.35258,11.69087 -0.83279,1.58648 -2.64824,3.33307 -4.43029,4.26225 -1.534411,0.80006 -6.023775,1.00019 -7.77675,0.34668 z"
       id="path47" />
    <path
       style="fill:#ffaaaa;fill-opacity:1;stroke:#000000;stroke-width:0.176777;stroke-dasharray:none;stroke-opacity:1"
       d="m 112.2532,183.07009 c -2.8405,-0.25805 -7.47767,-1.2432 -10.67937,-2.26879 -2.809941,-0.90011 -3.312538,-1.17886 -3.504502,-1.94371 -0.470891,-1.87618 0.121852,-10.47866 0.90912,-13.19404 3.912022,-13.49304 15.037982,-22.91203 32.391482,-27.42194 9.11586,-2.36907 20.53116,-1.03469 32.67884,3.81997 l 3.71231,1.48358 -0.0929,1.17145 c -0.12786,1.61157 -2.98768,9.04174 -5.12745,13.32176 -5.64476,11.29074 -13.24613,18.68628 -22.28804,21.68452 -7.62852,2.52957 -20.31084,4.04568 -27.99945,3.3472 z"
       id="path48" />
    <path
       style="fill:#000000;fill-opacity:1;stroke:#000000;stroke-width:0.176777;stroke-dasharray:none;stroke-opacity:1"
       d="m 90.377907,89.968358 c -2.196669,-2.610593 -2.196669,-7.974049 0,-10.584642 1.454613,-1.728709 3.166093,-1.3188 4.373247,1.047417 1.032514,2.023895 0.937182,2.477137 -0.521025,2.477137 -0.889846,0 -1.368393,0.219658 -1.733062,0.795495 -1.236426,1.952401 -0.95779,5.011344 0.55286,6.069445 0.915877,0.641505 0.539792,1.266788 -0.761929,1.266788 -0.68867,0 -1.294252,-0.339757 -1.910091,-1.07164 z"
       id="path49" />
    <path
       style="fill:#aa0000;fill-opacity:1;stroke:#000000;stroke-width:0.176777;stroke-dasharray:none;stroke-opacity:1"
       d="m 93.504897,177.53696 c -4.014411,-1.92875 -10.041299,-5.67101 -13.071501,-8.11646 -4.333943,-3.4976 -14.408122,-13.02936 -14.079898,-13.32181 0.160224,-0.14275 1.712825,-0.53444 3.450226,-0.87041 8.468017,-1.63748 22.894119,-7.94755 53.939966,-23.59368 20.29579,-10.22844 29.49114,-14.25312 37.05861,-16.22005 5.05945,-1.31504 7.26523,-1.33882 10.00816,-0.10786 1.58771,0.71252 2.07642,1.10823 2.07408,1.67938 -0.004,1.02566 -0.92502,8.70634 -1.38976,11.59239 -0.69448,4.31275 -2.66858,13.29972 -2.9949,13.63413 -0.0452,0.0463 -1.62927,-0.5478 -3.52026,-1.32017 -9.55198,-3.90146 -20.3025,-5.80453 -28.14897,-4.98296 -5.58468,0.58475 -13.28669,2.92586 -18.82468,5.72197 -4.92462,2.48643 -10.58795,6.90039 -13.5376,10.55112 -5.326267,6.59221 -7.948294,14.07425 -7.948294,22.6807 0,2.1219 -0.123813,3.85799 -0.27514,3.85799 -0.151326,0 -1.384344,-0.53293 -2.740039,-1.18428 z"
       id="path50" />
  </g>
</svg>
