<?xml version="1.0" encoding="UTF-8" standalone="no"?>
<!-- Created with Inkscape (http://www.inkscape.org/) -->

<svg
   width="297mm"
   height="210mm"
   viewBox="0 0 297 210"
   version="1.1"
   id="svg1"
   inkscape:version="1.3.1 (9b9bdc1480, 2023-11-25, custom)"
   sodipodi:docname="reto_8.svg"
   xmlns:inkscape="http://www.inkscape.org/namespaces/inkscape"
   xmlns:sodipodi="http://sodipodi.sourceforge.net/DTD/sodipodi-0.dtd"
   xmlns="http://www.w3.org/2000/svg"
   xmlns:svg="http://www.w3.org/2000/svg">
  <sodipodi:namedview
     id="namedview1"
     pagecolor="#ffffff"
     bordercolor="#000000"
     borderopacity="0.25"
     inkscape:showpageshadow="2"
     inkscape:pageopacity="0.0"
     inkscape:pagecheckerboard="0"
     inkscape:deskcolor="#d1d1d1"
     inkscape:document-units="mm"
     inkscape:zoom="1.6626434"
     inkscape:cx="607.16569"
     inkscape:cy="442.6686"
     inkscape:window-width="1854"
     inkscape:window-height="1011"
     inkscape:window-x="66"
     inkscape:window-y="32"
     inkscape:window-maximized="1"
     inkscape:current-layer="layer1">
    <inkscape:page
       x="0"
       y="0"
       width="297"
       height="210"
       id="page1"
       margin="0"
       bleed="0" />
  </sodipodi:namedview>
  <defs
     id="defs1" />
  <g
     inkscape:label="Capa 1"
     inkscape:groupmode="layer"
     id="layer1"
     transform="translate(4.6891743,-3.9693713)">
    <rect
       style="fill:none;stroke:#241f1c;stroke-width:0.529167"
       id="rect2"
       width="285.89981"
       height="200.97618"
       x="1.3014065"
       y="7.7120824" />
    <path
       id="rect3"
       style="fill:#008080;stroke:#241f1c;stroke-width:0.529167"
       d="M 191.33452 18.622224 A 6.8942461 6.8286457 0 0 0 184.52098 25.503974 A 6.8942461 6.8286457 0 0 0 185.64649 29.188504 L 153.5668 66.876643 L 136.31927 66.876643 L 103.77552 31.496373 A 6.8942461 6.8286457 0 0 0 105.22711 27.33177 L 105.22608 27.224799 A 6.8942461 6.8286457 0 0 0 98.251829 20.503763 A 6.8942461 6.8286457 0 0 0 91.438808 27.384996 A 6.8942461 6.8286457 0 0 0 98.359833 34.160293 A 6.8942461 6.8286457 0 0 0 101.48832 33.38618 L 132.2942 66.876643 L 82.177875 66.876643 L 82.177875 70.982852 L 44.044285 70.982852 L 44.044285 99.148058 L 82.177875 99.148058 L 82.177875 173.08928 L 212.82468 173.08928 L 212.82468 100.41413 L 250.97171 100.41413 L 250.97171 72.249441 L 212.82468 72.249441 L 212.82468 66.876643 L 157.457 66.876643 L 187.7828 31.24936 A 6.8942461 6.8286457 0 0 0 191.44201 32.279271 A 6.8942461 6.8286457 0 0 0 198.30929 25.450231 L 198.30877 25.343777 A 6.8942461 6.8286457 0 0 0 191.33452 18.622224 z " />
    <rect
       style="fill:#eec1c1;stroke:#241f1c;stroke-width:0.529167;fill-opacity:1"
       id="rect8"
       width="76.92205"
       height="14.272334"
       x="110.77464"
       y="140.95554" />
    <path
       style="fill:none;stroke:#241f1c;stroke-width:0.529167"
       d="m 127.3168,141.06407 0.0804,14.29041"
       id="path8" />
    <path
       style="fill:none;stroke:#241f1c;stroke-width:0.529167"
       d="m 136.18082,141.22687 -0.24119,13.94672"
       id="path9" />
    <path
       style="fill:none;stroke:#241f1c;stroke-width:0.529167"
       d="m 144.44185,141.38967 0.16079,13.54876"
       id="path10" />
    <path
       style="fill:none;stroke:#241f1c;stroke-width:0.529167"
       d="m 153.14508,141.10024 0.4422,14.05526"
       id="path11" />
    <path
       style="fill:none;stroke:#241f1c;stroke-width:0.529167"
       d="m 161.54681,141.58865 0.80399,13.38596"
       id="path12" />
    <path
       style="fill:none;stroke:#241f1c;stroke-width:0.529167"
       d="m 169.78774,141.1726 0.4221,14.01908"
       id="path13" />
    <path
       style="fill:none;stroke:#241f1c;stroke-width:0.529167"
       d="m 177.32517,141.04597 1.4271,14.23616"
       id="path14" />
    <path
       style="fill:none;stroke:#241f1c;stroke-width:0.529167"
       d="m 183.39532,140.77464 0.24121,14.41704"
       id="path15" />
    <path
       style="fill:none;stroke:#241f1c;stroke-width:0.529167"
       d="m 120.40245,141.4982 -0.28139,13.67539 0.68339,0.0724 -0.9849,-0.0724"
       id="path16" />
    <path
       style="fill:none;stroke:#241f1c;stroke-width:0.529167"
       d="m 114.3725,141.24496 -0.1809,13.78392"
       id="path17" />
    <ellipse
       style="fill:#ffffff;stroke:#241f1c;stroke-width:0.529167;fill-opacity:1"
       id="path18"
       cx="120.78435"
       cy="103.60146"
       rx="16.642664"
       ry="16.388756" />
    <ellipse
       style="fill:#ffffff;stroke:#241f1c;stroke-width:0.529167;fill-opacity:1"
       id="path19"
       cx="173.16451"
       cy="102.8779"
       rx="16.642664"
       ry="16.388756" />
    <ellipse
       style="fill:none;stroke:#241f1c;stroke-width:0.577104"
       id="path20"
       cx="116.282"
       cy="105.69077"
       rx="11.533436"
       ry="10.65767" />
    <ellipse
       style="fill:none;stroke:#241f1c;stroke-width:0.577104"
       id="path21"
       cx="168.50136"
       cy="104.22556"
       rx="11.533436"
       ry="10.65767" />
    <path
       style="fill:none;stroke:#241f1c;stroke-width:0.529167"
       d="m 132.04025,67.055734 26.00919,-0.217069 0.0201,0.198974 h -0.0402"
       id="path22" />
    <path
       style="fill:#ffff00;stroke:#241f1c;stroke-width:0.529167"
       d="M 173.868,60.688359 Z"
       id="path23" />
    <path
       style="fill:#ffff00;stroke:#241f1c;stroke-width:1.2029"
       d="m 460.46292,173.49963 c -32.22453,-35.05406 -58.78182,-63.73466 -59.01619,-63.73466 -0.23437,0 -1.68707,0.55778 -3.22822,1.2395 -4.009,1.77337 -9.99052,2.14465 -14.7781,0.91729 -4.79964,-1.23046 -8.10413,-3.12363 -11.66149,-6.681 -12.57202,-12.57202 -7.44507,-33.941222 9.58577,-39.953618 3.24901,-1.146998 4.78152,-1.335105 9.14679,-1.12272 10.96299,0.533386 19.18528,6.901745 22.44866,17.387016 2.08519,6.699711 1.24344,12.785597 -2.66642,19.278492 l -2.04422,3.39472 60.96517,66.26973 c 33.53085,36.44836 60.96518,66.38418 60.96518,66.52406 0,0.13988 -2.50355,0.24567 -5.56343,0.23509 l -5.56343,-0.0192 z"
       id="path24"
       transform="matrix(0.26458333,0,0,0.26458333,-4.6891743,3.9693713)" />
    <path
       style="fill:#ffff00;stroke:#241f1c;stroke-width:1.2029"
       d="M 601.8616,235.61878 C 616.0676,218.94684 719.56324,97.129068 720.09463,96.4546 c 0.6295,-0.798995 0.42537,-1.665003 -1.20291,-5.103185 -1.80908,-3.819981 -1.96106,-4.609417 -1.96106,-10.186602 0,-5.780251 0.0996,-6.247289 2.26888,-10.636484 2.67954,-5.421676 6.13735,-8.77878 11.86524,-11.519669 3.6077,-1.726344 4.39686,-1.87073 10.22468,-1.87073 5.87895,0 6.58575,0.132406 10.23066,1.916532 12.59119,6.16319 17.81512,20.758567 11.76457,32.869599 -5.87757,11.764799 -20.52237,16.927889 -32.33529,11.399959 l -3.93271,-1.84033 -57.0686,67.0629 c -31.38773,36.88459 -57.6952,67.30181 -58.46103,67.59381 -0.76583,0.29201 -3.44665,0.53092 -5.95737,0.53092 -4.28827,0 -4.5106,-0.0638 -3.66809,-1.05254 z"
       id="path25"
       transform="matrix(0.26458333,0,0,0.26458333,-4.6891743,3.9693713)" />
    <path
       style="fill:#000000;stroke:#241f1c;stroke-width:1.2029"
       d="m 446.11101,421.94214 c -14.99604,-4.04431 -26.30549,-14.86519 -29.88018,-28.58937 -1.19969,-4.6059 -1.18759,-13.25941 0.0251,-17.95997 1.62881,-6.31347 4.81296,-11.62625 10.14525,-16.92747 5.37721,-5.34589 9.61735,-8.09767 15.77952,-10.24066 21.08211,-7.33163 44.20246,1.56708 53.46219,20.57687 5.14739,10.56735 5.00718,21.01636 -0.42999,32.04579 -4.51348,9.15568 -13.65574,16.79091 -24.27609,20.27434 -6.67018,2.1878 -18.32732,2.57306 -24.82582,0.82047 z"
       id="path26"
       transform="matrix(0.26458333,0,0,0.26458333,-4.6891743,3.9693713)" />
    <path
       style="fill:#000000;stroke:#241f1c;stroke-width:1.2029"
       d="m 646.30528,417.05441 c -8.90609,-1.74735 -15.72635,-5.39661 -22.36271,-11.96545 -7.79005,-7.71079 -11.36381,-15.94225 -11.36381,-26.17427 0,-10.23201 3.57376,-18.46347 11.36381,-26.17426 8.21085,-8.12731 16.69243,-11.85426 28.33201,-12.44958 19.99852,-1.02285 36.79952,10.17161 43.0737,28.69989 1.56381,4.61809 1.56381,15.22981 0,19.84791 -4.94163,14.59312 -16.48131,24.7775 -31.70286,27.97945 -4.56968,0.96126 -13.05564,1.07691 -17.34014,0.23631 z"
       id="path27"
       transform="matrix(0.26458333,0,0,0.26458333,-4.6891743,3.9693713)" />
  </g>
</svg>
