<?xml version="1.0" encoding="UTF-8" standalone="no"?>
<!-- Created with Inkscape (http://www.inkscape.org/) -->

<svg
   width="297mm"
   height="210mm"
   viewBox="0 0 297 210"
   version="1.1"
   id="svg1"
   inkscape:version="1.3.1 (9b9bdc1480, 2023-11-25, custom)"
   sodipodi:docname="reto_5.svg"
   xmlns:inkscape="http://www.inkscape.org/namespaces/inkscape"
   xmlns:sodipodi="http://sodipodi.sourceforge.net/DTD/sodipodi-0.dtd"
   xmlns="http://www.w3.org/2000/svg"
   xmlns:svg="http://www.w3.org/2000/svg">
  <sodipodi:namedview
     id="namedview1"
     pagecolor="#ffffff"
     bordercolor="#000000"
     borderopacity="0.25"
     inkscape:showpageshadow="2"
     inkscape:pageopacity="0.0"
     inkscape:pagecheckerboard="0"
     inkscape:deskcolor="#d1d1d1"
     inkscape:document-units="mm"
     inkscape:zoom="0.7198092"
     inkscape:cx="611.2731"
     inkscape:cy="398.71677"
     inkscape:window-width="1854"
     inkscape:window-height="1011"
     inkscape:window-x="66"
     inkscape:window-y="32"
     inkscape:window-maximized="1"
     inkscape:current-layer="layer2">
    <inkscape:page
       x="0"
       y="0"
       width="297"
       height="210"
       id="page1"
       margin="0 0 0 0"
       bleed="0" />
  </sodipodi:namedview>
  <defs
     id="defs1">
    <marker
       style="overflow:visible"
       id="marker12"
       refX="0"
       refY="0"
       orient="auto-start-reverse"
       inkscape:stockid="Dart arrow"
       markerWidth="1"
       markerHeight="1"
       viewBox="0 0 1 1"
       inkscape:isstock="true"
       inkscape:collect="always"
       preserveAspectRatio="xMidYMid">
      <path
         style="fill:context-stroke;fill-rule:evenodd;stroke:none"
         d="M 0,0 5,-5 -12.5,0 5,5 Z"
         transform="scale(-0.5)"
         id="path12" />
    </marker>
    <marker
       style="overflow:visible"
       id="DartArrow"
       refX="0"
       refY="0"
       orient="auto-start-reverse"
       inkscape:stockid="Dart arrow"
       markerWidth="1"
       markerHeight="1"
       viewBox="0 0 1 1"
       inkscape:isstock="true"
       inkscape:collect="always"
       preserveAspectRatio="xMidYMid">
      <path
         style="fill:context-stroke;fill-rule:evenodd;stroke:none"
         d="M 0,0 5,-5 -12.5,0 5,5 Z"
         transform="scale(-0.5)"
         id="path10" />
    </marker>
  </defs>
  <g
     inkscape:label="Capa 1"
     inkscape:groupmode="layer"
     id="layer1">
    <path
       id="path1"
       style="fill:#008080;fill-opacity:1;stroke:#000000;stroke-width:0.132292"
       d="m 149.49929,164.14092 a 18.505096,18.308872 0 0 0 -0.93638,0.0661 H 26.152805 a 18.505096,18.308872 0 0 0 -18.5053268,18.30896 18.505096,18.308872 0 0 0 18.5053268,18.30845 18.505096,18.308872 0 0 0 0.93638,-0.0661 H 149.49929 a 18.505096,18.308872 0 0 0 18.50533,-18.30845 18.505096,18.308872 0 0 0 -18.50533,-18.30896 z M 26.866455,175.45341 a 6.5184641,7.0293384 0 0 1 6.51847,7.02954 6.5184641,7.0293384 0 0 1 -6.51847,7.02903 6.5184641,7.0293384 0 0 1 -6.51846,-7.02903 6.5184641,7.0293384 0 0 1 6.51846,-7.02954 z m 123.427615,0 a 6.5184641,7.0293384 0 0 1 6.51847,7.02954 6.5184641,7.0293384 0 0 1 -6.51847,7.02903 6.5184641,7.0293384 0 0 1 -6.51846,-7.02903 6.5184641,7.0293384 0 0 1 6.51846,-7.02954 z" />
    <path
       id="path2"
       style="fill:#c3feff;fill-opacity:1;stroke:#000000;stroke-width:0.132292"
       d="m 75.038124,84.366752 a 18.505096,18.308872 61.18851 0 0 0.509186,0.78861 l 58.99303,107.256958 a 18.505096,18.308872 61.18851 0 0 24.96075,7.39093 18.505096,18.308872 61.18851 0 0 7.12379,-25.03793 18.505096,18.308872 61.18851 0 0 -0.50919,-0.78861 L 107.12267,66.719746 A 18.505096,18.308872 61.18851 0 0 82.162356,59.32857 18.505096,18.308872 61.18851 0 0 75.038124,84.366752 Z M 144.05061,186.36705 a 6.5184641,7.0293384 61.18851 0 1 3.01791,-9.09929 6.5184641,7.0293384 61.18851 0 1 9.30035,2.32405 6.5184641,7.0293384 61.18851 0 1 -3.01747,9.09904 6.5184641,7.0293384 61.18851 0 1 -9.30079,-2.3238 z M 84.567213,78.218537 a 6.5184641,7.0293384 61.18851 0 1 3.017912,-9.099291 6.5184641,7.0293384 61.18851 0 1 9.300349,2.324052 6.5184641,7.0293384 61.18851 0 1 -3.01747,9.099037 6.5184641,7.0293384 61.18851 0 1 -9.300791,-2.323798 z"
       inkscape:transform-center-x="29.548064"
       inkscape:transform-center-y="-53.178617" />
    <path
       id="path3"
       style="fill:#b4ddff;fill-opacity:1;stroke:#000000;stroke-width:0.132292"
       d="m 208.57389,35.782541 a 18.308872,18.505096 80.380658 0 0 -0.91216,0.221641 L 86.972751,56.459108 a 18.308872,18.505096 80.380658 0 0 -15.185679,21.143789 18.308872,18.505096 80.380658 0 0 21.304502,14.958759 18.308872,18.505096 80.380658 0 0 0.91217,-0.221644 L 214.69272,71.885102 a 18.308872,18.505096 80.380658 0 0 15.18577,-21.143301 18.308872,18.505096 80.380658 0 0 -21.3046,-14.95926 z M 89.555653,67.428116 a 7.0293384,6.5184641 80.380658 0 1 7.601465,5.841454 7.0293384,6.5184641 80.380658 0 1 -5.252254,8.019448 7.0293384,6.5184641 80.380658 0 1 -7.601373,-5.840956 7.0293384,6.5184641 80.380658 0 1 5.252162,-8.019946 z M 211.24783,46.803164 a 7.0293384,6.5184641 80.380658 0 1 7.60147,5.841457 7.0293384,6.5184641 80.380658 0 1 -5.25226,8.019446 7.0293384,6.5184641 80.380658 0 1 -7.60137,-5.840956 7.0293384,6.5184641 80.380658 0 1 5.25216,-8.019947 z"
       inkscape:transform-center-x="-59.936573"
       inkscape:transform-center-y="-10.424035" />
    <path
       id="path4"
       style="fill:#00bec0;fill-opacity:1;stroke:#000000;stroke-width:0.132292"
       d="m 284.6071,154.80689 a 18.505096,18.308872 63.099603 0 0 -0.4826,-0.80514 L 228.74116,44.837106 a 18.505096,18.308872 63.099603 0 0 -24.70038,-8.219228 18.505096,18.308872 63.099603 0 0 -7.95481,24.786441 18.505096,18.308872 63.099603 0 0 0.48261,0.805152 L 251.9519,171.37411 a 18.505096,18.308872 63.099603 0 0 24.69994,8.21946 18.505096,18.308872 63.099603 0 0 7.95526,-24.78668 z M 219.03458,50.561855 a 6.5184641,7.0293384 63.099603 0 1 -3.31968,8.993591 6.5184641,7.0293384 63.099603 0 1 -9.21767,-2.632909 6.5184641,7.0293384 63.099603 0 1 3.31923,-8.993356 6.5184641,7.0293384 63.099603 0 1 9.21812,2.632674 z m 55.8437,110.072055 a 6.5184641,7.0293384 63.099603 0 1 -3.31968,8.99359 6.5184641,7.0293384 63.099603 0 1 -9.21768,-2.63292 6.5184641,7.0293384 63.099603 0 1 3.31924,-8.99335 6.5184641,7.0293384 63.099603 0 1 9.21812,2.63268 z"
       inkscape:transform-center-x="-27.758192"
       inkscape:transform-center-y="54.134427" />
  </g>
  <g
     inkscape:groupmode="layer"
     id="layer2"
     inkscape:label="Capa 2">
    <path
       style="fill:#00bec0;fill-opacity:1;stroke:#000000;stroke-width:0.731999;marker-end:url(#DartArrow)"
       d="M 72.656622,182.48267 C 47.778235,137.83539 47.778235,137.83539 47.778235,137.83539"
       id="path5" />
    <path
       style="fill:#00bec0;fill-opacity:1;stroke:#000000;stroke-width:0.731999;marker-end:url(#DartArrow)"
       d="m 125.41167,137.65724 c 65.94831,26.41753 65.94831,26.41753 65.94831,26.41753"
       id="path6" />
    <path
       style="fill:#00bec0;fill-opacity:1;stroke:#000000;stroke-width:0.731999;marker-end:url(#marker12)"
       d="M 148.5,64.172096 C 115.84581,31.936917 115.84581,31.936917 115.84581,31.936917"
       id="path7" />
    <path
       style="fill:#00bec0;fill-opacity:1;stroke:#000000;stroke-width:0.731999;marker-end:url(#marker12)"
       d="M 240.34653,108.10561 C 257.73762,64.432563 257.73762,64.432563 257.73762,64.432563"
       id="path8" />
    <path
       style="fill:#00bec0;fill-opacity:1;stroke:#000000;stroke-width:0.731999"
       d="M 280.07762,61.97088 Z"
       id="path9" />
    <text
       xml:space="preserve"
       style="font-size:7.76111px;font-family:FreeSans;-inkscape-font-specification:FreeSans;fill:#000000;fill-opacity:1;stroke:#000000;stroke-width:0.731999"
       x="29.447079"
       y="132.34839"
       id="text12"><tspan
         sodipodi:role="line"
         id="tspan12"
         style="font-size:7.76111px;fill:#000000;fill-opacity:1;stroke-width:0.732"
         x="29.447079"
         y="132.34839">Eslab贸n 1</tspan></text>
    <text
       xml:space="preserve"
       style="font-size:7.7611px;font-family:FreeSans;-inkscape-font-specification:FreeSans;fill:#000000;fill-opacity:1;stroke:#000000;stroke-width:0.731999"
       x="198.15207"
       y="168.55835"
       id="text13"><tspan
         sodipodi:role="line"
         id="tspan13"
         style="stroke-width:0.732"
         x="198.15207"
         y="168.55835">Eslab贸n 2</tspan></text>
    <text
       xml:space="preserve"
       style="font-size:7.7611px;font-family:FreeSans;-inkscape-font-specification:FreeSans;fill:#000000;fill-opacity:1;stroke:#000000;stroke-width:0.731999"
       x="95.868736"
       y="26.476664"
       id="text14"><tspan
         sodipodi:role="line"
         id="tspan14"
         style="stroke-width:0.732"
         x="95.868736"
         y="26.476664">Eslab贸n 3</tspan></text>
    <text
       xml:space="preserve"
       style="font-size:7.7611px;font-family:FreeSans;-inkscape-font-specification:FreeSans;fill:#000000;fill-opacity:1;stroke:#000000;stroke-width:0.731999"
       x="249.46346"
       y="57.678398"
       id="text15"><tspan
         sodipodi:role="line"
         id="tspan15"
         style="stroke-width:0.732"
         x="249.46346"
         y="57.678398">Eslab贸n 4</tspan></text>
  </g>
</svg>
