<?xml version="1.0" encoding="UTF-8" standalone="no"?>
<!-- Created with Inkscape (http://www.inkscape.org/) -->

<svg
   width="210mm"
   height="297mm"
   viewBox="0 0 210 297"
   version="1.1"
   id="svg1"
   xmlns:inkscape="http://www.inkscape.org/namespaces/inkscape"
   xmlns:sodipodi="http://sodipodi.sourceforge.net/DTD/sodipodi-0.dtd"
   xmlns:xlink="http://www.w3.org/1999/xlink"
   xmlns="http://www.w3.org/2000/svg"
   xmlns:svg="http://www.w3.org/2000/svg">
  <sodipodi:namedview
     id="namedview1"
     pagecolor="#ffffff"
     bordercolor="#000000"
     borderopacity="0.25"
     inkscape:showpageshadow="2"
     inkscape:pageopacity="0.0"
     inkscape:pagecheckerboard="0"
     inkscape:deskcolor="#d1d1d1"
     inkscape:document-units="mm">
    <inkscape:page
       x="0"
       y="0"
       width="210"
       height="297"
       id="page33"
       margin="0"
       bleed="0" />
  </sodipodi:namedview>
  <defs
     id="defs1">
    <inkscape:perspective
       sodipodi:type="inkscape:persp3d"
       inkscape:vp_x="0 : 148.5 : 1"
       inkscape:vp_y="0 : 1000 : 0"
       inkscape:vp_z="210 : 148.5 : 1"
       inkscape:persp3d-origin="105 : 99 : 1"
       id="perspective43" />
    <linearGradient
       id="linearGradient16"
       inkscape:collect="always">
      <stop
         style="stop-color:#000000;stop-opacity:1;"
         offset="0"
         id="stop16" />
      <stop
         style="stop-color:#000000;stop-opacity:0;"
         offset="1"
         id="stop17" />
    </linearGradient>
    <linearGradient
       inkscape:collect="always"
       xlink:href="#linearGradient16"
       id="linearGradient17"
       x1="6.9182005"
       y1="206.40286"
       x2="76.791367"
       y2="124.46643"
       gradientUnits="userSpaceOnUse" />
    <meshgradient
       inkscape:collect="always"
       id="meshgradient17"
       gradientUnits="userSpaceOnUse"
       x="13.778025"
       y="2.9203472">
      <meshrow
         id="meshrow17">
        <meshpatch
           id="meshpatch17">
          <stop
             path="c 33.7202,0  67.4405,0  101.161,0"
             style="stop-color:#ffffff;stop-opacity:1"
             id="stop18" />
          <stop
             path="c 0,26.0384  0,52.0768  0,78.1152"
             style="stop-color:#000000;stop-opacity:1"
             id="stop19" />
          <stop
             path="c -33.7202,0  -67.4405,0  -101.161,0"
             style="stop-color:#ffffff;stop-opacity:1"
             id="stop20" />
          <stop
             path="c 0,-26.0384  0,-52.0768  0,-78.1152"
             style="stop-color:#000000;stop-opacity:1"
             id="stop21" />
        </meshpatch>
      </meshrow>
    </meshgradient>
    <meshgradient
       inkscape:collect="always"
       id="meshgradient21"
       gradientUnits="userSpaceOnUse"
       x="17.835451"
       y="13.565894">
      <meshrow
         id="meshrow21">
        <meshpatch
           id="meshpatch21">
          <stop
             path="c 59.783,0  119.566,0  179.349,0"
             style="stop-color:#ffffff;stop-opacity:1"
             id="stop22" />
          <stop
             path="c 0,8.71872  0,17.4374  0,26.1562"
             style="stop-color:#000000;stop-opacity:1"
             id="stop23" />
          <stop
             path="c -59.783,0  -119.566,0  -179.349,0"
             style="stop-color:#ffffff;stop-opacity:1"
             id="stop24" />
          <stop
             path="c 0,-8.71872  0,-17.4374  0,-26.1562"
             style="stop-color:#000000;stop-opacity:1"
             id="stop25" />
        </meshpatch>
      </meshrow>
    </meshgradient>
  </defs>
  <g
     inkscape:label="Capa 1"
     inkscape:groupmode="layer"
     id="layer1">
    <path
       id="rect1"
       style="fill:url(#meshgradient21);fill-opacity:1;stroke-width:0.264583"
       d="m 17.835604,13.566097 v 26.156026 h 32.267798 c 0.004,-0.0028 0.0079,-0.0055 0.01188,-0.0083 0.03039,-0.08141 0.05854,-0.163964 0.09095,-0.24443 0.285512,-0.891479 0.573135,-1.787908 0.931209,-2.652551 0.236647,-0.571432 0.605114,-0.658937 0.77463,-0.359151 1.15937,-2.009929 2.322069,-4.017687 3.480408,-6.028056 -0.972416,-0.08829 -1.949368,-0.134598 -2.930571,-0.139526 -2.242419,0.06434 -4.480277,0.26297 -6.711735,0.488342 -1.750677,0.151759 -2.739201,0.171487 -1.316199,-2.576587 0.151349,-0.292284 0.614469,-0.237159 0.925008,-0.346232 0.482057,-0.169314 0.968378,-0.325915 1.452625,-0.488859 4.099488,-1.347877 8.217683,-2.638228 12.387358,-3.749642 1.14032,-2.193539 2.185028,-4.435855 3.150195,-6.712252 0.182223,-0.401923 0.907924,-2.683668 1.567346,-2.638598 0.579523,0.03961 1.073655,0.444662 1.610238,0.667142 0.49417,2.087102 1.040865,4.154788 1.725476,6.19032 0.07289,0.210925 0.152222,0.419455 0.226343,0.629936 2.112962,-0.407404 4.231843,-0.785952 6.348966,-1.166854 2.597611,-0.419815 5.187884,-0.937721 7.813477,-1.151868 1.111007,0.002 2.231538,0.155212 2.371431,1.583366 0.06487,0.66225 -0.56531,1.123584 -0.948262,1.505335 -2.320075,1.60384 -4.776085,3.006202 -7.19181,4.460709 -1.738684,1.036778 -3.45153,2.115016 -5.150073,3.215308 0.1898,0.4669 0.380478,0.933363 0.571025,1.399915 0.0092,0.01812 0.02048,0.035 0.02945,0.05323 0.0042,0.01766 0.0073,0.02845 0.01137,0.04548 0.103556,0.253467 0.206284,0.507355 0.310059,0.760677 0.53125,1.24036 1.045737,2.488155 1.596285,3.720186 0.06108,0.136695 0.131662,0.302613 0.205155,0.467672 0.009,0.01552 0.01842,0.02933 0.02739,0.04496 0.0908,0.158226 0.383928,0.363359 0.249597,0.486792 -0.0016,0.0015 -0.0035,0.0026 -0.0052,0.0041 0.0093,0.01563 0.01747,0.03667 0.02687,0.05168 -0.06556,0.027 -0.129204,0.05998 -0.194303,0.08837 -0.63126,0.510836 -1.415928,0.817336 -2.113567,1.239718 -0.0591,-0.105112 -0.112777,-0.212789 -0.168981,-0.31936 -0.06539,-0.0079 -0.08854,-0.107318 -0.111105,-0.209807 -0.06142,-0.121155 -0.119876,-0.243722 -0.178283,-0.366386 -0.07179,-0.121058 -0.1401,-0.244242 -0.221176,-0.359151 -0.678434,-0.961535 -1.471782,-1.711998 -2.36368,-2.471167 -0.74815,-0.593096 -1.549451,-1.083019 -2.38125,-1.511019 -1.954594,1.295526 -3.964531,2.503238 -6.013069,3.645773 -1.501911,0.81236 -3.036798,1.56104 -4.541325,2.368331 -0.223965,0.120905 -0.440993,0.252254 -0.658875,0.382405 h 49.068841 c 1.82673,-1.244813 3.66032,-2.479471 5.50716,-3.694348 4.00388,-2.625797 8.02531,-5.224648 12.01684,-7.869287 3.72898,-2.452341 7.48409,-4.864153 11.28251,-7.207829 2.55675,-1.608601 5.10137,-3.237228 7.68584,-4.801257 1.45507,-0.875975 2.92612,-1.724787 4.39146,-2.583305 z m 131.110346,0 c -0.0718,0.04193 -0.14269,0.08523 -0.21446,0.127124 -2.44371,1.394466 -4.86577,2.826119 -7.27708,4.275708 -2.57759,1.548353 -5.11265,3.165828 -7.65844,4.765601 -3.78935,2.331482 -7.53199,4.736639 -11.24996,7.179923 -3.99226,2.644946 -8.01492,5.243569 -12.01942,7.869804 -0.9684,0.637338 -1.92516,1.291802 -2.88768,1.937866 h 89.54544 V 13.566097 Z m -69.516173,8.474935 c -0.17825,0.02735 -0.354817,0.0664 -0.532784,0.0956 0.05494,0.04662 0.09685,0.08923 0.14366,0.132809 0.128963,-0.07736 0.260539,-0.150448 0.389124,-0.228409 z" />
    <path
       style="fill:#ffffff;fill-opacity:1;stroke-width:0.264583"
       d="m 32.042227,22.716365 c -0.09717,0.634015 0.109402,-2.563218 0.09284,-1.922014 -0.08512,3.294799 0.262686,6.594453 0.32499,9.90257 0.04332,2.30024 0.46682,4.955415 -0.417827,7.144888"
       id="path1" />
    <path
       id="path2"
       style="fill:#ffffff;fill-opacity:1;stroke-width:0.264583"
       d="m 43.876392,29.47417 -10.023678,0.972034 c 3.107626,-0.0531 6.742754,-0.267964 9.946163,-0.682646 0.01957,-0.08965 0.04416,-0.184987 0.07752,-0.289388 z" />
    <path
       id="path3"
       style="fill:#ffffff;fill-opacity:1;stroke-width:0.264583"
       d="m 46.248857,22.256523 c -0.123108,4.762742 -0.0059,-0.376467 -0.04651,2.883028 -0.01017,0.814831 -0.02149,1.62911 -0.03101,2.442745 0.08969,-0.02979 0.179018,-0.06066 0.268717,-0.09043 z m 0.308508,8.44858 c -0.132718,0.01292 -0.265751,0.023 -0.398425,0.03617 0.01321,1.810037 0.07124,3.61889 0.229443,5.429126 0.132654,1.517868 0.245474,1.816626 0.278536,1.79679 0.08358,-0.05014 0.127532,-0.397449 0.13901,-0.459404 z" />
    <path
       id="path4"
       style="fill:#ffffff;fill-opacity:1;stroke-width:0.264583"
       d="m 52.461914,30.290141 c -0.450829,0.01293 -0.901411,0.03496 -1.351855,0.05788 -0.222193,0.53347 -0.355121,1.00587 -0.357601,1.351856 -0.0092,1.284031 0.230715,2.627828 0.835608,3.760494 0.137279,0.257059 0.304981,0.489229 0.494026,0.702799 1.103015,-1.911532 2.20865,-3.821357 3.310393,-5.7335 -0.972417,-0.08829 -1.949367,-0.134598 -2.930571,-0.139526 z m 13.550077,3.035473 c -1.954596,1.295527 -3.964529,2.503237 -6.013069,3.645773 -0.670975,0.362919 -1.349296,0.711481 -2.027783,1.059883 2.237769,-0.03857 4.480293,-0.567986 5.781042,-1.234033 0.807163,-0.413306 1.454067,-1.107035 2.042769,-1.796789 0.386497,-0.452841 0.56763,-0.952393 0.587561,-1.474846 -0.123319,-0.06712 -0.24575,-0.135788 -0.37052,-0.199988 z" />
    <path
       id="path5"
       style="fill:#ffffff;fill-opacity:1;stroke-width:0.264583"
       d="m 75.796924,27.030391 c -0.901413,0.538369 -1.795384,1.088598 -2.684591,1.646412 -0.06229,0.966656 -0.12035,1.933565 -0.21394,2.897497 -0.08909,0.917598 -0.284121,1.820261 -0.473873,2.723865 0.267224,0.629119 0.537108,1.256974 0.815971,1.881022 0.0032,0.0071 0.0076,0.01701 0.01085,0.02429 0.416634,-0.221708 0.832245,-0.444184 1.086238,-0.492476 1.93247,-0.367435 3.848132,-0.489726 5.803264,-0.626836 2.192542,-0.153755 2.325611,-0.183096 4.921663,-0.208772 1.546156,-0.01529 3.177113,1.01472 2.181779,0.417545 z" />
    <path
       style="fill:#ffffff;fill-opacity:1;stroke-width:0.264583"
       d="m 89.472877,34.16491 c -0.209401,0.640752 -0.566996,1.3336 -0.649986,2.005584 -0.04145,0.335608 0.224124,-0.638249 0.324993,-0.961012 0.192395,-0.615638 0.375836,-1.234998 0.603568,-1.838454 1.234104,-3.270211 2.958809,-6.320306 4.132024,-9.610086 -0.309512,0.933154 -0.774406,1.828473 -0.928536,2.799461 -0.04189,0.263882 0.227295,0.485327 0.37141,0.710313 2.458502,3.838109 6.506273,7.272542 9.61048,9.69365"
       id="path6" />
    <path
       style="fill:#000000;fill-opacity:1;stroke-width:0.264583"
       d="m 90.958563,31.866842 c 0.572601,0.264626 1.145201,0.529254 1.717799,0.793883"
       id="path7" />
    <path
       id="path8"
       style="fill:url(#meshgradient17);fill-opacity:1;stroke-width:0.264583"
       d="M 62.737256,2.920752 C 56.654457,2.880401 52.26303,5.2026753 46.335156,6.3458659 45.59472,6.4886585 42.475218,7.2986293 41.831555,7.1396159 41.202144,6.9841211 40.644673,6.2531251 40.020813,6.4295817 34.32596,5.1778832 29.067243,8.0701789 24.653276,11.401888 c -1.658312,1.25171 -3.439506,2.483843 -4.781621,4.094324 -1.308895,1.57062 -2.338192,3.396407 -3.389457,5.139221 -1.119879,1.856566 -2.204134,3.921134 -2.506824,6.100403 -0.251738,1.812456 -0.167456,3.651118 -0.186035,5.473567 -0.06832,6.701454 0.14628,13.322235 1.300179,19.930567 3.06384,17.546484 17.258762,25.354286 32.983517,27.892871 0.0043,-0.0032 0.0086,-0.0066 0.01292,-0.0098 4.006908,-2.947597 8.08321,-5.795779 12.176001,-8.622729 3.770102,-2.643333 7.523329,-5.311672 11.225154,-8.050155 2.989906,-2.206873 5.989063,-4.401232 8.966895,-6.624402 2.840202,-2.130953 5.680614,-4.261522 8.537463,-6.370153 2.885506,-2.137161 5.763318,-4.28528 8.695594,-6.358269 3.858568,-2.710625 7.747938,-5.377938 11.687658,-7.969539 1.69083,-1.108872 3.3811,-2.218574 5.07462,-3.323311 -0.42112,-2.125472 -1.1465,-4.090954 -2.32647,-5.634282 C 107.41702,20.915158 99.814699,17.553554 93.180359,13.95057 83.383736,8.6302084 75.459339,3.6354841 63.97749,2.9615763 63.555982,2.9368367 63.142775,2.923442 62.737256,2.920752 Z M 39.324215,6.7339559 c -0.841197,0.4782892 -1.531929,1.274064 -2.367298,1.784904 -1.319598,0.8069537 -3.459197,0.8123722 -4.875154,1.3787272 z m 24.592297,7.5323571 c 0.579523,0.03961 1.073655,0.444662 1.610238,0.667142 0.49417,2.087102 1.040865,4.154788 1.725476,6.19032 0.07289,0.210925 0.152222,0.419455 0.226343,0.629936 2.112962,-0.407404 4.231843,-0.785952 6.348966,-1.166854 2.597611,-0.419815 5.187884,-0.937721 7.813477,-1.151868 1.111007,0.002 2.231538,0.155212 2.371431,1.583366 0.06487,0.66225 -0.56531,1.123584 -0.948262,1.505335 -2.320075,1.60384 -4.776085,3.006202 -7.19181,4.460709 -1.738684,1.036778 -3.45153,2.115016 -5.150073,3.215308 0.1898,0.4669 0.380478,0.933363 0.571025,1.399915 0.0092,0.01812 0.02048,0.035 0.02945,0.05323 0.0042,0.01766 0.0073,0.02845 0.01137,0.04548 0.103556,0.253467 0.206284,0.507355 0.310059,0.760677 0.53125,1.24036 1.045737,2.488155 1.596285,3.720186 0.06108,0.136695 0.131662,0.302613 0.205155,0.467672 0.009,0.01552 0.01842,0.02933 0.02739,0.04496 0.0908,0.158226 0.383928,0.363359 0.249597,0.486792 -0.0016,0.0015 -0.0035,0.0026 -0.0052,0.0041 0.0093,0.01563 0.01747,0.03667 0.02687,0.05168 -0.06556,0.027 -0.129204,0.05998 -0.194303,0.08837 -0.63126,0.510836 -1.415928,0.817336 -2.113567,1.239718 -0.0591,-0.105112 -0.112777,-0.212789 -0.168981,-0.31936 -0.06539,-0.0079 -0.08854,-0.107318 -0.111105,-0.209807 -0.06142,-0.121155 -0.119876,-0.243722 -0.178283,-0.366386 -0.07179,-0.121058 -0.1401,-0.244242 -0.221176,-0.359151 -0.678434,-0.961535 -1.471782,-1.711998 -2.36368,-2.471167 -0.74815,-0.593096 -1.549451,-1.083019 -2.38125,-1.511019 -1.954594,1.295526 -3.964531,2.503238 -6.013069,3.645773 -1.501911,0.81236 -3.036798,1.56104 -4.541325,2.368331 -0.63935,0.345151 -1.259404,0.719654 -1.828829,1.170988 -0.339428,0.262643 -0.676542,0.52852 -1.005623,0.804085 -0.14021,0.114355 -0.26407,0.24569 -0.398426,0.366386 -0.225083,0.176318 -0.452969,0.348319 -0.682129,0.519348 -0.194209,0.147289 -0.386496,0.298005 -0.58446,0.440283 -0.390751,0.279064 -0.492004,-0.295498 -0.719853,-0.783931 -0.319871,-0.120079 -0.635188,-0.25616 -0.948262,-0.387057 -0.05152,-0.02154 0.0313,-0.107134 0.04703,-0.160714 0.0384,-0.08226 0.06804,-0.170953 0.100769,-0.257348 -0.264026,-0.264244 -0.445086,-0.52767 -0.167948,-0.732255 0.189814,-0.139822 0.385357,-0.271372 0.573608,-0.413412 0.08941,-0.06578 0.180934,-0.128582 0.271818,-0.192236 0.03039,-0.08141 0.05854,-0.163964 0.09095,-0.24443 0.285512,-0.891479 0.573135,-1.787908 0.931209,-2.652551 0.236647,-0.571432 0.605114,-0.658937 0.77463,-0.359151 1.15937,-2.009929 2.322069,-4.017687 3.480408,-6.028056 -0.972416,-0.08829 -1.949368,-0.134598 -2.930571,-0.139526 -2.242419,0.06434 -4.480277,0.26297 -6.711735,0.488342 -1.750677,0.151759 -2.739201,0.171487 -1.316199,-2.576587 0.151349,-0.292284 0.614469,-0.237159 0.925008,-0.346232 0.482057,-0.169314 0.968378,-0.325915 1.452625,-0.488859 4.099488,-1.347877 8.217683,-2.638228 12.387358,-3.749642 1.14032,-2.193539 2.185028,-4.435855 3.150195,-6.712252 0.182223,-0.401923 0.907924,-2.683668 1.567346,-2.638598 z m 15.513265,7.774719 c -0.179187,0.02749 -0.356983,0.06417 -0.535885,0.09353 0.05592,0.0474 0.09923,0.09062 0.146761,0.134876 0.128963,-0.07736 0.260539,-0.150447 0.389124,-0.22841 z m 35.336863,12.967167 c -1.41502,0.922806 -2.82742,1.849624 -4.24005,2.776058 -3.92043,2.58019 -7.79011,5.236053 -11.630301,7.933883 -2.915899,2.065287 -5.781121,4.201153 -8.651151,6.329329 -2.853771,2.105825 -5.690761,4.233938 -8.527645,6.362402 -2.983208,2.224886 -5.987641,4.421783 -8.980847,6.633187 -3.715457,2.748886 -7.480167,5.429763 -11.263396,8.084261 -3.487376,2.40947 -6.953799,4.84715 -10.384379,7.335987 3.995086,0.473955 8.047307,0.637142 12.006503,0.548803 9.733737,-0.217178 20.877734,-1.201285 29.527913,-6.016687 7.063459,-3.932104 11.269453,-10.00483 15.413533,-16.671333 1.55602,-2.503182 3.43103,-5.198829 4.59662,-7.980909 0.60618,-1.44691 1.45346,-3.419387 1.71772,-5.097363 0.45505,-2.889535 0.76893,-6.657124 0.41548,-10.237618 z M 51.57463,41.82277 c -0.0035,0.01031 -0.0066,0.02116 -0.0098,0.03204 0.01591,-0.0077 0.02577,-0.01703 0.0098,-0.03204 z" />
    <path
       style="fill:url(#linearGradient17);fill-opacity:1;stroke-width:0.264583"
       d="m 34.078198,127.18231 c -0.170228,0.71031 -0.388443,1.41081 -0.510686,2.13094 -0.312504,1.84092 -0.224676,4.6712 -0.371432,6.22567 -0.984144,10.42411 -2.275218,20.82503 -3.249906,31.25366 -0.252466,2.70124 -0.481701,5.27221 -0.882121,7.93879 -0.0258,0.17173 -0.41746,3.00837 -0.603568,3.00837 -0.08062,0 0.478661,-1.16089 0.51071,-1.21171 0.640932,-1.01629 1.375351,-1.91558 2.182092,-2.79946 4.01668,-4.40071 8.206351,-8.61878 12.071102,-13.16164 3.044261,-3.57841 5.624893,-7.53151 8.264072,-11.40676 0.724024,-1.06313 1.915739,-2.79279 2.739218,-3.9276 0.171273,-0.23602 0.329417,-0.93873 0.510709,-0.71031 5.258843,6.62577 7.21368,15.29991 11.003291,22.72995 1.093763,2.14447 2.188728,4.14112 3.621336,6.05853 0.9954,1.33225 2.302068,2.67659 2.971353,4.22009 0.113773,0.26238 0.767919,2.99038 1.253529,3.71868 0.139343,0.20898 -0.04641,-0.50092 -0.04641,-0.75209 0,-0.66394 0.043,-1.30534 0.139276,-1.96382 0.204187,-1.39662 0.362215,-2.78831 0.603544,-4.17828 0.984104,-5.66811 2.116823,-11.31558 3.760637,-16.83856 2.667243,-8.96154 6.585206,-17.63124 8.031937,-26.90823 0.12994,-0.83323 1.245513,-5.76311 1.021395,-6.26745 -0.10926,-0.24588 -0.560485,0.20992 -0.696402,0.2507 -0.520866,0.15625 -1.161764,0.0956 -1.717823,0.16713 -2.525601,0.32469 -5.273199,0.25068 -7.799803,0.25068 -3.148055,0 -5.591005,-0.10842 -8.635481,-0.91921 -3.865523,-1.02945 -5.252643,-2.8294 -9.424768,-1.71311 -0.03952,0.0106 -1.483294,0.29828 -1.671381,0.5014 -0.975751,1.05374 -1.659194,2.60006 -2.414225,3.80226 -1.020056,1.62419 -2.397934,2.97019 -3.57492,4.47077 -1.900473,2.42298 -3.433548,5.11853 -5.246277,7.60451 -0.612328,0.83974 -2.002928,3.6769 -2.460668,3.6769 -0.268668,0 -0.105616,-0.52733 -0.139274,-0.79388 -0.165248,-1.30858 -0.361836,-2.75813 -0.928539,-3.96939 -0.56229,-1.20183 -1.32262,-2.31478 -1.903537,-3.50977 -1.625293,-3.34334 -2.061874,-6.866 -6.406975,-6.97776 z"
       id="path9" />
    <path
       style="fill:#000000;fill-opacity:1;stroke-width:0.264583"
       id="path10"
       d="m 109.15477,95.545459 c 2.0721,3.384907 3.72818,7.011281 5.39627,10.607191 1.59368,3.25854 2.81103,6.74064 4.81892,9.77975 0.29807,0.27363 0.59614,0.54726 0.89421,0.82089 0,0 0.0729,0.033 0.0729,0.033 v 0 c 0.12533,-0.0795 0.25066,-0.15902 0.37599,-0.23854 -0.17273,-1.15887 -0.60253,-2.14938 -1.05339,-3.23298 -0.85087,-2.045 -1.79459,-4.04995 -2.70763,-6.06736 -1.10358,-2.38073 -2.19298,-4.76732 -3.36926,-7.1134 -0.55772,-1.112363 -0.95671,-1.92339 -1.59919,-2.951193 -0.13127,-0.209995 -0.28696,-0.403696 -0.43044,-0.605547 z" />
    <path
       style="fill:#000000;fill-opacity:1;stroke-width:0.264583"
       id="path11"
       d="m 118.74404,107.85636 c 0.32803,-0.1112 2.44125,-0.82313 2.62957,-0.90793 0.49123,-0.22121 0.9359,-0.53451 1.41429,-0.78228 0.48774,-0.25261 1.02014,-0.42259 1.48301,-0.71831 3.0494,-1.94821 -1.02231,0.0944 2.00379,-1.33758 0,0 -0.0667,-0.0441 -0.0667,-0.0441 v 0 c -1.86762,0.88324 -0.21912,0.2303 -2.87887,0.7451 -0.62676,0.12131 -1.23461,0.32732 -1.85875,0.46147 -0.6679,0.14355 -1.35024,0.21617 -2.01556,0.37126 -0.93413,0.21777 -1.82608,0.59442 -2.75994,0.8142 z" />
    <path
       style="fill:#000000;fill-opacity:1;stroke-width:0.264583"
       id="path12"
       d="m 119.32514,93.989849 c 1.67863,3.043955 3.29351,6.137961 5.13903,9.086551 1.13484,1.81313 1.68964,2.50611 2.92327,4.18274 1.73337,1.96762 0.88767,1.07241 2.51575,2.70562 0,0 0.0734,0.0317 0.0734,0.0317 v 0 c -0.40668,-1.17046 -0.15521,-0.51528 -0.79318,-1.95022 -2.45973,-4.30433 -5.02202,-8.549879 -7.34021,-12.934101 z" />
    <path
       style="fill:#000000;fill-opacity:1;stroke-width:0.264583"
       id="path13"
       d="m 132.65017,100.95838 c -1.09685,0.33332 -1.96797,1.14664 -1.9558,2.36598 0.002,0.24309 0.0764,0.48017 0.11456,0.72026 0.14764,0.22576 0.22203,0.52246 0.44293,0.67729 1.50778,1.05684 3.30604,2.51885 5.30663,2.14374 0.28802,-0.054 0.58835,-0.12061 0.83236,-0.28289 0.22104,-0.147 0.34079,-0.4071 0.51119,-0.61065 0.0625,-0.25869 0.17617,-0.51018 0.18739,-0.77606 0.0363,-0.86042 -0.49118,-1.94555 -1.14176,-2.49521 -0.45506,-0.38448 -0.99576,-0.6543 -1.49364,-0.98146 0,0 -0.0739,-0.0307 -0.0739,-0.0307 v 0 c -0.13265,0.0482 -0.36893,0.007 -0.39794,0.14468 -0.0437,0.20824 0.17231,0.38954 0.24368,0.59 0.24062,0.67581 0.40966,1.31752 0.14434,2.01516 -0.15115,0.15296 -0.26519,0.35496 -0.45345,0.45889 -0.45005,0.24844 -1.22767,0.28786 -1.70703,0.21295 -0.32133,-0.0502 -1.16291,-0.51422 -0.93355,-0.28364 0.47653,0.47907 1.09725,0.81011 1.71942,1.07371 0.23249,0.0985 -0.33938,-0.37394 -0.50907,-0.56091 -0.0583,-0.21712 -0.14984,-0.42794 -0.17495,-0.65135 -0.12337,-1.0977 0.5556,-1.85362 1.53735,-2.20077 z" />
    <path
       style="fill:#000000;fill-opacity:1;stroke-width:0.264583"
       id="path14"
       d="m 141.39196,100.55481 c 0.556,-2.159069 0.0156,-4.397407 -0.50644,-6.507308 -0.43806,-1.493814 -1.01606,-2.94636 -1.75955,-4.315299 -0.25602,-0.471402 -0.90865,-1.621824 -1.39797,-1.971899 -0.82021,-0.586801 -1.73879,-1.022213 -2.60818,-1.533319 -0.27491,-0.01693 -0.5593,-0.124301 -0.82474,-0.05079 -2.07911,0.575807 -1.35521,3.973007 -0.84914,5.311692 0.26591,0.703406 0.69867,1.331844 1.048,1.997766 1.78328,2.432711 3.93392,3.930684 6.80117,4.972463 0.57424,0.208642 1.2108,0.1646 1.8162,0.246898 0,0 -0.0636,-0.04856 -0.0636,-0.04856 v 0 c -0.84528,-0.273629 -1.69252,-0.541269 -2.53583,-0.820891 -0.24011,-0.07961 -0.50684,-0.111773 -0.71415,-0.256725 -1.50651,-1.053328 -1.77867,-1.600248 -2.93299,-3.027207 -0.3406,-0.63695 -0.76087,-1.237323 -1.0218,-1.910847 -0.35282,-0.910717 -0.61336,-2.549279 -0.54421,-3.558169 0.0338,-0.49303 0.18407,-1.369312 0.80918,-1.566204 0.22504,-0.07088 0.46914,0.05078 0.7037,0.07617 -0.33586,-0.214223 -0.69322,-0.887349 -1.00758,-0.642668 -0.29723,0.231346 0.53897,0.530164 0.76595,0.830741 1.20233,1.592199 1.86738,3.54166 2.50996,5.402025 0.52699,2.078019 0.99557,4.207645 0.38453,6.324462 z" />
    <path
       style="fill:#000000;fill-opacity:1;stroke-width:0.264583"
       id="path15"
       d="m 153.13731,91.754501 c -0.89479,-1.481598 -2.36478,-2.237084 -4.01144,-2.855449 -0.22181,-0.0833 -0.4605,0.111768 -0.69075,0.167653 -0.20483,0.141068 -0.44833,0.238154 -0.6145,0.423204 -0.84285,0.938561 -1.044,2.588707 -0.35662,3.65702 0.18154,0.282141 0.45826,0.490138 0.68739,0.735208 1.12235,0.569011 2.17509,1.303703 3.36705,1.707034 0.359,0.121481 0.75957,-0.07518 1.12131,-0.18828 1.0856,-0.33944 2.02657,-1.080175 2.46293,-2.14938 0.12566,-0.307901 0.14747,-0.648555 0.2212,-0.972833 0.01,-2.200233 -0.64177,-2.506877 -3.16668,-3.542776 -0.15005,-0.06156 -0.29382,0.358293 -0.16554,0.457536 0.95506,0.738857 2.08338,1.221359 3.12506,1.832038 1.5148,0.387406 2.27546,0.0078 3.57368,-0.740071 0,0 -0.0649,-0.04678 -0.0649,-0.04678 v 0 c -2.00877,-0.373287 -4.05817,-0.65777 -6.02256,-1.220734 0.79218,0.488344 1.66102,0.870013 2.37655,1.465035 0.10393,0.08643 -0.20493,0.29474 -0.32789,0.238595 -5.82218,-2.658541 -2.67664,-2.041413 -2.16093,-1.201766 0.29737,0.484153 0.30016,0.902438 0.38882,1.45596 -0.15767,1.088895 -0.299,1.888881 -1.31816,2.509144 -0.31381,0.190987 -0.65721,0.348162 -1.01601,0.42699 -0.36674,0.08057 -1.2141,-0.321392 -1.12562,0.04352 0.13529,0.557996 0.92306,0.683077 1.3846,1.024618 -0.53094,-0.485998 -0.88469,-0.664777 -1.07195,-1.408864 -0.1885,-0.748972 0.0381,-1.912819 0.54772,-2.508785 0.1404,-0.164198 0.36022,-0.23862 0.54033,-0.357928 1.14457,-0.366133 0.53164,-0.04487 -1.39232,-1.29762 -0.15129,-0.09851 0.32342,0.163073 0.47193,0.265724 0.31311,0.216418 0.56103,0.479769 0.80845,0.765521 0.10626,0.122717 0.2026,0.253678 0.3039,0.380516 z" />
    <path
       style="fill:#000000;fill-opacity:1;stroke-width:0.264583"
       id="path16"
       d="m 131.23174,118.06555 c 0.43127,-0.18885 0.87192,-0.35756 1.2938,-0.56654 1.56242,-0.77396 4.90726,-2.61025 6.24756,-3.33586 4.60728,-2.49428 9.23294,-4.95261 13.85919,-7.41149 3.19858,-1.98424 6.6152,-3.5927 9.84815,-5.51539 0.50245,-0.29882 0.95782,-0.67269 1.46167,-0.96915 0.23583,-0.13876 0.82062,-0.068 0.75055,-0.332483 -0.09,-0.339802 -0.63757,-0.296264 -0.95636,-0.444397 -2.92215,2.07155 -5.80139,4.1909 -8.59683,6.43174 -3.16522,2.55028 -5.78195,5.70561 -8.90315,8.2965 -0.28737,0.26883 -0.55665,0.55841 -0.86211,0.80648 -0.18408,0.1495 -0.4216,0.22577 -0.60054,0.38138 -0.0607,0.0527 -0.16791,0.19166 -0.0936,0.22224 1.03428,0.42545 2.06851,1.02334 3.18656,1.05004 0.72704,0.0174 1.31483,-0.62198 1.97514,-0.92674 0.95778,-0.44205 1.91938,-0.87577 2.87906,-1.31366 3.49718,-1.54395 7.04145,-2.97923 10.59016,-4.3997 1.0706,-0.42853 2.14547,-0.84633 3.21704,-1.27241 0.90638,-0.3604 1.83482,-0.67047 2.7168,-1.08702 0.67411,-0.31838 1.29349,-0.74164 1.94024,-1.11246 1.72051,-1.20631 0.86197,-0.71874 2.54509,-1.51521 0,0 -0.0664,-0.0446 -0.0664,-0.0446 v 0 c -2.06945,0.66297 -0.89379,0.35071 -3.55183,0.83767 -0.88927,0.20772 -1.79238,0.36322 -2.66782,0.62316 -0.96117,0.28539 -1.89144,0.66618 -2.83321,1.01021 -4.73086,1.72817 -9.42172,3.56317 -14.06612,5.51198 -0.99674,0.41403 -1.99413,0.82648 -2.9902,1.24209 -0.68423,0.28549 -1.95977,0.12541 -2.05069,0.86121 -0.0972,0.78637 1.21533,1.02486 1.74479,1.61436 0.0691,0.0769 -0.28528,0.084 -0.30962,-0.0164 -0.0507,-0.20899 0.0522,-0.43701 0.1538,-0.62651 0.17965,-0.33495 0.45007,-0.61262 0.6751,-0.91893 2.16575,-3.33857 4.96671,-6.23727 7.93671,-8.86869 2.84574,-2.27643 5.80452,-4.40872 8.96036,-6.23962 -0.26948,-0.2185 -0.46787,-0.589372 -0.80844,-0.655507 -0.26197,-0.05087 -0.46963,0.25532 -0.71526,0.359621 -0.60579,0.257231 -1.23712,0.453046 -1.83686,0.724066 -3.53681,1.59829 -6.90496,3.56263 -10.46645,5.11076 -4.68316,2.43288 -9.36245,4.87214 -14.05748,7.28205 -1.18329,0.60737 -4.90839,2.50003 -6.31794,3.28961 -0.3784,0.21197 -0.73348,0.46311 -1.10022,0.69467 z" />
    <path
       id="text16"
       style="font-size:7.76111px;white-space:pre;inline-size:86.3471;fill:#000000;fill-opacity:1;stroke-width:0.264583"
       d="m 39.0679,216.62192 v 1.20509 h -0.511597 v 0.54209 H 39.0679 v 2.30425 c 0,0.53055 0.102319,0.89653 0.306958,1.09864 0.0013,0.001 0.0034,0.002 0.0046,0.003 -0.08217,-1.71745 -0.139048,-3.43515 -0.174149,-5.15317 z m -2.683041,1.10277 c -0.49423,0 -0.878004,0.10121 -1.158069,0.29714 -0.07604,0.0756 -0.152208,0.1513 -0.234611,0.22015 -0.0031,0.003 -0.0067,0.005 -0.0098,0.007 -0.150115,0.19424 -0.227376,0.43531 -0.227376,0.72605 0,0.32844 0.09635,0.58774 0.288354,0.77722 0.192006,0.18695 0.503846,0.32556 0.93586,0.41651 l 0.242363,0.0568 c 0.432014,0.0935 0.711355,0.19092 0.837675,0.29198 0.128846,0.10105 0.19327,0.24615 0.19327,0.43563 0,0.20464 -0.08825,0.3638 -0.265101,0.47749 -0.176848,0.11116 -0.429661,0.16691 -0.758093,0.16691 -0.245061,0 -0.492477,-0.033 -0.74259,-0.0987 -0.250114,-0.0682 -0.504018,-0.16892 -0.761711,-0.30282 v 0.71985 c 0.272851,0.0884 0.531636,0.15394 0.776697,0.19689 0.247587,0.0455 0.485242,0.0682 0.712618,0.0682 0.545702,0 0.973929,-0.11478 1.284676,-0.34468 0.313274,-0.2299 0.469739,-0.54174 0.469739,-0.93586 0,-0.34612 -0.105018,-0.61518 -0.31471,-0.80719 -0.207164,-0.19453 -0.557991,-0.34502 -1.053165,-0.45113 l -0.238745,-0.0532 c -0.373908,-0.0834 -0.622931,-0.17053 -0.746725,-0.26148 -0.123793,-0.0935 -0.185518,-0.22072 -0.185518,-0.38241 0,-0.21222 0.08555,-0.37138 0.257348,-0.47749 0.174322,-0.10611 0.434714,-0.15916 0.780831,-0.15916 0.227376,0 0.447174,0.0249 0.659392,0.0754 0.212217,0.0505 0.416856,0.12632 0.613916,0.22737 v -0.65939 c -0.192007,-0.0758 -0.401527,-0.13264 -0.628903,-0.17053 -0.227376,-0.0379 -0.469911,-0.0568 -0.727604,-0.0568 z m 29.058692,0 c -0.206391,0 -0.394049,0.0299 -0.573092,0.0729 0.04471,0.20075 0.09763,0.42777 0.130741,0.58188 0.137144,-0.0394 0.284794,-0.0636 0.449585,-0.0636 0.343591,0 0.619142,0.11369 0.826306,0.34107 0.209692,0.22737 0.316892,0.53215 0.321945,0.91364 l -1.357023,0.002 c 0.0361,0.1812 0.0729,0.36224 0.108003,0.54364 h 1.946651 v -0.34106 c 0,-0.6316 -0.166743,-1.13074 -0.500227,-1.49707 -0.330959,-0.36886 -0.781923,-0.55346 -1.352889,-0.55346 z m 12.141894,0 c -0.608862,0 -1.086354,0.19706 -1.432471,0.59118 -0.154903,0.17769 -0.269949,0.39064 -0.355017,0.62994 0.205754,0.41139 0.400762,0.8278 0.588078,1.24747 -0.006,-0.0786 -0.01344,-0.15572 -0.01344,-0.2403 0,-0.5078 0.108808,-0.9068 0.326079,-1.19734 0.21727,-0.29306 0.51286,-0.43977 0.886767,-0.43977 0.371381,0 0.665363,0.1478 0.882634,0.44339 0.21727,0.29306 0.326078,0.69097 0.326078,1.19372 0,0.50528 -0.108808,0.9048 -0.326078,1.19786 -0.217271,0.29306 -0.511253,0.43925 -0.882634,0.43925 -0.279495,0 -0.514665,-0.0806 -0.706417,-0.24081 0.107654,0.2636 0.201841,0.5324 0.304891,0.79788 0.127288,0.0213 0.260053,0.0341 0.401526,0.0341 0.443875,0 0.816442,-0.10763 1.120862,-0.31884 0.147608,-0.7351 0.297512,-1.46971 0.446484,-2.20452 0.05851,-0.26444 0.12537,-0.52732 0.185002,-0.79168 -0.08297,-0.20528 -0.186041,-0.39325 -0.324011,-0.55036 -0.346117,-0.39412 -0.822001,-0.59118 -1.428337,-0.59118 z m -22.845634,0.0925 c -0.187057,0.0542 -0.349287,0.13077 -0.483174,0.23357 -0.282957,0.21727 -0.424781,0.52532 -0.424781,0.92449 0,0.32844 0.09635,0.58774 0.288355,0.77722 0.192006,0.18695 0.503845,0.32556 0.93586,0.41651 l 0.242362,0.0568 c 0.02214,0.005 0.03344,0.01 0.05478,0.0145 -0.05464,-0.24378 -0.116631,-0.48107 -0.173632,-0.72192 -0.219938,-0.0617 -0.397885,-0.12498 -0.487309,-0.19068 -0.123794,-0.0935 -0.185519,-0.22072 -0.185519,-0.38241 0,-0.21222 0.08555,-0.37138 0.257349,-0.47749 0.04327,-0.0263 0.09239,-0.0494 0.146244,-0.0692 -0.05111,-0.19433 -0.116271,-0.38766 -0.170532,-0.58136 z m -10.348722,10e-4 c 0.0091,0.23816 0.02136,0.4761 0.03204,0.71417 0.08203,0.0632 0.159597,0.13535 0.22686,0.22686 0.21727,0.29306 0.325561,0.69097 0.325561,1.19372 0,0.50528 -0.108291,0.9048 -0.325561,1.19786 -0.02101,0.0284 -0.04627,0.0488 -0.06873,0.0744 0.01848,0.25867 0.03473,0.51763 0.05529,0.77618 0.212251,-0.0978 0.401124,-0.23142 0.559139,-0.41135 0.346117,-0.39664 0.518831,-0.94235 0.518831,-1.63711 0,-0.69728 -0.172714,-1.24299 -0.518831,-1.63711 -0.215611,-0.24551 -0.48801,-0.40507 -0.804602,-0.49764 z m 17.993217,0.009 c -0.04379,0.17992 -0.08086,0.36147 -0.121957,0.54209 h 0.270785 c -0.03969,-0.18028 -0.07185,-0.36218 -0.113171,-0.54209 z m 5.552632,0 0.513147,0.68833 c 0.116356,-0.21302 0.227947,-0.42847 0.343649,-0.64182 l -0.03462,-0.0465 z m 3.780648,0 c -0.462364,0.49905 -0.918321,1.16232 -0.790649,1.04697 -0.12036,0.21943 -0.238241,0.44022 -0.361218,0.65836 l 1.267106,-1.70533 z m 0.656808,0 v 0.54209 h 0.309025 c -0.127311,-0.16035 -0.247997,-0.32343 -0.308509,-0.51573 -0.0028,-0.009 0.0038,-0.0175 0.0031,-0.0264 z m -41.46517,0.19792 c -0.141276,0.0874 -0.274277,0.18713 -0.390673,0.31368 -0.373908,0.40675 -0.561206,0.95785 -0.561206,1.65261 0,0.67203 0.197059,1.20475 0.591178,1.59887 0.396645,0.39412 0.933679,0.59118 1.610754,0.59118 0.270325,0 0.536689,-0.0276 0.799435,-0.0832 0.262745,-0.0556 0.519348,-0.13625 0.769462,-0.24236 v -0.65939 c -0.247587,0.13137 -0.497702,0.2299 -0.750342,0.29559 -0.250114,0.0657 -0.508898,0.0982 -0.776697,0.0982 -0.462331,0 -0.823952,-0.12506 -1.084171,-0.37517 -0.257693,-0.25264 -0.401698,-0.61862 -0.432015,-1.09864 h 3.206006 v -0.34106 c 0,-0.29268 -0.0395,-0.55391 -0.111105,-0.78962 -0.07306,0.0407 -0.148272,0.0783 -0.219625,0.12144 -0.143508,-0.0124 -0.291675,-0.006 -0.438732,-0.004 0.04402,0.14085 0.07006,0.29539 0.07235,0.46767 l -2.486154,0.004 c 0.03537,-0.39917 0.169614,-0.70882 0.402043,-0.92862 0.05556,-0.052 0.116167,-0.0967 0.180351,-0.13643 -0.138698,-0.1417 -0.265305,-0.30469 -0.380856,-0.48421 z m 21.436935,0.1447 c -0.0017,0.003 -0.003,0.005 -0.0047,0.008 -0.115729,0.18409 -0.220893,0.37414 -0.332279,0.56069 0.166736,0.21749 0.256983,0.49283 0.261482,0.83251 l -0.751375,0.001 c -0.100486,0.17995 -0.195291,0.36318 -0.293005,0.54467 h 1.741495 v -0.34106 c 0,-0.6316 -0.166743,-1.13074 -0.500228,-1.49707 -0.03712,-0.0414 -0.08131,-0.0718 -0.121439,-0.10852 z m 20.539831,0.47387 v 2.02985 c 0,0.53055 0.10232,0.89653 0.306958,1.09864 0.204639,0.19959 0.576021,0.29973 1.114144,0.29973 h 0.271818 c -0.08058,-0.19522 -0.162008,-0.39016 -0.245979,-0.58395 h -0.02584 c -0.290536,0 -0.483806,-0.0493 -0.579809,-0.14779 -0.09348,-0.0985 -0.140043,-0.32051 -0.140043,-0.66663 v -0.76739 c -0.209101,-0.39304 -0.41096,-0.79011 -0.636137,-1.17409 -0.01831,-0.0312 -0.04465,-0.0582 -0.06511,-0.0884 z m -23.517427,0.002 c -0.01394,0.0229 -0.02622,0.0472 -0.03927,0.0708 0.01328,-0.0235 0.02595,-0.0473 0.03927,-0.0708 z m 20.969779,1.30121 c -0.03885,0.0741 -0.08418,0.14493 -0.120923,0.22014 -0.07228,0.14795 -0.137784,0.29864 -0.206705,0.44804 l 1.079004,1.45676 h 0.822688 z m -17.533296,1.24954 c -0.247588,0.13137 -0.497702,0.2299 -0.750342,0.29559 -0.250114,0.0657 -0.508899,0.0982 -0.776697,0.0982 -0.286501,0 -0.529569,-0.0538 -0.738456,-0.14986 -0.09413,0.18667 -0.185717,0.37439 -0.278536,0.56172 0.284924,0.11616 0.60756,0.17932 0.975134,0.17932 0.270325,0 0.536689,-0.0276 0.799434,-0.0832 0.262746,-0.0556 0.519349,-0.13625 0.769463,-0.24236 z m 0.996838,0 v 0.71985 c 0.272851,0.0884 0.531636,0.15394 0.776697,0.19689 0.247587,0.0455 0.485242,0.0682 0.712618,0.0682 0.162949,0 0.311719,-0.0136 0.453719,-0.0341 -0.0385,-0.19356 -0.07832,-0.38687 -0.117306,-0.58032 -0.100537,0.0151 -0.200257,0.031 -0.321427,0.031 -0.245061,0 -0.492477,-0.033 -0.74259,-0.0987 -0.250114,-0.0682 -0.504018,-0.16892 -0.761711,-0.30282 z m 13.331486,0 c -0.247587,0.13137 -0.497702,0.2299 -0.750342,0.29559 -0.242429,0.0637 -0.493365,0.0947 -0.752409,0.0966 0.03571,0.19466 0.0716,0.38924 0.106971,0.58395 0.210997,-0.009 0.42051,-0.0308 0.626835,-0.0744 0.180188,-0.0381 0.355952,-0.0926 0.5302,-0.15451 0.07876,-0.19812 0.158113,-0.39593 0.238745,-0.59325 z m -5.54023,0.22634 c -0.08409,0.38967 -0.09698,0.46075 -0.126091,0.59531 0.163524,0.0329 0.347346,0.0538 0.565857,0.0538 h 0.716235 v -0.58395 h -0.716235 c -0.189308,0 -0.333049,-0.0233 -0.439766,-0.0651 z" />
    <path
       style="fill:none;fill-rule:evenodd;stroke:#000000;stroke-width:0.264583px;stroke-linecap:butt;stroke-linejoin:miter;stroke-opacity:1"
       d="M 55.705671,149.55897 73.580203,117.09358"
       id="path29"
       inkscape:connector-type="polyline"
       inkscape:connector-curvature="0" />
    <path
       style="fill:none;fill-rule:evenodd;stroke:#000000;stroke-width:0.264583px;stroke-linecap:butt;stroke-linejoin:miter;stroke-opacity:1"
       d="m 73.115934,144.54501 15.878159,19.01126"
       id="path30"
       inkscape:connector-type="polyline"
       inkscape:connector-curvature="0" />
    <path
       style="fill:none;fill-rule:evenodd;stroke:#000000;stroke-width:0.264583px;stroke-linecap:butt;stroke-linejoin:miter;stroke-opacity:1"
       d="M 37.923975,105.56148 65.362573,99.25224"
       id="path31"
       inkscape:connector-type="polyline"
       inkscape:connector-curvature="0" />
    <path
       style="fill:none;fill-rule:evenodd;stroke:#000000;stroke-width:0.264583px;stroke-linecap:butt;stroke-linejoin:miter;stroke-opacity:1"
       d="m 49.762968,100.83999 3.249927,17.42353"
       id="path32"
       inkscape:connector-type="polyline"
       inkscape:connector-curvature="0" />
    <path
       style="fill:none;fill-rule:evenodd;stroke:#000000;stroke-width:0.264583px;stroke-linecap:butt;stroke-linejoin:miter;stroke-opacity:1;opacity:0.98"
       d="m 25.94573,119.9766 5.571272,-10.61287"
       id="path33"
       inkscape:connector-type="polyline"
       inkscape:connector-curvature="0" />
    <path
       style="opacity:0.98;fill:#000000;fill-opacity:0.568627;stroke-width:0.264583"
       id="path37"
       d="m 125.94893,147.9878 c -0.84746,1.11372 -1.27431,2.51395 -1.69131,3.82989 -0.22325,0.70449 -0.47996,1.40314 -0.61826,2.1291 -0.16886,0.88639 -0.19992,1.79355 -0.29987,2.69033 0,0 0.0703,0.0382 0.0703,0.0382 v 0 c 0.35277,-0.75637 0.71182,-1.50984 1.05829,-2.26912 0.86667,-1.89925 1.64974,-3.87755 2.93419,-5.54647 z" />
    <path
       style="opacity:0.98;fill:#000000;fill-opacity:0.568627;stroke-width:0.264583"
       id="path38"
       d="m 126.7618,149.38562 c 0.14344,0.0521 0.28959,0.0973 0.43032,0.15633 0.64646,0.27112 1.19855,0.61283 1.15849,0.61742 -0.27816,0.0318 -0.74139,-0.62908 -0.76353,-0.34999 -0.0262,0.33017 0.50667,0.42821 0.73857,0.66469 0.27859,0.28409 0.52696,0.59634 0.79043,0.89451 1.23329,1.45701 2.23823,3.07941 3.24962,4.69152 0,0 0.0729,0.0329 0.0729,0.0329 v 0 c -0.52267,-1.40314 -1.02364,-2.82425 -1.83505,-4.09509 -1.35418,-1.62224 -1.49965,-1.63711 -3.55633,-2.89257 -0.45186,-0.27583 -0.93123,-0.50256 -1.45309,-0.60498 z" />
    <path
       style="opacity:0.98;fill:#000000;fill-opacity:0.568627;stroke-width:0.264583"
       id="path39"
       d="m 132.30651,155.3333 c 0.74916,-1.04964 1.55249,-2.05913 2.34957,-3.07236 0.31718,-0.40319 0.65782,-0.78889 0.95268,-1.20869 0.29063,-0.41376 0.53404,-0.85875 0.80106,-1.28812 0.97511,-1.42327 0.48777,-0.7598 1.45065,-1.9987 0,0 -0.068,-0.0421 -0.068,-0.0421 v 0 c -1.43898,0.94127 -0.69704,0.43328 -2.21958,1.53305 -0.42983,0.33214 -0.88531,0.6335 -1.28948,0.99643 -0.3887,0.34905 -0.72676,0.75077 -1.0824,1.13344 -0.8834,0.95055 -1.81876,1.90474 -2.40657,3.0761 z" />
    <path
       style="opacity:0.98;fill:#000000;fill-opacity:0.568627;stroke-width:0.264583"
       id="path40"
       d="m 137.98147,149.18407 c 1.08013,-1.69991 2.42862,-3.19055 3.80674,-4.64946 0.27286,-0.28625 1.09702,-1.10409 1.3207,-1.49991 0.10343,-0.18304 0.11895,-0.40331 0.17843,-0.60497 0,0 -0.0669,-0.0438 -0.0669,-0.0438 v 0 c -0.35264,0.0179 -0.71682,-0.0377 -1.0579,0.0536 -0.65065,0.17412 -1.34785,0.79871 -1.85165,1.18644 -1.52075,1.34941 -3.00321,2.80069 -3.86672,4.67618 z" />
    <path
       style="opacity:0.98;fill:#000000;fill-opacity:0.568627;stroke-width:0.264583"
       id="path41"
       d="m 143.19468,144.13316 c 1.7778,2.3768 2.54618,5.3159 3.35851,8.12322 0.61712,2.19459 0.92392,4.45742 1.40042,6.682 0.19918,0.92987 0.38771,1.56574 0.63759,2.47178 0.008,0.28792 0.0169,0.57584 0.0254,0.86375 0,0 0.0714,0.0361 0.0714,0.0361 v 0 c -0.008,-0.288 -0.0168,-0.576 -0.0252,-0.864 0.17467,-0.85411 0.26843,-1.10984 0.26488,-2.02701 -0.009,-2.19354 -0.55572,-4.35706 -0.97385,-6.49381 -0.53463,-2.26525 -1.12324,-4.56817 -2.14921,-6.67262 -0.23508,-0.48221 -0.5518,-0.92266 -0.85167,-1.36493 z" />
    <path
       style="opacity:0.98;fill:#000000;fill-opacity:0.568627;stroke-width:0.264583"
       id="path42"
       d="m 148.47045,161.41113 c 0.13277,2.53763 -0.0232,5.08955 -0.49832,7.58728 -0.10935,0.57492 -0.256,1.1421 -0.38399,1.71315 -0.60128,2.29302 -1.61303,4.44728 -2.95599,6.39839 -0.69863,1.015 -1.08788,1.42654 -1.87269,2.34806 -0.61618,0.45357 -0.94377,1.1638 -1.46984,1.69552 -0.19724,0.19935 -0.43991,0.34793 -0.65986,0.5219 0,0 0.0675,0.0429 0.0675,0.0429 v 0 c 0.2429,-0.15973 0.47787,-0.33224 0.72871,-0.47918 1.80081,-1.0549 0.2644,0.0343 2.05671,-1.34066 0.3566,-0.34027 0.73772,-0.65656 1.06979,-1.02082 1.96046,-2.1505 3.14392,-4.91987 3.9404,-7.68024 0.31535,-1.47357 0.46862,-2.03276 0.65339,-3.54288 0.23801,-1.94528 0.23478,-3.90931 0.0867,-5.86114 z" />
    <path
       style="opacity:0.98;fill:#000000;fill-opacity:0.568627;stroke-width:0.264583"
       id="path43"
       d="m 142.75506,182.38548 c -2.81604,1.85827 -5.80645,3.44784 -8.75526,5.08428 -3.94536,2.18363 -7.84455,4.44369 -11.65751,6.85073 -1.50444,1.01404 -0.89786,0.44201 -1.89344,1.63441 0,0 0.0671,0.0436 0.0671,0.0436 v 0 c 1.88639,-0.49373 0.96303,-0.14367 2.76127,-1.07317 3.91784,-2.23771 7.72946,-4.65456 11.68437,-6.82838 2.9612,-1.62691 6.01523,-3.12705 8.77124,-5.09492 z" />
    <g
       sodipodi:type="inkscape:box3d"
       id="g43"
       style="opacity:0.98;fill:#000000;fill-opacity:0.568627"
       inkscape:perspectiveID="#perspective43"
       inkscape:corner0="-0.092447136 : 0.12151161 : 0 : 1"
       inkscape:corner7="-0.29569411 : 0.041124526 : 0.25 : 1">
      <path
         sodipodi:type="inkscape:box3dside"
         id="path49"
         style="fill:#e9e9ff;fill-rule:evenodd;stroke:none;stroke-linejoin:round"
         inkscape:box3dsidetype="11"
         d="M 136.0629,86.289793 165.04142,73.040334 V 157.27651 L 136.0629,155.7355 Z"
         points="165.04142,73.040334 165.04142,157.27651 136.0629,155.7355 136.0629,86.289793 " />
      <path
         sodipodi:type="inkscape:box3dside"
         id="path44"
         style="fill:#353564;fill-rule:evenodd;stroke:none;stroke-linejoin:round"
         inkscape:box3dsidetype="6"
         d="M 115.69574,69.152992 V 157.72864 L 136.0629,155.7355 V 86.289793 Z"
         points="115.69574,157.72864 136.0629,155.7355 136.0629,86.289793 115.69574,69.152992 " />
      <path
         sodipodi:type="inkscape:box3dside"
         id="path48"
         style="fill:#afafde;fill-rule:evenodd;stroke:none;stroke-linejoin:round"
         inkscape:box3dsidetype="13"
         d="m 115.69574,157.72864 33.38721,2.66318 15.95847,-3.11531 -28.97852,-1.54101 z"
         points="149.08295,160.39182 165.04142,157.27651 136.0629,155.7355 115.69574,157.72864 " />
      <path
         sodipodi:type="inkscape:box3dside"
         id="path45"
         style="fill:#4d4d9f;fill-rule:evenodd;stroke:none;stroke-linejoin:round"
         inkscape:box3dsidetype="5"
         d="m 115.69574,69.152992 33.38721,-22.897778 15.95847,26.78512 -28.97852,13.249459 z"
         points="149.08295,46.255214 165.04142,73.040334 136.0629,86.289793 115.69574,69.152992 " />
      <path
         sodipodi:type="inkscape:box3dside"
         id="path47"
         style="fill:#d7d7ff;fill-rule:evenodd;stroke:none;stroke-linejoin:round"
         inkscape:box3dsidetype="14"
         d="M 149.08295,46.255214 V 160.39182 l 15.95847,-3.11531 V 73.040334 Z"
         points="149.08295,160.39182 165.04142,157.27651 165.04142,73.040334 149.08295,46.255214 " />
      <path
         sodipodi:type="inkscape:box3dside"
         id="path46"
         style="fill:#8686bf;fill-rule:evenodd;stroke:none;stroke-linejoin:round"
         inkscape:box3dsidetype="3"
         d="M 115.69574,69.152992 149.08295,46.255214 V 160.39182 l -33.38721,-2.66318 z"
         points="149.08295,46.255214 149.08295,160.39182 115.69574,157.72864 115.69574,69.152992 " />
    </g>
    <g
       sodipodi:type="inkscape:box3d"
       id="g49"
       style="opacity:0.98;fill:#000000;fill-opacity:0.568627"
       inkscape:perspectiveID="#perspective43"
       inkscape:corner0="-0.28594524 : 0.11927993 : 0 : 1"
       inkscape:corner7="-0.28896137 : 0.10662251 : 0.25 : 1">
      <path
         sodipodi:type="inkscape:box3dside"
         id="path55"
         style="fill:#e9e9ff;fill-rule:evenodd;stroke:none;stroke-linejoin:round"
         inkscape:box3dsidetype="11"
         d="m 163.37247,76.118298 0.51273,-0.227163 v 13.170563 l -0.51273,0.185958 z"
         points="163.8852,75.891135 163.8852,89.061698 163.37247,89.247656 163.37247,76.118298 " />
      <path
         sodipodi:type="inkscape:box3dside"
         id="path50"
         style="fill:#353564;fill-rule:evenodd;stroke:none;stroke-linejoin:round"
         inkscape:box3dsidetype="6"
         d="m 147.04755,50.776507 v 17.726119 l 16.32492,20.74503 V 76.118298 Z"
         points="147.04755,68.502626 163.37247,89.247656 163.37247,76.118298 147.04755,50.776507 " />
      <path
         sodipodi:type="inkscape:box3dside"
         id="path51"
         style="fill:#4d4d9f;fill-rule:evenodd;stroke:none;stroke-linejoin:round"
         inkscape:box3dsidetype="5"
         d="m 147.04755,50.776507 0.62376,-0.414529 16.21389,25.529157 -0.51273,0.227163 z"
         points="147.67131,50.361978 163.8852,75.891135 163.37247,76.118298 147.04755,50.776507 " />
      <path
         sodipodi:type="inkscape:box3dside"
         id="path54"
         style="fill:#afafde;fill-rule:evenodd;stroke:none;stroke-linejoin:round"
         inkscape:box3dsidetype="13"
         d="m 147.04755,68.502626 0.62376,-0.339338 16.21389,20.89841 -0.51273,0.185958 z"
         points="147.67131,68.163288 163.8852,89.061698 163.37247,89.247656 147.04755,68.502626 " />
      <path
         sodipodi:type="inkscape:box3dside"
         id="path53"
         style="fill:#d7d7ff;fill-rule:evenodd;stroke:none;stroke-linejoin:round"
         inkscape:box3dsidetype="14"
         d="m 147.67131,50.361978 v 17.80131 l 16.21389,20.89841 V 75.891135 Z"
         points="147.67131,68.163288 163.8852,89.061698 163.8852,75.891135 147.67131,50.361978 " />
      <path
         sodipodi:type="inkscape:box3dside"
         id="path52"
         style="fill:#8686bf;fill-rule:evenodd;stroke:none;stroke-linejoin:round"
         inkscape:box3dsidetype="3"
         d="m 147.04755,50.776507 0.62376,-0.414529 v 17.80131 l -0.62376,0.339338 z"
         points="147.67131,50.361978 147.67131,68.163288 147.04755,68.502626 147.04755,50.776507 " />
    </g>
    <g
       sodipodi:type="inkscape:box3d"
       id="g55"
       style="opacity:0.98;fill:#000000;fill-opacity:0.568627"
       inkscape:perspectiveID="#perspective43"
       inkscape:corner0="-0.19785034 : 0.088355321 : 0 : 1.1978503"
       inkscape:corner7="-0.33062801 : 0.070278139 : 0.25 : 1">
      <path
         sodipodi:type="inkscape:box3dside"
         id="path61"
         style="fill:#e9e9ff;fill-rule:evenodd;stroke:none;stroke-linejoin:round"
         inkscape:box3dsidetype="11"
         d="m 145.1842,126.13558 26.1284,-4.02486 v 3.78892 l -26.1284,3.44698 z"
         points="171.3126,122.11072 171.3126,125.89964 145.1842,129.34662 145.1842,126.13558 " />
      <path
         sodipodi:type="inkscape:box3dside"
         id="path56"
         style="fill:#353564;fill-rule:evenodd;stroke:none;stroke-linejoin:round"
         inkscape:box3dsidetype="6"
         d="m 125.77429,119.43827 v 4.17263 l 19.40991,5.73572 v -3.21104 z"
         points="125.77429,123.6109 145.1842,129.34662 145.1842,126.13558 125.77429,119.43827 " />
      <path
         sodipodi:type="inkscape:box3dside"
         id="path57"
         style="fill:#4d4d9f;fill-rule:evenodd;stroke:none;stroke-linejoin:round"
         inkscape:box3dsidetype="5"
         d="m 125.77429,119.43827 31.08916,-7.18354 14.44915,9.85599 -26.1284,4.02486 z"
         points="156.86345,112.25473 171.3126,122.11072 145.1842,126.13558 125.77429,119.43827 " />
      <path
         sodipodi:type="inkscape:box3dside"
         id="path60"
         style="fill:#afafde;fill-rule:evenodd;stroke:none;stroke-linejoin:round"
         inkscape:box3dsidetype="13"
         d="m 125.77429,123.6109 31.08916,-6.15214 14.44915,8.44088 -26.1284,3.44698 z"
         points="156.86345,117.45876 171.3126,125.89964 145.1842,129.34662 125.77429,123.6109 " />
      <path
         sodipodi:type="inkscape:box3dside"
         id="path59"
         style="fill:#d7d7ff;fill-rule:evenodd;stroke:none;stroke-linejoin:round"
         inkscape:box3dsidetype="14"
         d="m 156.86345,112.25473 v 5.20403 l 14.44915,8.44088 v -3.78892 z"
         points="156.86345,117.45876 171.3126,125.89964 171.3126,122.11072 156.86345,112.25473 " />
      <path
         sodipodi:type="inkscape:box3dside"
         id="path58"
         style="fill:#8686bf;fill-rule:evenodd;stroke:none;stroke-linejoin:round"
         inkscape:box3dsidetype="3"
         d="m 125.77429,119.43827 31.08916,-7.18354 v 5.20403 l -31.08916,6.15214 z"
         points="156.86345,112.25473 156.86345,117.45876 125.77429,123.6109 125.77429,119.43827 " />
    </g>
    <path
       sodipodi:type="star"
       style="opacity:0.98;fill:#000000;fill-opacity:0.568627;stroke-width:0.264583"
       id="path62"
       inkscape:flatsided="false"
       sodipodi:sides="5"
       sodipodi:cx="26.499046"
       sodipodi:cy="83.688766"
       sodipodi:r1="10.354875"
       sodipodi:r2="5.1774373"
       sodipodi:arg1="0.4644828"
       sodipodi:arg2="1.0928013"
       inkscape:rounded="0"
       inkscape:randomized="0"
       d="m 35.756857,88.327341 -6.87619,-0.04143 -3.932346,5.640955 -2.085458,-6.552448 -6.580028,-1.996733 5.587306,-4.008206 -0.134335,-6.875003 5.538603,4.075241 6.497004,-2.252253 -2.164261,6.526843 z"
       inkscape:transform-center-x="0.47920091"
       inkscape:transform-center-y="0.52190366" />
    <path
       sodipodi:type="star"
       style="opacity:0.98;fill:#000000;fill-opacity:0.568627;stroke-width:0.264583"
       id="path63"
       inkscape:flatsided="false"
       sodipodi:sides="5"
       sodipodi:cx="81.258003"
       sodipodi:cy="91.134132"
       sodipodi:r1="15.414456"
       sodipodi:r2="7.7072272"
       sodipodi:arg1="1.340892"
       sodipodi:arg2="1.9692106"
       inkscape:rounded="0"
       inkscape:randomized="0"
       d="m 84.770717,106.14301 -6.502789,-7.905301 -10.198724,0.87521 5.508912,-8.627391 -3.983953,-9.429109 9.907484,2.573277 7.736506,-6.702719 0.614249,10.217763 8.765377,5.2866 -9.527857,3.741649 z"
       inkscape:transform-center-x="-1.085487"
       inkscape:transform-center-y="0.40085828" />
    <ellipse
       style="opacity:0.98;fill:#ff00ff;fill-opacity:0.568627;stroke-width:0.264583"
       id="path64"
       cx="189.33145"
       cy="57.630054"
       rx="7.6491871"
       ry="9.8975906" />
  </g>
</svg>
