<?xml version="1.0" encoding="UTF-8" standalone="no"?>
<!-- Created with Inkscape (http://www.inkscape.org/) -->

<svg
   width="210mm"
   height="297mm"
   viewBox="0 0 210 297"
   version="1.1"
   id="svg1"
   inkscape:version="1.3.1 (9b9bdc1480, 2023-11-25, custom)"
   sodipodi:docname="prueba_de_lineas.svg"
   xmlns:inkscape="http://www.inkscape.org/namespaces/inkscape"
   xmlns:sodipodi="http://sodipodi.sourceforge.net/DTD/sodipodi-0.dtd"
   xmlns="http://www.w3.org/2000/svg"
   xmlns:svg="http://www.w3.org/2000/svg">
  <sodipodi:namedview
     id="namedview1"
     pagecolor="#ffffff"
     bordercolor="#000000"
     borderopacity="0.25"
     inkscape:showpageshadow="2"
     inkscape:pageopacity="0.0"
     inkscape:pagecheckerboard="0"
     inkscape:deskcolor="#d1d1d1"
     inkscape:document-units="mm"
     inkscape:zoom="1.0179639"
     inkscape:cx="374.27652"
     inkscape:cy="764.27069"
     inkscape:window-width="1854"
     inkscape:window-height="1011"
     inkscape:window-x="66"
     inkscape:window-y="32"
     inkscape:window-maximized="1"
     inkscape:current-layer="layer1" />
  <defs
     id="defs1" />
  <g
     inkscape:label="Capa 1"
     inkscape:groupmode="layer"
     id="layer1">
    <path
       style="fill:none;stroke:#000000;stroke-width:0.529167"
       d="M 31.459635,107.74475 86.011791,44.192827 Z"
       id="path3" />
    <path
       style="fill:none;stroke:#000000;stroke-width:0.529167"
       d="m 60.286854,173.34438 35.196121,28.45388 11.049735,-70.57147 33.1027,62.63271 26.98655,-55.83852"
       id="path4"
       sodipodi:nodetypes="ccccc" />
    <path
       style="fill:none;stroke:#000000;stroke-width:0.529167"
       d="m 104.54223,111.56538 13.31873,-31.689885 12.89733,14.082378 11.80206,-17.174317 26.75372,28.931894"
       id="path5"
       sodipodi:nodetypes="ccccc" />
    <path
       style="fill:none;stroke:#000000;stroke-width:0.529167"
       d="m 31.506609,172.30463 -5.664696,-46.96924 -8.393675,13.74634 z"
       id="path6"
       sodipodi:nodetypes="cccc" />
    <path
       style="fill:none;stroke:#000000;stroke-width:0.529167"
       d="m 52.862646,244.96008 -4.317741,21.85252 12.76753,-18.92769 6.731965,19.88869 1.532107,-20.59901 15.181755,1.25349 z"
       id="path7"
       sodipodi:nodetypes="ccccccc" />
    <path
       style="fill:#53ff73;fill-opacity:1;stroke:#000000;stroke-width:0.529167"
       d="m 129.00355,266.7708 18.01381,11.8246 25.84485,-34.89655 8.96458,6.5678 -0.76979,-32.717 -35.55812,9.08171 9.67804,7.00121 z"
       id="path8"
       sodipodi:nodetypes="cccccccc" />
    <path
       style="fill:#53ff73;fill-opacity:1;stroke:#000000;stroke-width:0.529167"
       d="M 62.705241,238.48374 Z"
       id="path10" />
    <path
       style="fill:#53ff73;fill-opacity:1;stroke:#000000;stroke-width:0.529167"
       d="m 27.042726,211.07721 c 0,0 0.426778,0.17726 8.568396,-23.04513 8.338595,20.59289 7.911816,20.09062 7.911816,20.09062 19.467671,5.22948 18.87674,4.93403 18.87674,4.93403"
       id="path12" />
    <path
       style="fill:#53ff73;fill-opacity:1;stroke:#000000;stroke-width:0.529167"
       d="m 133.57318,205.2273 c -19.53332,16.87021 1.6743,22.72014 1.6743,22.72014 -1.47732,18.90883 -31.08918,19.38154 -31.08918,19.38154 C 96.049515,229.51332 95.622736,228.33152 95.622736,228.33152 134.4924,204.0455 75.334338,216.98621 75.334338,216.98621"
       id="path13"
       sodipodi:nodetypes="ccccc" />
  </g>
</svg>
