<?xml version="1.0" encoding="UTF-8" standalone="no"?>
<!-- Created with Inkscape (http://www.inkscape.org/) -->

<svg
   width="297mm"
   height="210mm"
   viewBox="0 0 297 210"
   version="1.1"
   id="svg1"
   inkscape:version="1.3.1 (9b9bdc1480, 2023-11-25, custom)"
   sodipodi:docname="reto_7_versión_nueva.svg"
   xmlns:inkscape="http://www.inkscape.org/namespaces/inkscape"
   xmlns:sodipodi="http://sodipodi.sourceforge.net/DTD/sodipodi-0.dtd"
   xmlns="http://www.w3.org/2000/svg"
   xmlns:svg="http://www.w3.org/2000/svg">
  <sodipodi:namedview
     id="namedview1"
     pagecolor="#ffffff"
     bordercolor="#000000"
     borderopacity="0.25"
     inkscape:showpageshadow="2"
     inkscape:pageopacity="0.0"
     inkscape:pagecheckerboard="0"
     inkscape:deskcolor="#d1d1d1"
     inkscape:document-units="mm"
     inkscape:zoom="0.7198092"
     inkscape:cx="548.75653"
     inkscape:cy="398.71677"
     inkscape:window-width="1854"
     inkscape:window-height="1011"
     inkscape:window-x="66"
     inkscape:window-y="32"
     inkscape:window-maximized="1"
     inkscape:current-layer="layer1">
    <inkscape:page
       x="0"
       y="0"
       width="297"
       height="210"
       id="page1"
       margin="0 0 0"
       bleed="0" />
  </sodipodi:namedview>
  <defs
     id="defs1" />
  <g
     inkscape:label="Capa 1"
     inkscape:groupmode="layer"
     id="layer1">
    <path
       style="fill:#000000;stroke:#241f1c;stroke-width:0.529"
       id="path2"
       d="m 13.188772,10.331857 c -0.100778,0.01526 -0.201555,0.03051 -0.302333,0.04577 0,0 0.06424,0.04768 0.06424,0.04768 v 0 c 0.177854,0.04379 0.355709,0.08758 0.533564,0.131378 z" />
    <circle
       id="path3"
       style="fill:#000000;stroke:#241f1c;stroke-width:0.264583"
       cx="14.270312"
       cy="14.185687"
       r="0.097890228" />
    <rect
       style="fill:#000000;stroke:#241f1c;stroke-width:0.529"
       id="rect3"
       width="297.18164"
       height="209.08208"
       x="-0.60369092"
       y="0.89415616" />
    <rect
       style="fill:#ffff00;stroke:#241f1c;stroke-width:0.529"
       id="rect4"
       width="1.8106688"
       height="0.20892549"
       x="-41.274086"
       y="61.939102" />
    <path
       style="fill:#cccccc;stroke:#241f1c;stroke-width:0.529"
       id="path4"
       sodipodi:type="arc"
       sodipodi:cx="105.23837"
       sodipodi:cy="-109.05692"
       sodipodi:rx="20.869104"
       sodipodi:ry="21.518244"
       sodipodi:start="0"
       sodipodi:end="4.1524872"
       sodipodi:open="true"
       sodipodi:arc-type="arc"
       d="m 126.10748,-109.05692 a 20.869104,21.518244 0 0 1 -16.9968,21.144563 20.869104,21.518244 0 0 1 -23.304379,-13.297723 20.869104,21.518244 0 0 1 8.348428,-26.07941"
       transform="rotate(60.496043)" />
    <path
       sodipodi:type="star"
       style="fill:#ffff00;stroke:#241f1c;stroke-width:0.529"
       id="path6"
       inkscape:flatsided="false"
       sodipodi:sides="6"
       sodipodi:cx="33.984699"
       sodipodi:cy="139.44656"
       sodipodi:r1="25.315733"
       sodipodi:r2="3.7858324"
       sodipodi:arg1="0.89047976"
       sodipodi:arg2="1.4140785"
       inkscape:rounded="0"
       inkscape:randomized="0"
       d="M 49.909286,159.12635 34.575581,143.186 l -9.67178,19.89155 6.137892,-21.24955 -22.0624794,1.56977 21.4715974,-5.30921 -12.390699,-18.32178 15.333705,15.94035 9.671781,-19.89155 -6.137893,21.24955 22.06248,-1.56977 -21.471598,5.3092 z"
       inkscape:transform-center-y="-1.756807e-06" />
    <path
       sodipodi:type="star"
       style="fill:#ffff00;stroke:#241f1c;stroke-width:0.529"
       id="path7"
       inkscape:flatsided="false"
       sodipodi:sides="4"
       sodipodi:cx="245.69356"
       sodipodi:cy="41.047604"
       sodipodi:r1="16.425432"
       sodipodi:r2="6.6289349"
       sodipodi:arg1="1.2187291"
       sodipodi:arg2="2.0041273"
       inkscape:rounded="0"
       inkscape:randomized="0"
       d="m 251.35769,56.46553 -8.4476,-9.40169 -12.63446,-0.352107 9.40169,-8.447594 0.35211,-12.634462 8.44759,9.40169 12.63446,0.352107 -9.40169,8.447594 z"
       inkscape:transform-center-x="3.10588e-06" />
    <path
       sodipodi:type="star"
       style="fill:#ffff00;stroke:#241f1c;stroke-width:0.529"
       id="path8"
       inkscape:flatsided="false"
       sodipodi:sides="7"
       sodipodi:cx="26.417032"
       sodipodi:cy="27.718832"
       sodipodi:r1="30.166492"
       sodipodi:r2="14.343528"
       sodipodi:arg1="0.75544728"
       sodipodi:arg2="1.7657326"
       inkscape:rounded="0"
       inkscape:randomized="0"
       d="M 48.377182,48.401412 23.638633,41.790694 23.938669,57.783346 13.682904,34.320254 1.3664149,44.526088 13.316234,21.87881 -2.3422137,18.612623 22.814731,13.835021 15.605456,-0.44368024 35.025835,16.246025 41.694464,1.7069625 40.754335,27.296287 l 15.524918,-3.851213 -20.5927,15.21966 z"
       transform="matrix(0.64314958,0,0,0.71820508,35.084342,24.549072)" />
    <path
       sodipodi:type="star"
       style="fill:#ffff00;stroke:#241f1c;stroke-width:0.529"
       id="path9"
       inkscape:flatsided="false"
       sodipodi:sides="7"
       sodipodi:cx="241.51508"
       sodipodi:cy="177.76155"
       sodipodi:r1="19.945721"
       sodipodi:r2="9.4837666"
       sodipodi:arg1="0.86396848"
       sodipodi:arg2="1.3127674"
       inkscape:rounded="0"
       inkscape:randomized="0"
       d="m 254.46832,192.92879 -10.53322,-5.99743 -6.20203,10.41407 -1.87838,-11.97455 -12.00895,1.64412 8.19093,-8.93458 -8.77289,-8.36388 12.0923,0.83331 1.06934,-12.07371 6.88792,9.97369 10.10633,-6.69179 -3.5032,11.60369 11.53305,3.72918 -11.25634,4.49587 z"
       inkscape:transform-center-x="-0.84157298"
       inkscape:transform-center-y="0.14922842" />
    <path
       sodipodi:type="star"
       style="fill:#ffff00;stroke:#241f1c;stroke-width:0.529"
       id="path10"
       inkscape:flatsided="false"
       sodipodi:sides="3"
       sodipodi:cx="103.99717"
       sodipodi:cy="129.25151"
       sodipodi:r1="19.391981"
       sodipodi:r2="2.1594052"
       sodipodi:arg1="1.1065972"
       sodipodi:arg2="2.1524072"
       inkscape:rounded="0"
       inkscape:randomized="0"
       d="m 112.67909,146.59144 -9.86823,-15.53558 -18.171471,-2.95555 18.388321,-0.77835 11.64532,-14.25918 -8.52009,16.31393 z"
       inkscape:transform-center-x="0.070855263"
       inkscape:transform-center-y="-0.35044535"
       transform="translate(-4.1784425,-13.119848)" />
    <path
       sodipodi:type="star"
       style="fill:#ffff00;stroke:#241f1c;stroke-width:0.529"
       id="path11"
       inkscape:flatsided="false"
       sodipodi:sides="6"
       sodipodi:cx="229.30469"
       sodipodi:cy="99.251305"
       sodipodi:r1="23.759102"
       sodipodi:r2="6.7130351"
       sodipodi:arg1="0.83624859"
       sodipodi:arg2="1.3598474"
       inkscape:rounded="0"
       inkscape:randomized="0"
       d="m 245.22926,116.88374 -14.51894,-11.06821 -8.71348,16.04308 2.32588,-18.10788 -18.25046,0.47544 16.84483,-7.039668 -9.53698,-15.567634 14.51895,11.068212 8.71348,-16.043081 -2.32588,18.107883 18.25045,-0.475446 -16.84482,7.039674 z"
       inkscape:transform-center-x="2.8888779e-06"
       inkscape:transform-center-y="-1.2504102e-06"
       transform="translate(14.624627,8.5237338)" />
    <path
       sodipodi:type="star"
       style="fill:#ffff00;stroke:#241f1c;stroke-width:0.529"
       id="path12"
       inkscape:flatsided="false"
       sodipodi:sides="5"
       sodipodi:cx="147.26749"
       sodipodi:cy="166.64726"
       sodipodi:r1="9.5580263"
       sodipodi:r2="2.7005804"
       sodipodi:arg1="0.57289673"
       sodipodi:arg2="1.2012153"
       inkscape:rounded="0"
       inkscape:randomized="0"
       d="m 155.29942,171.82837 -7.05642,-2.66287 -3.42103,6.72164 0.35199,-7.53393 -7.44982,-1.1765 7.27396,-1.99335 -1.18321,-7.44875 4.14357,6.30196 6.71856,-3.42708 -4.7131,5.88818 z"
       inkscape:transform-center-x="1.8553384e-06"
       inkscape:transform-center-y="-2.0994932e-06"
       transform="translate(2.1820908,10.069704)" />
    <path
       sodipodi:type="star"
       style="fill:#ffff00;stroke:#241f1c;stroke-width:0.529"
       id="path13"
       inkscape:flatsided="false"
       sodipodi:sides="8"
       sodipodi:cx="148.93889"
       sodipodi:cy="78.652298"
       sodipodi:r1="16.370659"
       sodipodi:r2="4.6254611"
       sodipodi:arg1="0.058737112"
       sodipodi:arg2="0.45143619"
       inkscape:rounded="0"
       inkscape:randomized="0"
       d="m 165.28132,79.61331 -12.18034,1.056884 6.71421,10.217483 -9.36013,-7.86547 -2.47718,11.972518 -1.05689,-12.180338 -10.21748,6.714214 7.86547,-9.360129 -11.97252,-2.477186 12.18034,-1.056884 -6.71421,-10.217484 9.36012,7.865471 2.47719,-11.972518 1.05688,12.180338 10.21749,-6.714214 -7.86547,9.360129 z"
       inkscape:transform-center-x="-1.2781266"
       inkscape:transform-center-y="0.29696817"
       transform="translate(25.349342,26.908235)" />
    <path
       sodipodi:type="star"
       style="fill:#ffff00;stroke:#241f1c;stroke-width:0.529"
       id="path14"
       inkscape:flatsided="false"
       sodipodi:sides="8"
       sodipodi:cx="25.906334"
       sodipodi:cy="90.602226"
       sodipodi:r1="8.0892258"
       sodipodi:r2="2.2855768"
       sodipodi:arg1="0.11908417"
       sodipodi:arg2="0.51178325"
       inkscape:rounded="0"
       inkscape:randomized="0"
       d="m 33.938271,91.56325 -6.039205,0.158298 3.007159,5.239661 -4.382297,-4.158428 -1.578618,5.831382 -0.158298,-6.039205 -5.239661,3.007159 4.158429,-4.382297 -5.831383,-1.578617 6.039205,-0.158299 -3.007159,-5.239661 4.382297,4.158429 1.578618,-5.831382 0.158298,6.039205 5.239661,-3.007159 -4.158429,4.382296 z"
       inkscape:transform-center-y="-1.1414454e-06" />
    <path
       sodipodi:type="star"
       style="fill:#ffff00;stroke:#241f1c;stroke-width:0.529"
       id="path15"
       inkscape:flatsided="false"
       sodipodi:sides="8"
       sodipodi:cx="28.831257"
       sodipodi:cy="191.96777"
       sodipodi:r1="4.8702173"
       sodipodi:r2="1.3760595"
       sodipodi:arg1="0.50115773"
       sodipodi:arg2="0.89385682"
       inkscape:rounded="0"
       inkscape:randomized="0"
       d="m 33.102569,194.30763 -3.409334,-1.26723 0.503769,3.60217 -1.5147,-3.30682 -2.1909,2.90334 1.267223,-3.40934 -3.60217,0.50377 3.306826,-1.5147 -2.903338,-2.1909 3.409334,1.26722 -0.50377,-3.60217 1.514701,3.30683 2.1909,-2.90334 -1.267224,3.40934 3.60217,-0.50377 -3.306825,1.5147 z"
       inkscape:transform-center-y="-2.4184915e-06" />
    <path
       sodipodi:type="star"
       style="fill:#ffff00;stroke:#241f1c;stroke-width:0.529"
       id="path16"
       inkscape:flatsided="false"
       sodipodi:sides="8"
       sodipodi:cx="281.07117"
       sodipodi:cy="76.437798"
       sodipodi:r1="7.4937701"
       sodipodi:r2="2.1173334"
       sodipodi:arg1="2.2548427"
       sodipodi:arg2="2.6475418"
       inkscape:rounded="0"
       inkscape:randomized="0"
       d="m 276.3356,82.245634 2.87143,-4.803805 -5.59118,-0.245824 5.42721,-1.366397 -3.77973,-4.12738 4.80381,2.871429 0.24582,-5.591174 1.3664,5.42721 4.12738,-3.779732 -2.87143,4.803805 5.59117,0.245824 -5.42721,1.366397 3.77973,4.12738 -4.8038,-2.871428 -0.24583,5.591173 -1.36639,-5.42721 z"
       inkscape:transform-center-x="3.5410542e-06" />
    <path
       sodipodi:type="star"
       style="fill:#ffff00;stroke:#241f1c;stroke-width:0.529"
       id="path17"
       inkscape:flatsided="false"
       sodipodi:sides="10"
       sodipodi:cx="177.306"
       sodipodi:cy="178.80614"
       sodipodi:r1="15.526902"
       sodipodi:r2="4.3870611"
       sodipodi:arg1="1.1973826"
       sodipodi:arg2="1.5115419"
       inkscape:rounded="0"
       inkscape:randomized="0"
       d="m 182.97015,193.26304 -5.40435,-10.07754 -4.17496,10.64582 1.55122,-11.3295 -9.63507,6.15868 7.91427,-8.25398 -11.41491,-0.68088 11.25435,-2.02571 -8.83465,-7.26037 10.29564,4.97631 -2.87984,-11.06664 5.40435,10.07755 4.17496,-10.64583 -1.55122,11.3295 9.63507,-6.15867 -7.91427,8.25397 11.41491,0.68089 -11.25435,2.02571 8.83465,7.26036 -10.29564,-4.9763 z"
       inkscape:transform-center-x="2.2337764e-06"
       inkscape:transform-center-y="-2.2526758e-06"
       transform="translate(16.249591,11.156049)" />
    <path
       sodipodi:type="star"
       style="fill:#ffff00;stroke:#241f1c;stroke-width:0.529"
       id="path18"
       inkscape:flatsided="false"
       sodipodi:sides="6"
       sodipodi:cx="85.936928"
       sodipodi:cy="169.36317"
       sodipodi:r1="12.130285"
       sodipodi:r2="3.4273615"
       sodipodi:arg1="0.89221116"
       sodipodi:arg2="1.4158099"
       inkscape:rounded="0"
       inkscape:randomized="0"
       d="m 93.551014,178.80614 -7.085016,-6.05669 -4.899871,7.9292 1.702732,-9.16415 -9.316818,-0.27881 8.787747,-3.10747 -4.416946,-8.20801 7.085015,6.05668 4.899872,-7.92919 -1.702732,9.16415 9.316818,0.27881 -8.787748,3.10747 z"
       inkscape:transform-center-x="1.0826699e-06"
       inkscape:transform-center-y="-2.1337093e-06" />
    <path
       sodipodi:type="star"
       style="fill:#ffff00;stroke:#241f1c;stroke-width:0.529"
       id="path19"
       inkscape:flatsided="false"
       sodipodi:sides="6"
       sodipodi:cx="104.13647"
       sodipodi:cy="18.69371"
       sodipodi:r1="4.4451599"
       sodipodi:r2="1.2559612"
       sodipodi:arg1="0.88005389"
       sodipodi:arg2="1.4036527"
       inkscape:rounded="0"
       inkscape:randomized="0"
       d="m 106.96852,22.119921 -2.6231,-2.187753 -1.76011,2.927278 0.5831,-3.365551 -3.415155,-0.06066 3.206205,-1.177799 -1.65505,-2.987937 2.62311,2.187752 1.7601,-2.927278 -0.58309,3.365551 3.41515,0.06066 -3.2062,1.177799 z"
       inkscape:transform-center-x="1.3119556e-06" />
    <path
       sodipodi:type="star"
       style="fill:#ffff00;stroke:#241f1c;stroke-width:0.529"
       id="path20"
       inkscape:flatsided="false"
       sodipodi:sides="6"
       sodipodi:cx="200.84468"
       sodipodi:cy="63.192596"
       sodipodi:r1="4.601635"
       sodipodi:r2="1.3001726"
       sodipodi:arg1="2.4290484"
       sodipodi:arg2="2.9526472"
       inkscape:rounded="0"
       inkscape:randomized="0"
       d="m 197.36262,66.200966 2.20503,-2.764167 -3.06932,-1.755571 3.49635,0.527527 -0.0143,-3.535898 1.29132,3.291695 3.05503,-1.780326 -2.20503,2.764168 3.06933,1.755571 -3.49636,-0.527527 0.0143,3.535897 -1.29132,-3.291694 z"
       inkscape:transform-center-x="2.5303268e-06" />
    <path
       sodipodi:type="star"
       style="fill:#ffff00;stroke:#241f1c;stroke-width:0.529"
       id="path21"
       inkscape:flatsided="false"
       sodipodi:sides="6"
       sodipodi:cx="91.508224"
       sodipodi:cy="87.301369"
       sodipodi:r1="3.3555787"
       sodipodi:r2="0.94810456"
       sodipodi:arg1="1.3899489"
       sodipodi:arg2="1.9135477"
       inkscape:rounded="0"
       inkscape:randomized="0"
       d="m 92.11177,90.602223 -0.922184,-2.407898 -2.238213,1.280157 1.624209,-2.002584 -2.227754,-1.298271 2.546393,0.405314 0.01046,-2.578427 0.922184,2.407898 2.238213,-1.280156 -1.624209,2.002584 2.227754,1.29827 -2.546393,-0.405314 z"
       inkscape:transform-center-x="1.1528595e-06"
       inkscape:transform-center-y="-1.0998598e-06" />
    <path
       sodipodi:type="star"
       style="fill:#ffff00;stroke:#241f1c;stroke-width:0.529"
       id="path22"
       inkscape:flatsided="false"
       sodipodi:sides="6"
       sodipodi:cx="313.94183"
       sodipodi:cy="143.08167"
       sodipodi:r1="1.6124744"
       sodipodi:r2="0.45559779"
       sodipodi:arg1="-2.7423899"
       sodipodi:arg2="-2.2187911"
       inkscape:rounded="0"
       inkscape:randomized="0"
       d="m 312.45615,142.45492 1.21069,0.2635 0.0749,-1.23677 0.37715,1.18024 1.10853,-0.5535 -0.83354,0.91675 1.03361,0.68327 -1.21069,-0.2635 -0.0749,1.23677 -0.37715,-1.18024 -1.10854,0.5535 0.83355,-0.91675 z"
       inkscape:transform-center-x="3.9551722e-06"
       inkscape:transform-center-y="-1.8026036e-06" />
  </g>
</svg>
