<?xml version="1.0" encoding="UTF-8" standalone="no"?>
<!-- Created with Inkscape (http://www.inkscape.org/) -->

<svg
   width="210mm"
   height="297mm"
   viewBox="0 0 210 297"
   version="1.1"
   id="svg1"
   inkscape:version="1.3.1 (9b9bdc1480, 2023-11-25, custom)"
   sodipodi:docname="reto_1.svg"
   xmlns:inkscape="http://www.inkscape.org/namespaces/inkscape"
   xmlns:sodipodi="http://sodipodi.sourceforge.net/DTD/sodipodi-0.dtd"
   xmlns="http://www.w3.org/2000/svg"
   xmlns:svg="http://www.w3.org/2000/svg">
  <sodipodi:namedview
     id="namedview1"
     pagecolor="#ffffff"
     bordercolor="#000000"
     borderopacity="0.25"
     inkscape:showpageshadow="2"
     inkscape:pageopacity="0.0"
     inkscape:pagecheckerboard="0"
     inkscape:deskcolor="#d1d1d1"
     inkscape:document-units="mm"
     inkscape:zoom="0.81665302"
     inkscape:cx="571.84629"
     inkscape:cy="484.90606"
     inkscape:window-width="1854"
     inkscape:window-height="1011"
     inkscape:window-x="66"
     inkscape:window-y="32"
     inkscape:window-maximized="1"
     inkscape:current-layer="layer1" />
  <defs
     id="defs1" />
  <g
     inkscape:label="Capa 1"
     inkscape:groupmode="layer"
     id="layer1">
    <rect
       style="fill:#808080;stroke-width:0.264583"
       id="rect4"
       width="35.07048"
       height="29.635113"
       x="48.511517"
       y="66.391838" />
    <rect
       style="fill:#808080;stroke-width:0.264583"
       id="rect5"
       width="36.40152"
       height="31.145519"
       x="93.593864"
       y="65.975159" />
    <ellipse
       style="fill:#ffff00;stroke-width:0.264583"
       id="path5"
       cx="65.931023"
       cy="81.86042"
       rx="7.2918901"
       ry="7.9165864" />
    <ellipse
       style="fill:#ffff00;stroke-width:0.264583"
       id="path6"
       cx="110.75293"
       cy="82.042709"
       rx="8.5361242"
       ry="8.2551212" />
    <rect
       style="fill:#4d4d4d;stroke-width:0.264583"
       id="rect7"
       width="10.926113"
       height="36.091537"
       x="83.257156"
       y="78.408974"
       ry="0.29461992" />
    <rect
       style="fill:#ffff00;stroke-width:0.264583"
       id="rect8"
       width="93.219704"
       height="75.534439"
       x="42.499146"
       y="109.93382"
       ry="0.29461992" />
    <path
       style="fill:#666666;stroke-width:0.264583"
       d="m 114.97151,134.68231 c 19.68335,-23.90144 20.29719,-24.67483 20.29719,-24.67483 z"
       id="path12" />
    <path
       style="fill:#666666;stroke-width:0.264583"
       d="M 27.924999,44.757082 C 26.401724,43.973719 26.993626,43.827339 26.206282,44.131004"
       id="path15" />
    <rect
       style="fill:#d4aa00;stroke-width:0.264583"
       id="rect18"
       width="0.57288629"
       height="1.0311795"
       x="79.077156"
       y="144.48761" />
    <rect
       style="fill:#ffd42a;stroke-width:0.264583"
       id="rect19"
       width="64.124352"
       height="49.276012"
       x="57.675083"
       y="121.21223" />
    <rect
       style="fill:#000000;stroke-width:0.264583"
       id="rect20"
       width="32.205402"
       height="46.366577"
       x="113.45141"
       y="156.75134" />
    <rect
       style="fill:#000000;stroke-width:0.264583"
       id="rect20-6"
       width="32.205402"
       height="46.366577"
       x="38.132545"
       y="156.31445" />
    <rect
       style="fill:#4d4d4d;stroke-width:0.372566"
       id="rect21"
       width="23.611811"
       height="29.352003"
       x="106.45379"
       y="118.56059" />
    <rect
       style="fill:#4d4d4d;stroke-width:0.386199"
       id="rect21-6"
       width="25.371462"
       height="29.352003"
       x="48.585983"
       y="119.22826" />
    <rect
       style="fill:#666666;stroke-width:0.264583"
       id="rect22"
       width="6.0564075"
       height="19.15061"
       x="58.043385"
       y="128.98297" />
    <rect
       style="fill:#666666;stroke-width:0.264583"
       id="rect22-9"
       width="6.0564075"
       height="19.15061"
       x="116.71102"
       y="128.31425" />
    <path
       style="fill:#666666;stroke-width:0.264583"
       id="path23"
       d="m 39.370457,168.85435 c 0.710846,-0.5292 1.426073,-1.05844 2.194634,-1.5018 0.309962,-0.18351 0.642342,-0.31865 0.98361,-0.43036 0.31315,-0.10453 0.635643,-0.16968 0.964028,-0.19849 0.238678,-0.017 0.477835,-0.0101 0.716833,-0.008 0.248327,0.003 0.496737,0.003 0.745096,0.004 0.245901,-0.002 0.493355,0.0237 0.730628,0.089 0.882293,0.45239 -1.874888,-1.20004 -0.82495,-0.44502 0.638001,0.43103 1.318723,0.78265 1.990209,1.16356 0.303798,0.1658 0.628642,0.24409 0.970185,0.27212 0.257096,0.0162 0.507368,-0.0323 0.756325,-0.089 0.28466,-0.083 0.551839,-0.22251 0.817594,-0.35268 0.313648,-0.15798 0.624353,-0.31802 0.951693,-0.44599 0.399796,-0.1416 0.801465,-0.27888 1.20623,-0.40564 0.417682,-0.14261 0.84809,-0.24158 1.278956,-0.33463 0.464519,-0.0896 0.928238,-0.18327 1.391976,-0.27681 0.320132,-0.0715 0.638913,-0.081 0.961035,-0.0255 -0.183705,-0.21527 0.916604,0.42722 0.63908,0.26862 -1.297077,-0.74128 -1.69695,-1.01117 -1.166482,-0.65811 0.179936,0.13634 0.34476,0.29076 0.522648,0.42974 0.165838,0.11905 0.341407,0.2234 0.508494,0.34064 0.19516,0.14097 0.392679,0.27847 0.581385,0.42809 0.169611,0.13506 0.316177,0.29451 0.481468,0.43489 0.712637,0.52444 1.479378,1.05112 2.339483,1.28289 0.297979,0.0731 0.6043,0.10107 0.90792,0.14043 0.0902,0.025 0.183462,0.0246 0.275736,0.0328 0.03676,0.003 0.0735,0.006 0.110138,0.009 0.009,-8e-4 0.01505,0.006 0.02238,0.009 0.03008,-0.0453 0.06016,-0.0907 0.09024,-0.13602 0.0363,-0.14282 0.160018,-0.23001 0.266542,-0.32172 0.255759,-0.20237 0.515323,-0.39993 0.792832,-0.57163 0.282114,-0.17972 0.592825,-0.30526 0.901451,-0.43087 0.337746,-0.13249 0.679609,-0.25383 1.035097,-0.3282 0.227603,-0.0498 0.461153,-0.0503 0.692889,-0.0521 0.180049,-0.0101 0.35778,-7.9e-4 0.534762,0.0329 0.188696,0.0388 0.362688,0.1346 0.537337,0.2143 0.799979,0.39729 2.146226,1.20877 -1.324406,-0.78592 0.21069,0.128 0.414647,0.26588 0.615394,0.40877 0.898832,0.61455 1.871676,1.12854 2.809172,1.67138 0.19395,0.0956 0.397012,0.17003 0.589359,0.26937 0.172654,0.0887 0.353743,0.15817 0.531508,0.23606 1.047404,0.53916 -2.986198,-1.65891 -1.382995,-0.7599 0.349244,0.17442 0.715309,0.3126 1.07643,0.46004 0,0 0.07419,0.0299 0.07419,0.0299 v 0 c 0.285093,0.10764 0.568967,0.23524 0.865108,0.30703 -0.628994,-0.68349 -1.616964,-1.11245 -2.498098,-1.51328 -0.177832,-0.0772 -0.354584,-0.15599 -0.527434,-0.24399 -0.19654,-0.0878 -0.395978,-0.17057 -0.580125,-0.28319 3.552579,2.06137 2.063295,1.22124 1.288862,0.71282 -0.203822,-0.14405 -0.401701,-0.29634 -0.616307,-0.42464 -0.916893,-0.53371 -1.836997,-1.15007 -2.820797,-1.58813 -0.188352,-0.0784 -0.37818,-0.15373 -0.584613,-0.16422 -0.187902,-0.0139 -0.375999,-0.0106 -0.564332,-0.009 -0.243848,0.008 -0.487048,0.0303 -0.723691,0.0934 -0.361752,0.0948 -0.715725,0.21751 -1.063244,0.3554 -0.323599,0.13326 -0.644581,0.27394 -0.945018,0.45485 -0.281752,0.18442 -0.55258,0.38465 -0.816226,0.59412 -0.140417,0.11347 -0.282462,0.22872 -0.391533,0.37414 0.02302,-0.0316 0.08828,-0.12771 0.07291,-0.0918 -0.0285,0.004 -0.05715,0.007 -0.08584,0.0107 -0.05766,0.008 -0.117266,0.008 -0.171339,0.0321 -0.199358,0.0276 -0.401825,0.0361 -0.602581,0.0196 -0.147619,-0.0437 -0.462507,-0.21405 -0.278564,-0.10436 2.636272,1.57207 1.851877,1.0853 1.290757,0.75358 -0.215382,-0.15021 -0.416499,-0.31647 -0.616619,-0.48639 -0.196335,-0.15244 -0.394624,-0.30213 -0.599403,-0.44315 -0.168246,-0.12337 -0.339871,-0.24036 -0.520057,-0.34593 -0.200356,-0.12927 -0.378582,-0.28917 -0.560605,-0.44251 -0.667197,-0.52967 -1.467173,-1.02253 -2.318324,-1.19622 -0.334836,-0.0336 -0.665988,-0.008 -0.994124,0.0692 -0.463262,0.0966 -0.927722,0.18719 -1.391928,0.27909 -0.435922,0.0949 -0.870559,0.19723 -1.292548,0.34391 -0.407493,0.13128 -0.814618,0.26485 -1.21616,0.41344 -0.327813,0.13441 -0.64062,0.29805 -0.957773,0.45545 -0.260477,0.12382 -0.523259,0.25236 -0.80545,0.31862 -0.22973,0.0587 -0.464338,0.0873 -0.701487,0.06 -0.321913,-0.0409 -0.624959,-0.14569 -0.910206,-0.30152 2.232728,1.30051 1.227751,0.7373 0.73991,0.41406 -0.628328,-0.38415 -1.192512,-0.95014 -1.927977,-1.09892 -0.247954,-0.044 -0.498716,-0.0699 -0.75094,-0.0607 -0.247097,-8e-4 -0.494258,-0.002 -0.741326,2.6e-4 -0.231775,0.004 -0.463431,0.0165 -0.693406,0.047 -0.330142,0.0498 -0.655495,0.12292 -0.971651,0.23193 -0.341185,0.11898 -0.657564,0.27844 -0.947605,0.4968 -0.727787,0.50485 -1.457947,1.00621 -2.173867,1.52807 z" />
    <path
       style="fill:#666666;stroke-width:0.264583"
       id="path24"
       d="m 40.98998,180.46982 c 0.699926,-0.67178 1.433838,-1.30577 2.211527,-1.88561 0.388081,-0.29467 0.79646,-0.43028 1.277811,-0.38737 -0.128638,-0.19283 0.78459,0.36426 0.544658,0.22932 -2.734572,-1.53794 -1.864455,-1.19731 -1.280692,-0.60295 0.314963,0.33502 0.525881,0.74285 0.739476,1.14509 0.16973,0.33394 0.390287,0.63155 0.652015,0.89782 0.774013,0.665 1.677763,1.23264 2.640053,1.56705 0.303839,0.11397 0.618685,0.11558 0.932947,0.0535 0.357124,-0.10166 0.681791,-0.2864 1.010848,-0.45384 0.281827,-0.13555 0.47244,-0.35136 0.640197,-0.60808 0.212246,-0.31984 0.492871,-0.5828 0.766813,-0.8484 0.308729,-0.32095 0.631203,-0.61494 1.00018,-0.86477 0.333169,-0.21545 0.706959,-0.34301 1.076574,-0.47785 0.333819,-0.12152 0.680895,-0.20612 1.033653,-0.24723 0.307202,-0.0256 0.588857,0.095 0.864013,0.2147 0.626403,0.33034 1.552799,0.81789 -1.349481,-0.77298 -0.05002,-0.0274 0.09028,0.0698 0.134207,0.10617 0.04974,0.0412 0.197175,0.17254 0.24615,0.21593 0.27451,0.24551 0.585774,0.44376 0.892685,0.64533 0.257512,0.17041 0.510488,0.34741 0.754531,0.53663 0.839833,0.5879 1.743144,1.0846 2.651033,1.56005 0.193865,0.11948 0.400362,0.1416 0.621345,0.12596 0.32577,-0.0292 0.65106,-0.0622 0.976217,-0.0978 0.322186,-0.0243 0.640482,-0.0638 0.957664,-0.12375 0.34933,-0.10026 0.69759,-0.20397 1.048584,-0.29833 0.45653,-0.10443 0.888939,-0.27866 1.31159,-0.47657 0.411813,-0.19406 0.817925,-0.39907 1.259758,-0.51473 0.315542,-0.0791 0.640011,-0.0774 0.962702,-0.077 0.274921,0.0101 0.551474,-0.007 0.823238,0.0407 0.310986,0.0923 0.593547,0.26047 0.886801,0.39667 0.200731,0.0503 0.452657,0.31204 0.672002,0.26085 -0.138851,-0.19141 -0.375049,-0.35128 -0.555358,-0.50179 0,0 -0.06323,-0.049 -0.06323,-0.049 v 0 c -0.282861,-0.20676 -0.560369,-0.42453 -0.861494,-0.60453 -0.242435,-0.12753 -0.496332,-0.2292 -0.746361,-0.34081 -0.280572,-0.12811 -0.560564,-0.27596 -0.871984,-0.30839 -0.270529,-0.0182 -0.541795,-0.0101 -0.81253,0.001 -0.317289,0.0169 -0.633225,0.0585 -0.936977,0.15598 -0.430263,0.14854 -0.840428,0.34169 -1.241145,0.55724 -0.414676,0.18889 -0.836078,0.35863 -1.281684,0.46178 -0.348067,0.0985 -0.696912,0.19509 -1.047284,0.28488 -0.305282,0.0681 -0.619112,0.0884 -0.930431,0.1109 -0.391322,0.001 -0.784828,-0.0111 -1.171173,-0.0782 -0.23399,-0.0517 -0.453448,-0.13601 -0.658857,-0.26139 -1.315183,-0.73998 2.705293,1.58461 0.986237,0.56598 -0.248738,-0.19123 -0.495277,-0.38526 -0.760156,-0.55443 -0.301691,-0.20532 -0.61949,-0.38887 -0.902089,-0.62089 -0.79856,-0.6743 -1.679795,-1.25321 -2.653017,-1.65266 -0.309033,-0.12075 -0.62162,-0.20253 -0.955397,-0.14123 -0.36626,0.063 -0.724019,0.16132 -1.080942,0.26391 -0.394036,0.12848 -0.778383,0.28471 -1.124286,0.51703 -0.37529,0.2621 -0.730263,0.55348 -1.059095,0.87219 -0.283284,0.27739 -0.573585,0.55134 -0.799561,0.87958 -0.15871,0.21704 -0.335986,0.39526 -0.581533,0.51501 -0.307665,0.16169 -0.619106,0.33491 -0.966234,0.39196 -0.296712,0.0216 -0.582925,-0.0168 -0.855726,-0.1424 -0.753872,-0.35847 -0.09007,-0.0471 1.644901,0.96565 0.386366,0.22554 -0.915194,-0.46208 -0.483425,-0.31268 -0.288232,-0.24004 -0.535104,-0.52029 -0.717698,-0.8501 -0.239335,-0.40986 -0.447268,-0.84193 -0.755632,-1.20695 -0.743127,-0.86358 -1.807435,-1.53099 -2.935994,-1.69854 -0.509026,0.0126 -0.943851,0.19707 -1.341091,0.51858 -0.762222,0.60173 -1.459698,1.27751 -2.17225,1.93607 z" />
    <path
       style="fill:#666666;stroke-width:0.264583"
       id="path25"
       d="m 39.831531,191.52956 c 0.922022,-0.46252 1.878036,-0.85428 2.847403,-1.20542 0.599874,-0.20891 1.226765,-0.29671 1.85955,-0.27275 0.241657,0.0211 0.482589,0.0598 0.706834,0.15645 0.06234,0.0269 0.239988,0.12689 0.180981,0.0933 -1.558497,-0.8861 -1.866416,-1.12769 -1.249027,-0.66792 0.461889,0.41635 0.956075,0.78677 1.481299,1.11877 1.103617,0.69402 2.215663,1.34484 3.457096,1.73585 0.456851,0.138 0.927034,0.22179 1.396926,0.30055 0.564055,0.0924 1.134801,0.0974 1.704261,0.0746 0.774266,-0.0506 1.543391,-0.16224 2.303322,-0.31689 0.579041,-0.10727 1.12295,-0.31154 1.63186,-0.60405 0.414724,-0.26654 0.828371,-0.53387 1.262634,-0.76763 0.413528,-0.23232 0.858523,-0.39635 1.310156,-0.5364 0.507206,-0.1461 1.028089,-0.23635 1.552035,-0.29472 0.30017,-0.058 0.573442,-0.008 0.86074,0.0687 0.500068,0.12618 1.012954,0.19385 1.520785,0.28133 0.437968,0.0751 0.869797,0.18272 1.273315,0.37073 0.266639,0.13893 0.563891,0.20512 0.852311,0.28361 0.351313,0.0876 0.701262,0.18511 1.059484,0.2406 0.23024,0.0348 0.462764,0.0399 0.694962,0.0485 0.241747,0.0426 0.483931,0.0633 0.729414,0.0613 0.251373,0.002 0.502748,-0.004 0.75411,-0.003 0.178367,-0.002 0.356714,5.3e-4 0.535065,0.002 0.287154,0.003 0.573942,-0.0149 0.860911,-0.0242 0.29871,-0.0122 0.38448,-0.0173 0.06141,-0.27192 -0.178388,-0.1406 -0.36199,-0.27446 -0.542986,-0.41168 0,0 -0.06485,-0.0468 -0.06485,-0.0468 v 0 c -0.421405,-0.29044 -0.830085,-0.70915 -1.375341,-0.65541 -0.284224,0.011 -0.568386,0.0241 -0.852932,0.0203 -0.175485,0.002 -0.350957,0.006 -0.526405,0.0102 -0.237635,0.0111 -0.475461,0.0214 -0.713409,0.0209 -0.235857,-0.0118 -0.470207,-0.0454 -0.706345,-0.0437 -0.212259,7.9e-4 -0.424762,-0.0116 -0.634547,-0.0451 -0.323456,-0.0581 -0.646949,-0.11863 -0.966187,-0.19692 -0.267584,-0.0723 -0.532673,-0.15137 -0.786083,-0.26503 -0.414258,-0.1455 -0.843491,-0.23892 -1.275331,-0.3159 -0.511569,-0.0882 -1.025543,-0.1684 -1.52763,-0.30277 -0.295566,-0.062 -0.591817,-0.0424 -0.889844,5.3e-4 -0.533255,0.0728 -1.06634,0.15855 -1.581351,0.31958 -0.462312,0.14823 -0.915768,0.32366 -1.338106,0.56598 -0.43056,0.24043 -0.841711,0.51177 -1.261312,0.77051 -0.495681,0.26914 -1.024247,0.45681 -1.579424,0.56295 -0.752393,0.14978 -1.513997,0.2595 -2.281362,0.29022 -0.564817,0.01 -1.129951,-0.009 -1.687047,-0.11203 -0.460756,-0.0814 -0.921464,-0.17033 -1.367285,-0.31513 -0.759976,-0.25875 -2.979084,-1.3747 -0.01627,0.2151 -0.553241,-0.32497 -1.083103,-0.68401 -1.553487,-1.12338 -0.838417,-0.67739 -1.789724,-1.36115 -2.891523,-1.36536 -0.632161,0.0227 -1.251924,0.13394 -1.84472,0.36182 -0.952066,0.36722 -1.861682,0.82618 -2.780652,1.26802 z" />
    <path
       style="fill:#666666;stroke-width:0.264583"
       id="path26"
       d="m 115.28575,164.61755 c 0.7753,-0.36713 1.56068,-0.71738 2.37119,-0.99977 0.43282,-0.1285 0.88586,-0.14695 1.3342,-0.13865 0.36047,0.0154 0.72223,0.057 1.06026,0.18774 0.32484,0.17243 0.6671,0.30706 0.99511,0.47285 0.66781,0.39413 1.77583,0.96233 -1.34074,-0.76325 -0.0653,-0.0362 0.12175,0.0864 0.18193,0.1305 0.0844,0.0619 0.31372,0.23601 0.39183,0.29514 0.9872,0.72258 2.03723,1.3814 3.15211,1.88604 0.3252,0.14242 0.66575,0.23322 1.01704,0.2775 0.38986,0.0357 0.78218,0.0199 1.17142,-0.0147 0.36199,-0.0378 0.71455,-0.13361 1.06186,-0.23888 0.4011,-0.13182 0.80324,-0.26027 1.20073,-0.40272 0.38871,-0.15034 0.77584,-0.30436 1.16455,-0.45475 0.33465,-0.13126 0.69046,-0.18237 1.04358,-0.23578 0.54683,-0.0877 1.0965,-0.15387 1.64749,-0.2087 0.35403,-0.0412 0.70903,-0.0725 1.06483,-0.0929 0.19706,-0.0254 0.37487,0.0466 0.55745,0.11024 0.27447,0.0946 0.54432,0.19891 0.81052,0.31469 1.19041,0.69385 -2.68232,-1.66142 -1.01906,-0.53154 0.276,0.17882 0.53517,0.3806 0.79102,0.58666 0.83277,0.6222 1.73168,1.17682 2.69494,1.57108 0.32825,0.12425 0.67799,0.14398 1.02511,0.14614 0.48946,2.6e-4 0.97759,-0.0423 1.46491,-0.0835 0.30461,-0.0163 0.60284,-0.0808 0.89205,-0.1753 0.3014,-0.10058 0.6023,-0.20243 0.90581,-0.29681 0.37827,-0.11749 0.76495,-0.20417 1.15302,-0.28194 0.36543,-0.071 0.73783,-0.0922 1.10893,-0.10922 0.2587,-0.0353 0.48864,0.034 0.72531,0.12806 0.16767,0.0708 0.3211,0.17162 0.47771,0.26345 0.27727,0.16122 0.58192,0.2575 0.89549,0.31596 0.2731,0.0147 0.55564,0.13946 0.19009,-0.19773 -0.11196,-0.0827 -0.22393,-0.16537 -0.33589,-0.24806 0,0 -0.35423,-0.28223 -0.35423,-0.28223 v 0 c -0.14383,-0.0978 -0.28766,-0.1957 -0.43149,-0.29356 -0.26781,-0.16865 -0.51379,-0.29009 -0.83196,-0.32069 -0.29348,-0.0791 -0.57425,-0.19214 -0.83443,-0.35104 -0.1568,-0.0873 -0.31311,-0.17126 -0.48788,-0.21783 -0.25491,-0.0719 -0.51062,-0.0867 -0.77476,-0.0653 -0.38467,0.0147 -0.76952,0.0417 -1.14632,0.12579 -0.39372,0.0831 -0.7858,0.17507 -1.1697,0.29664 -0.30416,0.0944 -0.60493,0.19884 -0.9094,0.29207 -0.27996,0.0768 -0.56578,0.12507 -0.85558,0.14581 -0.48099,0.0437 -0.96401,0.0805 -1.44735,0.0635 -0.33312,-0.0207 -0.66532,-0.0615 -0.9696,-0.20906 -1.35255,-0.64644 2.78331,1.67315 1.02811,0.58785 -0.2671,-0.19893 -0.51405,-0.42513 -0.79692,-0.60288 -0.85495,-0.58686 -1.72329,-1.17708 -2.67655,-1.58971 -0.27439,-0.11313 -0.55213,-0.21748 -0.83537,-0.30662 -0.20279,-0.0555 -0.40152,-0.0817 -0.61155,-0.0528 -0.35692,0.0228 -0.71237,0.0631 -1.06779,0.10226 -0.55897,0.0605 -1.11714,0.12891 -1.67441,0.2034 -0.36532,0.0588 -0.72906,0.12916 -1.07293,0.27111 -0.39562,0.14731 -0.79309,0.28916 -1.19063,0.4311 -0.39729,0.13879 -0.79759,0.26974 -1.20215,0.38573 -0.33923,0.093 -0.6832,0.17643 -1.03521,0.20103 -0.38025,0.0232 -0.76385,0.0335 -1.14138,-0.028 -0.33451,-0.0648 -0.65896,-0.16961 -0.9653,-0.32033 -0.77262,-0.39777 -0.2814,-0.14898 1.51491,0.89301 0.52295,0.30334 -1.38391,-0.80448 -0.85553,-0.56304 -0.94628,-0.72695 -1.97227,-1.33717 -3.03896,-1.87494 -0.33658,-0.15807 -0.67262,-0.32232 -1.02133,-0.45118 -0.35835,-0.0885 -0.72575,-0.12953 -1.09507,-0.12886 -0.46469,0.009 -0.93079,0.0455 -1.37054,0.20914 -0.7988,0.31301 -1.57194,0.68496 -2.35779,1.02845 z" />
    <path
       style="fill:#666666;stroke-width:0.264583"
       id="path27"
       d="m 116.08019,176.45044 c 1.00936,-0.5605 2.0712,-1.01614 3.14027,-1.44836 0.44665,-0.17822 0.88166,-0.36156 1.36758,-0.33077 0.62999,0.0782 1.25309,0.20791 1.86836,0.36267 0.69007,0.2014 1.37309,0.4259 2.05726,0.64624 0.58463,0.19403 1.17549,0.36836 1.75967,0.56366 0.46224,0.16112 0.92832,0.31291 1.41108,0.39741 0.46376,0.0712 0.92862,0.0418 1.391,-0.0184 0.43973,-0.0726 0.87155,-0.18531 1.30212,-0.29889 0.35358,-0.0838 0.69816,-0.19786 1.04113,-0.31662 0.27428,-0.1063 0.55582,-0.18959 0.84223,-0.2556 0.56073,-0.13144 1.1342,-0.19408 1.70644,-0.24997 0.28872,-0.0266 0.57855,-0.0397 0.8682,-0.0262 0.4071,1.5e-4 0.80921,0.0675 1.20393,0.16157 0.41824,0.10053 0.81017,0.27946 1.21793,0.4115 0.42375,0.12021 0.83787,0.26585 1.23789,0.45027 0.32288,0.18897 0.65932,0.30564 1.02586,0.37098 0.63271,0.0978 1.26853,0.17392 1.90347,0.25549 0.36601,0.0483 0.7325,0.0903 1.10121,0.11015 0.23841,-0.008 0.46355,-0.0959 0.68591,-0.17438 0.22973,-0.0907 0.45697,-0.18465 0.69636,-0.24695 0.29256,-0.0742 0.56463,-0.0366 0.84893,0.0503 0.48806,0.18542 0.95644,0.41922 1.42731,0.64393 0.0741,0.0361 0.14054,0.0982 0.22236,0.10817 0.0307,0.004 -0.0144,-0.0632 -0.0358,-0.0855 -0.0945,-0.0984 -0.20454,-0.18067 -0.30681,-0.271 0,0 -0.54925,-0.4446 -0.54925,-0.4446 v 0 c -0.38557,-0.28643 -0.76447,-0.60543 -1.20755,-0.80205 -0.4717,-0.22212 -0.94276,-0.46007 -1.44808,-0.59597 -0.31602,-0.0542 -0.62626,-0.0575 -0.93562,0.0392 -0.23736,0.0762 -0.46649,0.17407 -0.70241,0.25443 -0.20571,0.0653 -0.41453,0.12591 -0.63286,0.10015 -0.35465,-0.0206 -0.708,-0.0594 -1.06078,-0.10039 -0.6332,-0.0763 -1.26742,-0.15361 -1.89425,-0.27236 -0.32485,-0.0775 -0.6238,-0.20745 -0.92437,-0.35235 -0.40363,-0.16316 -0.81554,-0.30324 -1.23592,-0.41714 -0.35634,-0.10289 -0.71688,-0.19042 -1.0767,-0.28042 -0.4064,-0.0805 -0.81941,-0.14733 -1.2353,-0.12582 -0.27709,0.0232 -0.55364,0.0528 -0.83112,0.0715 -0.58916,0.048 -1.17763,0.11664 -1.75393,0.25234 -0.29291,0.0715 -0.58068,0.15864 -0.86217,0.2672 -0.33794,0.11799 -0.681,0.21938 -1.02912,0.30312 -0.42771,0.10335 -0.85496,0.21513 -1.29181,0.27317 -0.45087,0.0467 -0.90473,0.0571 -1.35193,-0.0324 -0.46684,-0.10226 -0.92134,-0.24877 -1.37411,-0.40093 -0.58196,-0.1882 -1.16633,-0.36898 -1.74979,-0.55245 -0.65023,-0.1982 -1.30509,-0.38095 -1.96178,-0.5565 -0.62202,-0.14478 -1.2521,-0.29375 -1.89196,-0.32207 -0.47435,0.0381 -0.89488,0.27329 -1.33466,0.43974 -1.0666,0.45575 -2.12736,0.9249 -3.15962,1.45507 z" />
    <path
       style="fill:#666666;stroke-width:0.264583"
       id="path28"
       d="m 114.72989,186.71152 c 0.95144,-0.5794 1.91813,-1.13218 2.91411,-1.63135 0.6124,-0.3045 1.25351,-0.54397 1.91596,-0.71212 0.57299,-0.10925 1.16002,-0.10353 1.74096,-0.10204 0.74816,0.002 1.49283,0.0616 2.23268,0.16903 0.35943,0.0481 0.68713,0.20353 1.03171,0.30511 0.59886,0.16084 1.19567,0.327 1.78504,0.52003 0.45698,0.16216 0.90095,0.35724 1.34591,0.54914 0.36648,0.13154 0.7724,0.10126 1.156,0.1063 0.51313,0.007 1.02636,0.003 1.53946,0.0121 0.35238,0.001 0.70369,-0.0498 1.05169,-0.101 0.51451,-0.0799 1.03117,-0.14657 1.54292,-0.24314 0.45848,-0.1025 0.89351,-0.28464 1.33741,-0.43476 0.37739,-0.11467 0.75384,-0.24101 1.14532,-0.29684 0.47941,-0.0492 0.96227,0.006 1.43674,0.0758 0.39179,0.0611 0.76672,0.19666 1.1565,0.26519 0.36337,0.0445 0.729,0.0577 1.09188,0.10662 0.32195,0.0538 0.65046,0.10772 0.95321,0.23451 0.16592,0.10085 0.35495,0.0999 0.54135,0.13248 0.29282,0.0644 0.58033,0.14744 0.87504,0.20427 0.37763,0.0634 0.76149,0.0714 1.14347,0.0797 0.33532,0.005 0.6707,0.004 1.00605,0.004 0.29042,-0.0113 0.57896,0.0234 0.86803,0.0448 0.31135,0.0214 0.62635,0.0277 0.93379,0.0842 0.0764,-0.008 0.50806,0.18262 0.30854,0.003 -0.34887,-0.29096 -0.15423,-0.1295 -0.58459,-0.48359 0,0 -0.0626,-0.0499 -0.0626,-0.0499 v 0 c -0.53059,-0.40521 -0.28074,-0.22043 -0.74735,-0.55733 -0.21346,-0.12473 -0.40906,-0.21263 -0.66153,-0.2138 -0.29842,-0.0159 -0.59724,-0.0214 -0.89528,-0.0436 -0.29164,-0.0216 -0.58318,-0.0405 -0.87587,-0.0308 -0.33376,5.3e-4 -0.66756,5.3e-4 -1.00124,-0.008 -0.37567,-0.0129 -0.7531,-0.029 -1.12151,-0.11024 -0.29316,-0.0656 -0.58233,-0.14888 -0.87861,-0.20005 -0.18096,-0.0339 -0.34806,-0.0887 -0.51924,-0.1548 -0.3201,-0.0826 -0.64377,-0.14906 -0.9708,-0.1983 -0.37478,-0.0545 -0.75235,-0.0838 -1.12554,-0.14764 -0.38179,-0.0867 -0.76013,-0.192 -1.14941,-0.24178 -0.49161,-0.0576 -0.99278,-0.10888 -1.48507,-0.0302 -0.39294,0.0805 -0.77377,0.21 -1.15622,0.3293 -0.43613,0.14736 -0.86528,0.32358 -1.31934,0.40985 -0.51,0.0919 -1.02317,0.16445 -1.53655,0.23468 -0.34648,0.0418 -0.69408,0.0782 -1.04365,0.0722 -0.50528,0.0119 -1.01086,0.008 -1.51613,-0.002 -0.37983,-0.0138 -0.76987,-0.0116 -1.12016,-0.17913 -0.43832,-0.17896 -0.87534,-0.36224 -1.32564,-0.50973 -0.59526,-0.18692 -1.19747,-0.34898 -1.79598,-0.52489 -0.32373,-0.10275 -0.6491,-0.19551 -0.98884,-0.22929 -0.74108,-0.0874 -1.48581,-0.13354 -2.23228,-0.1361 -0.59322,2e-5 -1.19614,-0.0103 -1.77338,0.14765 -0.64864,0.20369 -1.27264,0.47477 -1.87776,0.78433 -0.99027,0.51409 -1.94679,1.0861 -2.91184,1.6454 z" />
    <path
       style="fill:#666666;stroke-width:0.264583"
       id="path29"
       d="m 115.68382,196.90688 c 1.06655,-0.44529 2.16876,-0.79575 3.28974,-1.07379 0.51692,-0.13318 1.04447,-0.19198 1.57636,-0.20807 0.53608,-0.0134 1.07076,-0.009 1.60353,0.0546 0.39399,0.0417 0.74585,0.18591 1.08348,0.3841 0.41414,0.21254 0.83548,0.41096 1.25253,0.61797 0.30813,0.16676 0.15462,0.0853 0.46045,0.24449 0.0669,0.0384 0.26745,0.15351 0.20063,0.11506 -0.5543,-0.31894 -1.10836,-0.6383 -1.66307,-0.95652 -0.0496,-0.0285 0.0983,0.0586 0.14785,0.0873 0.66733,0.38694 1.33511,0.77309 2.00267,1.15964 0.31834,0.18408 0.67337,0.26582 1.03044,0.33492 0.56339,0.0964 1.13553,0.12745 1.70576,0.15269 0.62552,0.0303 1.24928,-0.0102 1.86953,-0.0891 0.56744,-0.0852 1.12638,-0.21674 1.68839,-0.33076 0.54982,-0.11698 1.1037,-0.2092 1.66041,-0.28604 0.61309,-0.0898 1.23076,-0.13902 1.84698,-0.20071 0.67015,-0.0639 1.34081,-0.11661 2.01337,-0.14603 0.52941,-0.0237 1.05937,-0.03 1.58924,-0.0267 0.22242,-0.01 0.43913,0.0262 0.64981,0.0938 0.1538,0.0931 0.29421,0.1958 0.47081,0.23847 0.28265,0.0485 0.56482,0.0987 0.84792,0.14458 0.32004,0.0326 0.64239,0.0698 0.96451,0.0636 0.33537,-0.0375 0.66552,-0.11077 0.99852,-0.1653 0.40252,-0.0593 0.80952,-0.0759 1.21577,-0.0846 0.21639,-0.002 0.43286,-0.004 0.64918,0.003 0.11899,0.003 0.23804,0.002 0.35706,0.003 -0.009,-0.0127 0.0652,0.0116 0.0678,-0.0112 0.006,-0.0563 -0.25688,-0.22558 -0.32295,-0.27478 -0.17392,-0.12951 -0.34919,-0.25719 -0.52379,-0.38578 0,0 -0.0647,-0.047 -0.0647,-0.047 v 0 c -0.29203,-0.20941 -0.68384,-0.60349 -1.07002,-0.67212 -0.11707,0.001 -0.23416,-5.3e-4 -0.35122,8e-4 -0.21123,0.006 -0.42253,0.01 -0.63371,0.018 -0.41164,0.0178 -0.82365,0.0432 -1.23065,0.11069 -0.32773,0.0524 -0.65512,0.12584 -0.98831,0.12798 -0.30257,-0.003 -0.60531,-0.0161 -0.90443,-0.0655 -0.26561,-0.0401 -0.53942,-0.0684 -0.79269,-0.16071 -0.15048,-0.0805 -0.29463,-0.17732 -0.46682,-0.20488 -0.22521,-0.0443 -0.45337,-0.0565 -0.68274,-0.0461 -0.52889,0.0109 -1.05783,0.0212 -1.58652,0.0397 -0.67584,0.0341 -1.35017,0.0873 -2.02377,0.15209 -0.6191,0.0577 -1.23782,0.12033 -1.85352,0.20811 -0.56034,0.0809 -1.11813,0.1761 -1.67168,0.29558 -0.55544,0.11736 -1.10986,0.24471 -1.67339,0.31774 -0.61091,0.0669 -1.22404,0.0934 -1.83857,0.0658 -0.5658,-0.0297 -1.13415,-0.0671 -1.6894,-0.18635 -0.3333,-0.0803 -0.66043,-0.18062 -0.95465,-0.36212 3.81441,2.21069 0.18691,0.0657 -1.10236,-0.59461 -0.39531,-0.19203 -0.79565,-0.37356 -1.18726,-0.57309 -0.33934,-0.15679 -0.69924,-0.24361 -1.07184,-0.27893 -0.54123,-0.0479 -1.08467,-0.0527 -1.62768,-0.0361 -0.51903,0.0307 -1.01852,0.15861 -1.51821,0.29901 -1.11363,0.31176 -2.21621,0.66447 -3.2856,1.10709 z" />
  </g>
</svg>
