<?xml version="1.0" encoding="UTF-8" standalone="no"?>
<!-- Created with Inkscape (http://www.inkscape.org/) -->

<svg
   width="210mm"
   height="297mm"
   viewBox="0 0 210 297"
   version="1.1"
   id="svg1"
   inkscape:version="1.3.1 (9b9bdc1480, 2023-11-25, custom)"
   sodipodi:docname="reto_5.svg"
   xmlns:inkscape="http://www.inkscape.org/namespaces/inkscape"
   xmlns:sodipodi="http://sodipodi.sourceforge.net/DTD/sodipodi-0.dtd"
   xmlns="http://www.w3.org/2000/svg"
   xmlns:svg="http://www.w3.org/2000/svg">
  <sodipodi:namedview
     id="namedview1"
     pagecolor="#ffffff"
     bordercolor="#000000"
     borderopacity="0.25"
     inkscape:showpageshadow="2"
     inkscape:pageopacity="0.0"
     inkscape:pagecheckerboard="0"
     inkscape:deskcolor="#d1d1d1"
     inkscape:document-units="mm"
     inkscape:zoom="0.7198092"
     inkscape:cx="397.32751"
     inkscape:cy="561.25984"
     inkscape:window-width="1854"
     inkscape:window-height="1011"
     inkscape:window-x="66"
     inkscape:window-y="32"
     inkscape:window-maximized="1"
     inkscape:current-layer="layer1" />
  <defs
     id="defs1" />
  <g
     inkscape:label="Capa 1"
     inkscape:groupmode="layer"
     id="layer1">
    <path
       style="fill:#000080;stroke:#000000;stroke-width:0.529167"
       d="M 11.635136,50.29314 C 12.331551,48.454696 10.613729,8.0087562 10.613729,8.0087562 L 61.03386,8.5519344"
       id="path1" />
    <path
       style="fill:#000080;stroke:#000000;stroke-width:0.529167"
       d="m 145.16026,9.9725548 48.00593,-0.3760489 1.76424,41.1980321"
       id="path2" />
    <path
       style="fill:#800080;stroke:#000000;stroke-width:0.529167"
       d="m 202.17309,249.59802 1.16069,38.89997 -27.94928,0.0418"
       id="path3" />
    <path
       style="fill:#800080;stroke:#000000;stroke-width:0.529167"
       d="M 9.5459038,250.26653 9.2673402,289.45898 47.523511,288.53976"
       id="path4" />
    <path
       style="fill:#00ff00;stroke:#000000;stroke-width:0.529167"
       d="m 69.065798,254.82087 -39.973969,21.47646 -4.317742,-32.79965 9.23905,17.63244 z"
       id="path5" />
    <path
       style="fill:#00ff00;stroke:#000000;stroke-width:0.529167"
       d="m 150.03515,258.16353 34.07769,14.37333 4.96772,-35.68266 -9.79617,20.09761 z"
       id="path6" />
    <path
       style="fill:#00ff00;stroke:#000000;stroke-width:0.529167"
       d="M 137.17477,28.357073 C 138.75329,28.231724 181.23434,17.99489 181.23434,17.99489 L 178.03086,64.248654 169.9525,34.791652 Z"
       id="path7" />
    <path
       style="fill:#00ff00;stroke:#000000;stroke-width:0.529167"
       d="M 20.131342,19.499075 33.456009,60.488186 35.916653,33.287467 74.637092,30.529786 26.027618,21.253965 Z"
       id="path8" />
    <path
       style="fill:#ff00ff;stroke:#000000;stroke-width:0.529167"
       d="M 12.79582,76.699985 13.910074,234.68149 27.745441,192.77313 68.137259,214.2496 44.598576,176.14352 97.943642,173.4694 49.984154,158.42753 108.11123,140.08478 53.048365,130.72539 104.48989,103.52467 48.266331,87.9814 15.813601,75.906113 18.784953,63.24587 17.717117,59.7361"
       id="path9" />
    <path
       style="fill:#ff00ff;stroke:#000000;stroke-width:0.529167"
       d="m 152.91365,105.78096 35.47051,-33.09213 11.97827,157.31295 -79.43725,-14.79118 47.26308,-4.429 -41.87751,-28.41243 35.98123,1.33706 -42.75961,-29.58235 44.52384,-11.53211 -40.29896,-27.82748 z"
       id="path10" />
    <path
       style="fill:#00ffff;stroke:#000000;stroke-width:0.529167"
       d="m 98.732902,58.190129 4.410598,-25.947245 8.91406,27.660346 36.44549,4.22008 -25.81364,16.170015 -6.26769,20.055835 -12.76753,-21.601806 -35.563371,-5.431782 z"
       id="path11" />
    <path
       style="fill:#00ffff;stroke:#000000;stroke-width:0.529167"
       d="m 90.375974,236.72883 13.696066,-21.01684 4.82845,19.13662 29.29567,3.92759 -23.02797,12.53491 -6.17484,24.98622 -12.813971,-26.78288 -34.541951,-12.32599 z"
       id="path12" />
    <path
       style="fill:#ffff00;stroke:#000000;stroke-width:0.529167"
       d="m 80.254805,291.54813 -7.660529,-22.22855 15.460332,0.62675 -20.103066,11.36496 26.510038,4.13653 -8.542647,-14.20622 z"
       id="path13" />
    <path
       style="fill:#ffff00;stroke:#000000;stroke-width:0.529167"
       d="m 136.01407,282.31406 c 0.51071,-1.67129 2.97135,-14.03905 2.97135,-14.03905 l 5.75702,10.69644 -16.62101,-5.01396 18.4781,-2.4234 z"
       id="path14" />
    <path
       style="fill:#ffff00;stroke:#000000;stroke-width:0.529167"
       d="m 93.950871,17.451712 9.099769,-11.7828035 8.17122,14.9165285 c 0,0 -23.352969,-9.401176 -21.58873,-9.48474 1.764239,-0.08357 27.71715,-0.752093 27.71715,-0.752093 z"
       id="path15" />
    <path
       style="fill:#ff8080;stroke:#000000;stroke-width:0.529167"
       d="M 88.797428,42.688631 94.368722,52.716551 60.708867,69.680449 71.6193,86.393646 c 0,0 -11.421142,0.877443 -11.142568,-0.877443 0.278575,-1.754883 -10.39972,-20.51545 -10.39972,-20.51545 L 84.758262,49.958881 80.02267,41.852974 Z"
       id="path16" />
    <path
       style="fill:#ff8080;stroke:#000000;stroke-width:0.529167"
       d="m 118.51095,40.223445 -0.18569,15.292572 34.49553,4.596125 0.8357,13.161645 -25.95291,14.749399 -0.74284,9.610079 34.03126,-19.470867 0.46427,-24.860877 -35.37765,-5.39001 0.60357,-10.571101 z"
       id="path17" />
    <path
       style="fill:#1a1a1a;stroke:#000000;stroke-width:0.529167"
       d="m 65.676594,184.58368 c 3.899913,0.41783 71.637446,16.83853 71.637446,16.83853 l -40.809668,1.88025 0.928561,-5.34822 -17.363845,-0.5014 6.824824,15.4597 -12.535394,-0.25069 z"
       id="path18" />
    <path
       style="fill:#0000ff;stroke:#000000;stroke-width:0.529167"
       d="m 100.72928,156.88154 c 0,0 -5.80343,8.81624 -4.178468,9.06693 1.624965,0.25069 14.624628,2.96657 14.624628,2.96657 l 1.06781,-14.9583 z"
       id="path19" />
    <path
       style="fill:none;stroke:#000000;stroke-width:0.529167"
       d="m 174.59523,107.45227 0.325,26.49043 c 0,0 -34.03129,-17.08926 -32.40632,-17.13104 1.62496,-0.0418 32.08132,-9.35939 32.08132,-9.35939 z"
       id="path20" />
    <path
       style="fill:none;stroke:#000000;stroke-width:0.529167"
       d="m 155.51357,152.20185 -1.57853,19.34553 28.36714,-8.44016 z"
       id="path21" />
    <path
       style="fill:none;stroke:#000000;stroke-width:0.529167"
       d="m 172.08815,217.25797 13.64965,-1.37884 -9.98189,-42.24261 -5.47842,42.4933 z"
       id="path22" />
    <path
       style="fill:none;stroke:#000000;stroke-width:0.529167"
       d="m 29.416822,93.956366 38.070453,11.657454 c 0,0 -25.906491,16.00289 -25.627917,14.41514 C 42.137933,118.4412 31.738189,93.246055 31.738189,93.246055 Z"
       id="path23" />
    <path
       style="fill:none;stroke:#000000;stroke-width:0.529167"
       d="m 24.588371,141.96503 2.971351,25.61295 17.920972,-0.33425 -18.710232,-28.28709 z"
       id="path24" />
    <path
       style="fill:none;stroke:#000000;stroke-width:0.529167"
       d="m 19.620644,193.14919 c 0.185706,-1.79668 3.064211,-17.79956 3.064211,-17.79956 l 16.20315,4.84683 z"
       id="path25" />
    <path
       style="fill:none;stroke:#000000;stroke-width:0.529167"
       d="M -36.974327,183.07948 Z"
       id="path26" />
  </g>
</svg>
