<?xml version="1.0" encoding="UTF-8" standalone="no"?>
<!-- Created with Inkscape (http://www.inkscape.org/) -->

<svg
   width="210mm"
   height="297mm"
   viewBox="0 0 210 297"
   version="1.1"
   id="svg1"
   inkscape:version="1.3.1 (9b9bdc1480, 2023-11-25, custom)"
   sodipodi:docname="reto_4.svg"
   xmlns:inkscape="http://www.inkscape.org/namespaces/inkscape"
   xmlns:sodipodi="http://sodipodi.sourceforge.net/DTD/sodipodi-0.dtd"
   xmlns="http://www.w3.org/2000/svg"
   xmlns:svg="http://www.w3.org/2000/svg">
  <sodipodi:namedview
     id="namedview1"
     pagecolor="#ffffff"
     bordercolor="#000000"
     borderopacity="0.25"
     inkscape:showpageshadow="2"
     inkscape:pageopacity="0.0"
     inkscape:pagecheckerboard="0"
     inkscape:deskcolor="#d1d1d1"
     inkscape:document-units="mm"
     inkscape:zoom="0.7198092"
     inkscape:cx="405.66305"
     inkscape:cy="540.42099"
     inkscape:window-width="1854"
     inkscape:window-height="1011"
     inkscape:window-x="66"
     inkscape:window-y="32"
     inkscape:window-maximized="1"
     inkscape:current-layer="layer1" />
  <defs
     id="defs1" />
  <g
     inkscape:label="Capa 1"
     inkscape:groupmode="layer"
     id="layer1">
    <path
       style="fill:#ffff00;stroke:#000000;stroke-width:0.52916667;stroke-opacity:1;stroke-dasharray:none"
       id="path1"
       sodipodi:type="arc"
       sodipodi:cx="102.67778"
       sodipodi:cy="72.134277"
       sodipodi:rx="32.270329"
       sodipodi:ry="33.551743"
       sodipodi:start="0.11008247"
       sodipodi:end="5.2871935"
       sodipodi:arc-type="slice"
       d="M 134.75278,75.820281 A 32.270329,33.551743 0 0 1 108.02397,105.22238 32.270329,33.551743 0 0 1 73.521887,86.514918 32.270329,33.551743 0 0 1 81.412003,46.898235 32.270329,33.551743 0 0 1 120.22221,43.974347 l -17.54443,28.15993 z"
       transform="rotate(23.637215)" />
    <ellipse
       style="fill:#000000;stroke:#000000;stroke-width:6.00001"
       id="path5"
       cx="65.898514"
       cy="88.670807"
       rx="2.5535126"
       ry="2.2771702" />
    <path
       style="fill:#ff00ff;stroke:#000000;stroke-width:0.538051;stroke-dasharray:none;stroke-opacity:1"
       id="path6"
       sodipodi:type="arc"
       sodipodi:cx="-123.79501"
       sodipodi:cy="216.77277"
       sodipodi:rx="24.493601"
       sodipodi:ry="23.281614"
       sodipodi:start="0"
       sodipodi:end="4.8854582"
       sodipodi:arc-type="slice"
       d="m -99.301413,216.77277 a 24.493601,23.281614 0 0 1 -16.107877,21.87464 24.493601,23.281614 0 0 1 -27.13738,-6.89646 24.493601,23.281614 0 0 1 -2.47386,-26.59685 24.493601,23.281614 0 0 1 25.44347,-11.31514 l -4.21795,22.93381 z"
       transform="matrix(0.67324407,-0.73942033,0.77460392,0.63244666,0,0)" />
    <path
       style="fill:#ff00ff;stroke:#000000;stroke-width:1.07805;stroke-dasharray:none;stroke-opacity:1"
       id="path7"
       sodipodi:type="arc"
       sodipodi:cx="-163.16402"
       sodipodi:cy="-116.03469"
       sodipodi:rx="21.466122"
       sodipodi:ry="25.766867"
       sodipodi:start="0"
       sodipodi:end="1.9993618"
       sodipodi:arc-type="slice"
       d="m -141.6979,-116.03469 a 21.466122,25.766867 0 0 1 -9.86216,21.677626 21.466122,25.766867 0 0 1 -20.52456,1.758957 l 8.9206,-23.436583 z"
       transform="matrix(-0.76286595,-0.64655668,0.33648475,-0.94168892,0,0)" />
    <path
       style="fill:#00ffff;stroke:#000000;stroke-width:0.529167;stroke-dasharray:none;stroke-opacity:1"
       id="path8"
       sodipodi:type="arc"
       sodipodi:cx="192.72888"
       sodipodi:cy="-151.5464"
       sodipodi:rx="30.108166"
       sodipodi:ry="29.916613"
       sodipodi:start="5.3786808"
       sodipodi:end="4.0646194"
       sodipodi:open="true"
       sodipodi:arc-type="chord"
       d="m 211.33799,-175.06442 a 30.108166,29.916613 0 0 1 9.79776,33.43209 30.108166,29.916613 0 0 1 -28.6857,20.00126 30.108166,29.916613 0 0 1 -28.30796,-20.52575 30.108166,29.916613 0 0 1 10.41924,-33.24604 z"
       transform="rotate(88.279422)" />
    <path
       style="fill:none;stroke:#000000;stroke-width:0.529167;stroke-dasharray:none;stroke-opacity:1"
       id="path9"
       sodipodi:type="arc"
       sodipodi:cx="151.93468"
       sodipodi:cy="82.278023"
       sodipodi:rx="26.904654"
       sodipodi:ry="27.430532"
       sodipodi:start="0.60773704"
       sodipodi:end="4.0646194"
       sodipodi:open="true"
       sodipodi:arc-type="arc"
       d="M 174.02185,97.941163 A 26.904654,27.430532 0 0 1 146.87371,109.21888 26.904654,27.430532 0 0 1 125.73403,88.511999 26.904654,27.430532 0 0 1 135.70016,60.404048" />
    <ellipse
       style="fill:#ffa600;stroke:#000000;stroke-width:0.529167;stroke-dasharray:none;stroke-opacity:1;fill-opacity:1"
       id="path13"
       cx="40.253769"
       cy="33.581684"
       rx="21.379803"
       ry="22.771729" />
    <rect
       style="fill:#000000;fill-opacity:1;stroke:#000000;stroke-width:0.529167;stroke-dasharray:none;stroke-opacity:1"
       id="rect13"
       width="6.0819921"
       height="16.002892"
       x="29.273697"
       y="20.252913"
       ry="3.0409961" />
    <rect
       style="fill:#000000;fill-opacity:1;stroke:#000000;stroke-width:0.529167;stroke-dasharray:none;stroke-opacity:1"
       id="rect13-9"
       width="6.0819921"
       height="16.002892"
       x="44.331818"
       y="20.024883"
       ry="3.0409961" />
    <path
       style="fill:none;fill-opacity:1;stroke:#000000;stroke-width:0.867154;stroke-dasharray:none;stroke-opacity:1"
       id="path14"
       sodipodi:type="arc"
       sodipodi:cx="-26.130049"
       sodipodi:cy="51.259003"
       sodipodi:rx="13.770835"
       sodipodi:ry="8.0987034"
       sodipodi:start="1.5138694"
       sodipodi:end="4.2135045"
       sodipodi:arc-type="arc"
       d="m -25.346541,59.344587 a 13.770835,8.0987034 0 0 1 -14.025985,-5.863767 13.770835,8.0987034 0 0 1 6.653873,-9.333425"
       sodipodi:open="true"
       transform="matrix(0.33044493,-0.94382527,0.97012101,0.24262156,0,0)"
       inkscape:transform-center-x="-1.9772012"
       inkscape:transform-center-y="-1.0450908" />
    <ellipse
       style="fill:#ffa600;fill-opacity:1;stroke:#000000;stroke-width:0.529167;stroke-dasharray:none;stroke-opacity:1"
       id="path13-4"
       cx="169.94743"
       cy="33.155712"
       rx="21.379803"
       ry="22.771729" />
    <rect
       style="fill:#000000;fill-opacity:1;stroke:#000000;stroke-width:0.529167;stroke-dasharray:none;stroke-opacity:1"
       id="rect13-5"
       width="6.0819921"
       height="16.002892"
       x="158.96736"
       y="19.826944"
       ry="3.0409961" />
    <rect
       style="fill:#000000;fill-opacity:1;stroke:#000000;stroke-width:0.529167;stroke-dasharray:none;stroke-opacity:1"
       id="rect13-9-0"
       width="6.0819921"
       height="16.002892"
       x="174.02548"
       y="19.598913"
       ry="3.0409961" />
    <path
       style="fill:none;fill-opacity:1;stroke:#000000;stroke-width:0.867154;stroke-dasharray:none;stroke-opacity:1"
       id="path14-3"
       sodipodi:type="arc"
       sodipodi:cx="13.562206"
       sodipodi:cy="-177.8672"
       sodipodi:rx="13.770835"
       sodipodi:ry="8.0987034"
       sodipodi:start="1.5138694"
       sodipodi:end="4.2135045"
       sodipodi:arc-type="arc"
       d="m 14.345714,-169.78162 a 13.770835,8.0987034 0 0 1 -14.02598465,-5.86377 13.770835,8.0987034 0 0 1 6.65387215,-9.33342"
       sodipodi:open="true"
       transform="matrix(-0.30600282,0.95203061,-0.97605348,-0.21753072,0,0)"
       inkscape:transform-center-x="1.8396256"
       inkscape:transform-center-y="1.168995" />
  </g>
</svg>
