<?xml version="1.0" encoding="UTF-8" standalone="no"?>
<!-- Created with Inkscape (http://www.inkscape.org/) -->

<svg
   width="291.30887mm"
   height="296.6087mm"
   viewBox="0 0 291.30887 296.6087"
   version="1.1"
   id="svg1"
   inkscape:version="1.3.1 (9b9bdc1480, 2023-11-25, custom)"
   sodipodi:docname="reto_6.svg"
   xmlns:inkscape="http://www.inkscape.org/namespaces/inkscape"
   xmlns:sodipodi="http://sodipodi.sourceforge.net/DTD/sodipodi-0.dtd"
   xmlns="http://www.w3.org/2000/svg"
   xmlns:svg="http://www.w3.org/2000/svg">
  <sodipodi:namedview
     id="namedview1"
     pagecolor="#ffffff"
     bordercolor="#000000"
     borderopacity="0.25"
     inkscape:showpageshadow="2"
     inkscape:pageopacity="0.0"
     inkscape:pagecheckerboard="0"
     inkscape:deskcolor="#d1d1d1"
     inkscape:document-units="mm"
     inkscape:zoom="0.76859122"
     inkscape:cx="527.58865"
     inkscape:cy="493.10998"
     inkscape:window-width="1854"
     inkscape:window-height="1011"
     inkscape:window-x="66"
     inkscape:window-y="32"
     inkscape:window-maximized="1"
     inkscape:current-layer="layer1" />
  <defs
     id="defs1" />
  <g
     inkscape:label="Capa 1"
     inkscape:groupmode="layer"
     id="layer1"
     transform="translate(0,-0.39130923)">
    <path
       style="fill:#cccccc;stroke:#000000;stroke-width:0.529167"
       d="m 40.373282,26.355845 c 0,0 -22.194974,7.097214 -19.740209,17.961155 2.29494,10.15661 19.653246,3.834847 19.653246,3.834847 0,0 -16.537373,20.079429 -8.956999,29.191764 8.077212,9.709582 27.001472,-7.787084 27.001472,-7.787084 0,0 4.642631,21.699419 15.261712,23.596026 11.938745,2.132304 23.262159,-19.135091 23.262159,-19.135091 0,0 18.289507,14.567559 28.871157,8.178391 6.30868,-3.809164 9.08745,-13.187157 9.08745,-13.187157 0,0 27.1913,3.623813 29.47992,-9.469717 1.88307,-10.773303 -18.65325,-13.343678 -18.65325,-13.343678 0,0 24.36894,1.001146 23.21869,-11.504544 -0.96006,-10.437956 -30.95822,-5.517473 -30.95822,-5.517473 0,0 9.40273,-7.927972 0.56525,-17.374189 -5.93692,-6.3458663 -21.26205,6.260964 -21.26205,6.260964 0,0 -15.67507,-9.0210365 -25.262268,-7.395764 -7.372163,1.249767 -14.044247,7.826211 -14.044247,7.826211 0,0 -25.925906,-16.6966795 -35.523688,-7.669684 -4.082905,3.840092 -2.000125,15.535023 -2.000125,15.535023 z"
       id="path1"
       sodipodi:nodetypes="cscscscscscscscscsc" />
    <path
       style="fill:#ffaaaa;stroke:#000000;stroke-width:0.360257;fill-opacity:1"
       d="m 32.241183,195.93674 c 0,0 -15.027879,-33.06475 -9.125998,-37.38241 10.336484,-7.56189 21.39987,30.80157 21.39987,30.80157 0,0 -15.160012,-36.735 -3.898761,-40.60457 10.775953,-3.70281 12.533794,33.75067 12.533794,33.75067 0,0 -6.689989,-33.37302 4.620732,-35.22521 10.908886,-1.78638 7.104425,35.14331 7.104425,35.14331 0,0 3.903357,-37.8118 10.079014,-28.15287 7.855792,12.2867 -3.17676,48.14112 -3.17676,48.14112 0,0 7.524611,-11.60319 16.605839,-10.21258 13.371572,2.0476 -15.392888,34.37872 -15.392888,34.37872 l -28.995234,3.54983 z"
       id="path2"
       sodipodi:nodetypes="cscscscscsccc" />
    <path
       style="fill:#ffcc00;stroke:#28220b;stroke-width:0.529167;fill-opacity:1"
       id="path3"
       sodipodi:type="arc"
       sodipodi:cx="233.27519"
       sodipodi:cy="109.54846"
       sodipodi:rx="13.022451"
       sodipodi:ry="12.717592"
       sodipodi:start="0"
       sodipodi:end="6.2675583"
       sodipodi:open="true"
       sodipodi:arc-type="arc"
       d="m 246.29764,109.54846 a 13.022451,12.717592 0 0 1 -12.97157,12.7175 13.022451,12.717592 0 0 1 -13.07293,-12.61813 13.022451,12.717592 0 0 1 12.86943,-12.816087 13.022451,12.717592 0 0 1 13.17348,12.517987" />
    <path
       style="fill:none;stroke:#000000;stroke-width:0.529167"
       d="m 223.29637,101.05702 c 0,0 -20.769,-34.349651 -9.6092,-38.231021 10.98893,-3.82194 18.4358,34.59184 18.4358,34.59184 0,0 3.57636,-37.68207 15.91392,-37.01799 12.59147,0.67776 -7.47867,38.23104 -7.47867,38.23104 0,0 20.78622,-29.3603 29.82771,-21.56119 9.01946,7.7801 -24.5231,26.022151 -24.5231,26.022151 0,0 33.41111,-3.247231 33.74105,7.12183 0.33237,10.445 -33.61057,4.0305 -33.61057,4.0305 0,0 33.32295,20.50181 24.21869,29.30915 -8.8903,8.60036 -30.91473,-21.60033 -30.91473,-21.60033 0,0 9.92791,31.12494 -0.78262,32.32226 -11.37635,1.27175 -8.3918,-33.30053 -8.3918,-33.30053 0,0 -26.87574,38.38435 -37.17597,27.03956 -9.50249,-10.46615 28.13199,-31.73529 28.13199,-31.73529 0,0 -36.96044,1.63214 -35.13236,-10.44799 1.72416,-11.393391 34.56712,0.39131 34.56712,0.39131 0,0 -35.10791,-16.521751 -28.17548,-26.296071 6.79342,-9.57834 30.95822,21.130771 30.95822,21.130771 z"
       id="path4"
       sodipodi:nodetypes="cscscscscscacscscsc" />
    <path
       style="fill:#ffcece;stroke:#000000;stroke-width:0.529167;fill-opacity:1"
       d="m 133.50888,257.25545 c 0.39429,1.17537 -6.91608,-42.95321 -0.26091,-64.25318 3.33074,-10.66009 14.85402,-20.44762 26.00143,-21.13077 8.16164,-0.50017 16.54401,6.03872 20.78377,13.03064 5.21053,8.59285 -2.84662,19.61951 4.52195,26.45258 7.12039,6.60293 19.6667,-2.64645 27.0015,3.71746 4.68004,4.06056 6.69489,13.6589 2.69582,18.3916 -5.33335,6.31175 -22.65342,-1.29132 -22.65342,-1.29132 0,0 1.31836,8.25781 -3.0002,11.07405 -6.23375,4.06519 -20.96006,-11.71554 -25.30572,-5.67397 -4.78824,6.65687 23.87087,19.72204 23.87087,19.72204 z"
       id="path5"
       sodipodi:nodetypes="csssssscsscc" />
    <path
       style="fill:#ffffff;stroke:#000000;stroke-width:0.529167;fill-opacity:1"
       d="m 152.16207,195.38926 c 0,0 8.39265,-9.93149 14.566,-9.11754 3.36074,0.44311 7.62656,3.77426 8.52224,7.04361 0.76384,2.7881 -5.65252,8.25666 -5.65252,8.25666 z"
       id="path6"
       sodipodi:nodetypes="csscc" />
    <path
       id="path7"
       style="fill:#000000;stroke:#000000;stroke-width:0.529167;fill-opacity:1"
       d="m 168.91426,187.91563 a 2.6523259,5.8500981 0 0 0 -2.62103,5.89525 2.6523259,5.8500981 0 0 0 2.66288,5.80429 2.6523259,5.8500981 0 0 0 2.6417,-5.84977 v -0.0915 a 2.6523259,5.8500981 0 0 0 -2.68355,-5.75831 z" />
  </g>
</svg>
